SplineFontDB: 3.2
FontName: ing15m
FullName: ing15m
FamilyName: ing15m
Weight: Regular
Copyright: Copyright 2022 The Noto Project Authors (https://github.com/notofonts/latin-greek-cyrillic)
Version: 2.013
ItalicAngle: 0
UnderlinePosition: -125
UnderlineWidth: 50
Ascent: 800
Descent: 200
InvalidEm: 0
sfntRevision: 0x00020354
LayerCount: 2
Layer: 0 1 "Back" 1
Layer: 1 1 "Fore" 0
XUID: [1021 426 849761687 13685114]
StyleMap: 0x0040
FSType: 0
OS2Version: 4
OS2_WeightWidthSlopeOnly: 0
OS2_UseTypoMetrics: 1
CreationTime: 1633362791
ModificationTime: 1742456738
PfmFamily: 17
TTFWeight: 400
TTFWidth: 5
LineGap: 0
VLineGap: 0
Panose: 2 11 5 2 4 5 4 2 2 4
OS2TypoAscent: 1069
OS2TypoAOffset: 0
OS2TypoDescent: -293
OS2TypoDOffset: 0
OS2TypoLinegap: 0
OS2WinAscent: 1124
OS2WinAOffset: 0
OS2WinDescent: 395
OS2WinDOffset: 0
HheadAscent: 1069
HheadAOffset: 0
HheadDescent: -293
HheadDOffset: 0
OS2SubXSize: 650
OS2SubYSize: 600
OS2SubXOff: 0
OS2SubYOff: 75
OS2SupXSize: 650
OS2SupYSize: 600
OS2SupXOff: 0
OS2SupYOff: 350
OS2StrikeYSize: 50
OS2StrikeYPos: 322
OS2CapHeight: 714
OS2XHeight: 536
OS2Vendor: 'GOOG'
OS2CodePages: 0000019f.00000000
OS2UnicodeRanges: e00002ff.4000201f.08000029.00100000
MarkAttachClasses: 3

StartChar: exclam
Encoding: 33 33 3
Width: 540
Flags: W
LayerCount: 2
Fore
SplineSet
265 112 m 0,0,1
 249 112 249 112 240 123 c 128,-1,2
 231 134 231 134 226.5 161 c 128,-1,3
 222 188 222 188 221 233.5 c 128,-1,4
 220 279 220 279 220 348 c 0,5,6
 220 445 220 445 221 499 c 128,-1,7
 222 553 222 553 228 579 c 128,-1,8
 234 605 234 605 246.5 610.5 c 128,-1,9
 259 616 259 616 282 616 c 0,10,11
 294 616 294 616 301 609 c 128,-1,12
 308 602 308 602 312.5 579 c 128,-1,13
 317 556 317 556 318.5 511 c 128,-1,14
 320 466 320 466 320 389 c 0,15,16
 320 249 320 249 310 180.5 c 128,-1,17
 300 112 300 112 265 112 c 0,0,1
252 593 m 0,18,19
 248 593 248 593 242 581 c 128,-1,20
 236 569 236 569 236 544 c 0,21,22
 236 531 236 531 237.5 518.5 c 128,-1,23
 239 506 239 506 246 506 c 0,24,25
 252 506 252 506 254 510 c 128,-1,26
 256 514 256 514 256 519.5 c 128,-1,27
 256 525 256 525 255.5 532 c 128,-1,28
 255 539 255 539 255 545 c 0,29,30
 256 562 256 562 258 577.5 c 128,-1,31
 260 593 260 593 252 593 c 0,18,19
266 -8 m 0,32,33
 247 -8 247 -8 235.5 4.5 c 128,-1,34
 224 17 224 17 224 38 c 0,35,36
 224 57 224 57 234 73.5 c 128,-1,37
 244 90 244 90 266 90 c 0,38,39
 289 90 289 90 301 74.5 c 128,-1,40
 313 59 313 59 313 38 c 0,41,42
 313 15 313 15 299.5 3.5 c 128,-1,43
 286 -8 286 -8 266 -8 c 0,32,33
248 44 m 0,44,45
 249 55 249 55 253 64 c 128,-1,46
 257 73 257 73 252 73 c 0,47,48
 245 73 245 73 240.5 58.5 c 128,-1,49
 236 44 236 44 236 33 c 0,50,51
 236 23 236 23 241 23 c 0,52,53
 245 23 245 23 246 30.5 c 128,-1,54
 247 38 247 38 248 44 c 0,44,45
EndSplineSet
EndChar

StartChar: quotedbl
Encoding: 34 34 4
Width: 540
Flags: W
LayerCount: 2
Fore
SplineSet
226 714 m 1,0,-1
 206 456 l 1,1,-1
 151 456 l 1,2,-1
 131 714 l 1,3,-1
 226 714 l 1,0,-1
409 714 m 1,4,-1
 389 456 l 1,5,-1
 334 456 l 1,6,-1
 314 714 l 1,7,-1
 409 714 l 1,4,-1
EndSplineSet
EndChar

StartChar: numbersign
Encoding: 35 35 5
Width: 540
Flags: W
LayerCount: 2
Fore
SplineSet
72 0 m 1,0,-1
 110 199 l 1,1,-1
 2 199 l 1,2,-1
 2 266 l 1,3,-1
 123 266 l 1,4,-1
 155 419 l 5,5,-1
 28 419 l 5,6,-1
 28 485 l 5,7,-1
 167 485 l 5,8,-1
 207 687 l 5,9,-1
 279 687 l 5,10,-1
 239 485 l 5,11,-1
 363 485 l 5,12,-1
 403 687 l 5,13,-1
 472 687 l 5,14,-1
 432 485 l 5,15,-1
 538 485 l 5,16,-1
 538 419 l 5,17,-1
 419 419 l 5,18,-1
 388 266 l 1,19,-1
 517 266 l 1,20,-1
 517 199 l 1,21,-1
 375 199 l 1,22,-1
 334 0 l 1,23,-1
 263 0 l 1,24,-1
 304 199 l 1,25,-1
 181 199 l 1,26,-1
 142 0 l 1,27,-1
 72 0 l 1,0,-1
194 266 m 1,28,-1
 317 266 l 1,29,-1
 348 419 l 5,30,-1
 225 419 l 5,31,-1
 194 266 l 1,28,-1
EndSplineSet
EndChar

StartChar: dollar
Encoding: 36 36 6
Width: 540
Flags: W
LayerCount: 2
Fore
SplineSet
334.981445312 739.662109375 m 260,0,1
 361.59375 735.099609375 361.59375 735.099609375 369.717773438 714.4296875 c 132,-1,2
 377.860351562 693.711914062 377.860351562 693.711914062 374.80078125 676.018554688 c 6,3,-1
 260.609375 15.8212890625 l 6,4,5
 257.90625 0.05078125 257.90625 0.05078125 245.529296875 -10.0029296875 c 132,-1,6
 233.15234375 -20.0556640625 233.15234375 -20.0556640625 213.440429688 -16.6767578125 c 4,7,8
 205.555664062 -15.3251953125 205.555664062 -15.3251953125 193.108398438 -5.07421875 c 4,9,10
 178.859375 6.5 178.859375 6.5 181.731445312 23.2548828125 c 6,11,-1
 295.106445312 684.607421875 l 6,12,13
 298.823242188 706.291015625 298.823242188 706.291015625 303.596679688 725.2578125 c 132,-1,14
 308.370117188 744.223632812 308.370117188 744.223632812 334.981445312 739.662109375 c 260,0,1
236.194335938 33.1962890625 m 4,15,16
 234.334960938 22.3544921875 234.334960938 22.3544921875 230.604492188 15.384765625 c 132,-1,17
 226.873046875 8.4150390625 226.873046875 8.4150390625 224.633789062 4.232421875 c 132,-1,18
 222.395507812 0.05078125 222.395507812 0.05078125 222.057617188 -1.919921875 c 132,-1,19
 221.719726562 -3.8916015625 221.719726562 -3.8916015625 226.647460938 -4.736328125 c 4,20,21
 232.561523438 -5.75 232.561523438 -5.75 236.940429688 -0.9208984375 c 132,-1,22
 241.319335938 3.9091796875 241.319335938 3.9091796875 244.557617188 10.962890625 c 132,-1,23
 247.795898438 18.017578125 247.795898438 18.017578125 249.556640625 25.3251953125 c 132,-1,24
 251.31640625 32.6328125 251.31640625 32.6328125 252.161132812 37.560546875 c 4,25,26
 254.357421875 50.3740234375 254.357421875 50.3740234375 253.174804688 61.2294921875 c 132,-1,27
 251.9921875 72.0859375 251.9921875 72.0859375 246.078125 73.099609375 c 4,28,29
 243.12109375 73.6064453125 243.12109375 73.6064453125 241.868164062 69.255859375 c 132,-1,30
 240.615234375 64.9052734375 240.615234375 64.9052734375 239.432617188 58.005859375 c 132,-1,31
 238.25 51.1064453125 238.25 51.1064453125 237.559570312 44.1220703125 c 132,-1,32
 236.870117188 37.138671875 236.870117188 37.138671875 236.194335938 33.1962890625 c 4,15,16
249 81 m 0,33,34
 199 81 199 81 153.5 90 c 128,-1,35
 108 99 108 99 75 115 c 1,36,-1
 75 198 l 1,37,38
 110 182 110 182 152.5 168.5 c 128,-1,39
 195 155 195 155 254 155 c 0,40,41
 320 155 320 155 347.5 175.5 c 128,-1,42
 375 196 375 196 375 235 c 0,43,44
 375 256 375 256 365.5 269.5 c 128,-1,45
 356 283 356 283 329 297 c 128,-1,46
 302 311 302 311 250 333 c 0,47,48
 198 356 198 356 161 376 c 128,-1,49
 124 396 124 396 104 423.5 c 128,-1,50
 84 451 84 451 84 494 c 0,51,52
 84 542 84 542 108.5 573.5 c 128,-1,53
 133 605 133 605 179.5 621 c 128,-1,54
 226 637 226 637 290 637 c 0,55,56
 334 637 334 637 374 629 c 128,-1,57
 414 621 414 621 457 603 c 1,58,-1
 430 533 l 1,59,60
 390 550 390 550 356.5 556 c 128,-1,61
 323 562 323 562 290 562 c 0,62,63
 228 562 228 562 199.5 546 c 128,-1,64
 171 530 171 530 171 496 c 0,65,66
 171 474 171 474 183.5 459 c 128,-1,67
 196 444 196 444 224.5 430 c 128,-1,68
 253 416 253 416 300 396 c 0,69,70
 353 374 353 374 390 355 c 128,-1,71
 427 336 427 336 446 309.5 c 128,-1,72
 465 283 465 283 465 237 c 0,73,74
 465 186 465 186 440.5 151.5 c 128,-1,75
 416 117 416 117 368 99 c 128,-1,76
 320 81 320 81 249 81 c 0,33,34
EndSplineSet
EndChar

StartChar: percent
Encoding: 37 37 7
Width: 540
Flags: W
LayerCount: 2
Fore
SplineSet
53 0 m 1,0,-1
 409 714 l 1,1,-1
 486 714 l 1,2,-1
 130 0 l 1,3,-1
 53 0 l 1,0,-1
426 -9 m 0,4,5
 365 -9 365 -9 324.5 35.5 c 128,-1,6
 284 80 284 80 284 161 c 256,7,8
 284 242 284 242 322.5 286 c 128,-1,9
 361 330 361 330 428 330 c 0,10,11
 489 330 489 330 529.5 286 c 128,-1,12
 570 242 570 242 570 161 c 256,13,14
 570 80 570 80 531 35.5 c 128,-1,15
 492 -9 492 -9 426 -9 c 0,4,5
427 49 m 256,16,17
 461 49 461 49 478 76 c 128,-1,18
 495 103 495 103 495 161 c 0,19,20
 495 220 495 220 478 245.5 c 128,-1,21
 461 271 461 271 427 271 c 256,22,23
 393 271 393 271 375.5 245.5 c 128,-1,24
 358 220 358 220 358 161 c 0,25,26
 358 103 358 103 375.5 76 c 128,-1,27
 393 49 393 49 427 49 c 256,16,17
112 383 m 0,28,29
 51 383 51 383 10.5 427.5 c 128,-1,30
 -30 472 -30 472 -30 553 c 256,31,32
 -30 634 -30 634 8.5 678 c 128,-1,33
 47 722 47 722 114 722 c 0,34,35
 175 722 175 722 215.5 678 c 128,-1,36
 256 634 256 634 256 553 c 256,37,38
 256 472 256 472 217 427.5 c 128,-1,39
 178 383 178 383 112 383 c 0,28,29
113 441 m 256,40,41
 147 441 147 441 164 468 c 128,-1,42
 181 495 181 495 181 553 c 0,43,44
 181 612 181 612 164 637.5 c 128,-1,45
 147 663 147 663 113 663 c 256,46,47
 79 663 79 663 61.5 637.5 c 128,-1,48
 44 612 44 612 44 553 c 0,49,50
 44 495 44 495 61.5 468 c 128,-1,51
 79 441 79 441 113 441 c 256,40,41
EndSplineSet
EndChar

StartChar: ampersand
Encoding: 38 38 8
Width: 540
Flags: W
LayerCount: 2
Fore
SplineSet
184 -10 m 0,0,1
 125 -10 125 -10 83.5 14 c 128,-1,2
 42 38 42 38 20.5 80.5 c 128,-1,3
 -1 123 -1 123 -1 176 c 0,4,5
 -1 233 -1 233 21.5 275.5 c 128,-1,6
 44 318 44 318 80 351.5 c 128,-1,7
 116 385 116 385 157 414 c 0,8,9
 180 430 180 430 208 454 c 128,-1,10
 236 478 236 478 257 509.5 c 128,-1,11
 278 541 278 541 278 580 c 0,12,13
 278 616 278 616 259 636 c 128,-1,14
 240 656 240 656 209 656 c 256,15,16
 178 656 178 656 159.5 635 c 128,-1,17
 141 614 141 614 141 576 c 0,18,19
 141 550 141 550 149.5 522 c 128,-1,20
 158 494 158 494 172.5 468 c 128,-1,21
 187 442 187 442 204 420 c 2,22,-1
 541 0 l 1,23,-1
 434 0 l 1,24,-1
 152 364 l 2,25,26
 130 393 130 393 108.5 427 c 128,-1,27
 87 461 87 461 73 499.5 c 128,-1,28
 59 538 59 538 59 578 c 0,29,30
 59 644 59 644 99 684.5 c 128,-1,31
 139 725 139 725 209 725 c 256,32,33
 279 725 279 725 319 684.5 c 128,-1,34
 359 644 359 644 359 580 c 0,35,36
 359 530 359 530 336 490 c 128,-1,37
 313 450 313 450 278 418.5 c 128,-1,38
 243 387 243 387 208 359 c 0,39,40
 179 336 179 336 150.5 310.5 c 128,-1,41
 122 285 122 285 103.5 253.5 c 128,-1,42
 85 222 85 222 85 181 c 0,43,44
 85 133 85 133 114 100 c 128,-1,45
 143 67 143 67 194 67 c 0,46,47
 231 67 231 67 263.5 84.5 c 128,-1,48
 296 102 296 102 323 132 c 128,-1,49
 350 162 350 162 370.5 198.5 c 128,-1,50
 391 235 391 235 404.5 274 c 128,-1,51
 418 313 418 313 424 349 c 1,52,-1
 507 349 l 1,53,54
 497 292 497 292 477.5 239 c 128,-1,55
 458 186 458 186 429 140.5 c 128,-1,56
 400 95 400 95 363 61.5 c 128,-1,57
 326 28 326 28 281 9 c 128,-1,58
 236 -10 236 -10 184 -10 c 0,0,1
EndSplineSet
EndChar

StartChar: quotesingle
Encoding: 39 39 9
Width: 540
Flags: W
LayerCount: 2
Fore
SplineSet
317.5 714 m 1,0,-1
 297.5 456 l 1,1,-1
 242.5 456 l 1,2,-1
 222.5 714 l 1,3,-1
 317.5 714 l 1,0,-1
EndSplineSet
EndChar

StartChar: parenleft
Encoding: 40 40 10
Width: 540
Flags: W
LayerCount: 2
Fore
SplineSet
334.5 -72 m 0,0,1
 280.5 -51 280.5 -51 244 -13 c 128,-1,2
 207.5 25 207.5 25 185 71.5 c 128,-1,3
 162.5 118 162.5 118 152.5 169.5 c 128,-1,4
 142.5 221 142.5 221 142.5 269 c 0,5,6
 142.5 315 142.5 315 151 363 c 128,-1,7
 159.5 411 159.5 411 175 456 c 128,-1,8
 190.5 501 190.5 501 213.5 540.5 c 128,-1,9
 236.5 580 236.5 580 264.5 609 c 0,10,11
 291.5 636 291.5 636 316.5 654 c 128,-1,12
 341.5 672 341.5 672 361.5 672 c 0,13,14
 376.5 672 376.5 672 385.5 660 c 128,-1,15
 394.5 648 394.5 648 394.5 636 c 0,16,17
 394.5 628 394.5 628 382 617 c 128,-1,18
 369.5 606 369.5 606 346.5 582 c 0,19,20
 316.5 550 316.5 550 296.5 512 c 128,-1,21
 276.5 474 276.5 474 264.5 433.5 c 128,-1,22
 252.5 393 252.5 393 248 351.5 c 128,-1,23
 243.5 310 243.5 310 243.5 272 c 256,24,25
 243.5 234 243.5 234 249.5 192.5 c 128,-1,26
 255.5 151 255.5 151 269.5 113 c 128,-1,27
 283.5 75 283.5 75 306.5 43.5 c 128,-1,28
 329.5 12 329.5 12 363.5 -7 c 0,29,30
 380.5 -16 380.5 -16 389 -22.5 c 128,-1,31
 397.5 -29 397.5 -29 397.5 -43 c 0,32,33
 397.5 -56 397.5 -56 384.5 -66 c 128,-1,34
 371.5 -76 371.5 -76 354.5 -76 c 0,35,36
 343.5 -76 343.5 -76 334.5 -72 c 0,0,1
320.5 620 m 0,37,38
 325.5 625 325.5 625 331.5 630.5 c 128,-1,39
 337.5 636 337.5 636 330.5 636 c 0,40,41
 322.5 636 322.5 636 312 628.5 c 128,-1,42
 301.5 621 301.5 621 291.5 611 c 128,-1,43
 281.5 601 281.5 601 275 590.5 c 128,-1,44
 268.5 580 268.5 580 268.5 574 c 0,45,46
 268.5 569 268.5 569 272.5 569 c 0,47,48
 277.5 569 277.5 569 282 575.5 c 128,-1,49
 286.5 582 286.5 582 289.5 587 c 0,50,51
 293.5 594 293.5 594 300.5 601.5 c 128,-1,52
 307.5 609 307.5 609 320.5 620 c 0,37,38
262.5 547 m 0,53,54
 262.5 555 262.5 555 256.5 555 c 0,55,56
 244.5 555 244.5 555 244.5 547 c 0,57,58
 244.5 541 244.5 541 247.5 539.5 c 128,-1,59
 250.5 538 250.5 538 252.5 538 c 256,60,61
 254.5 538 254.5 538 258.5 539.5 c 128,-1,62
 262.5 541 262.5 541 262.5 547 c 0,53,54
EndSplineSet
EndChar

StartChar: parenright
Encoding: 41 41 11
Width: 540
Flags: W
LayerCount: 2
Fore
SplineSet
199 -93 m 0,0,1
 185 -93 185 -93 172.5 -84.5 c 128,-1,2
 160 -76 160 -76 160 -66 c 0,3,4
 160 -57 160 -57 170 -43 c 128,-1,5
 180 -29 180 -29 194.5 -8.5 c 128,-1,6
 209 12 209 12 226.5 41 c 128,-1,7
 244 70 244 70 258.5 108 c 128,-1,8
 273 146 273 146 283 195 c 128,-1,9
 293 244 293 244 293 305 c 0,10,11
 293 352 293 352 285.5 398.5 c 128,-1,12
 278 445 278 445 264 484 c 128,-1,13
 250 523 250 523 230.5 552 c 128,-1,14
 211 581 211 581 187 594 c 0,15,16
 175 601 175 601 161 610.5 c 128,-1,17
 147 620 147 620 147 638 c 0,18,19
 147 653 147 653 160 662.5 c 128,-1,20
 173 672 173 672 194 672 c 0,21,22
 231 672 231 672 267 646 c 128,-1,23
 303 620 303 620 331 572 c 128,-1,24
 359 524 359 524 376 455.5 c 128,-1,25
 393 387 393 387 393 302 c 0,26,27
 393 227 393 227 384.5 175 c 128,-1,28
 376 123 376 123 360.5 85 c 128,-1,29
 345 47 345 47 324 17 c 128,-1,30
 303 -13 303 -13 278 -44 c 0,31,32
 255 -73 255 -73 235.5 -83 c 128,-1,33
 216 -93 216 -93 199 -93 c 0,0,1
167 621 m 0,34,35
 171 621 171 621 174.5 628.5 c 128,-1,36
 178 636 178 636 178 644 c 0,37,38
 178 657 178 657 171 657 c 0,39,40
 167 657 167 657 163.5 649.5 c 128,-1,41
 160 642 160 642 160 634 c 0,42,43
 160 621 160 621 167 621 c 0,34,35
194 -60 m 256,44,45
 199 -50 199 -50 199.5 -40 c 128,-1,46
 200 -30 200 -30 196 -29 c 0,47,48
 194 -29 194 -29 190.5 -33 c 128,-1,49
 187 -37 187 -37 183.5 -43 c 128,-1,50
 180 -49 180 -49 177.5 -55 c 128,-1,51
 175 -61 175 -61 175 -64 c 0,52,53
 175 -72 175 -72 179 -73 c 0,54,55
 182 -74 182 -74 185.5 -72 c 128,-1,56
 189 -70 189 -70 194 -60 c 256,44,45
EndSplineSet
EndChar

StartChar: asterisk
Encoding: 42 42 12
Width: 540
Flags: W
LayerCount: 2
Fore
SplineSet
317.5 760 m 1,0,-1
 297.5 568 l 1,1,-1
 489.5 622 l 1,2,-1
 503.5 530 l 1,3,-1
 319.5 515 l 1,4,-1
 438.5 357 l 1,5,-1
 352.5 310 l 1,6,-1
 267.5 485 l 1,7,-1
 190.5 310 l 1,8,-1
 101.5 357 l 1,9,-1
 218.5 515 l 1,10,-1
 36.5 530 l 1,11,-1
 50.5 622 l 1,12,-1
 240.5 568 l 1,13,-1
 219.5 760 l 1,14,-1
 317.5 760 l 1,0,-1
EndSplineSet
EndChar

StartChar: plus
Encoding: 43 43 13
Width: 540
Flags: W
LayerCount: 2
Fore
SplineSet
306 388 m 1,0,-1
 505 388 l 1,1,-1
 505 317 l 1,2,-1
 306 317 l 1,3,-1
 306 111 l 1,4,-1
 234 111 l 1,5,-1
 234 317 l 1,6,-1
 35 317 l 1,7,-1
 35 388 l 1,8,-1
 234 388 l 1,9,-1
 234 595 l 1,10,-1
 306 595 l 1,11,-1
 306 388 l 1,0,-1
EndSplineSet
EndChar

StartChar: comma
Encoding: 44 44 14
Width: 540
Flags: W
LayerCount: 2
Fore
SplineSet
345.5 105 m 1,0,1
 336.5 70 336.5 70 322.5 29 c 128,-1,2
 308.5 -12 308.5 -12 292 -52.5 c 128,-1,3
 275.5 -93 275.5 -93 259.5 -129 c 1,4,-1
 194.5 -129 l 1,5,6
 204.5 -91 204.5 -91 214 -47.5 c 128,-1,7
 223.5 -4 223.5 -4 231.5 38.5 c 128,-1,8
 239.5 81 239.5 81 244.5 116 c 1,9,-1
 338.5 116 l 1,10,-1
 345.5 105 l 1,0,1
EndSplineSet
EndChar

StartChar: hyphen
Encoding: 45 45 15
Width: 540
Flags: W
LayerCount: 2
Fore
SplineSet
149 229 m 1,0,-1
 149 307 l 1,1,-1
 391 307 l 1,2,-1
 391 229 l 1,3,-1
 149 229 l 1,0,-1
EndSplineSet
EndChar

StartChar: period
Encoding: 46 46 16
Width: 540
Flags: W
LayerCount: 2
Fore
SplineSet
264.5 -8 m 0,0,1
 224.5 -8 224.5 -8 196 20 c 128,-1,2
 167.5 48 167.5 48 167.5 92 c 0,3,4
 167.5 116 167.5 116 176 137.5 c 128,-1,5
 184.5 159 184.5 159 199.5 174.5 c 128,-1,6
 214.5 190 214.5 190 235.5 199.5 c 128,-1,7
 256.5 209 256.5 209 281.5 209 c 0,8,9
 301.5 209 301.5 209 318.5 200.5 c 128,-1,10
 335.5 192 335.5 192 347.5 177 c 128,-1,11
 359.5 162 359.5 162 366 143 c 128,-1,12
 372.5 124 372.5 124 372.5 103 c 0,13,14
 372.5 76 372.5 76 364 55.5 c 128,-1,15
 355.5 35 355.5 35 340.5 21 c 128,-1,16
 325.5 7 325.5 7 306 -0.5 c 128,-1,17
 286.5 -8 286.5 -8 264.5 -8 c 0,0,1
227.5 165 m 0,18,19
 234.5 172 234.5 172 236 177 c 128,-1,20
 237.5 182 237.5 182 235.5 182 c 0,21,22
 227.5 182 227.5 182 218.5 174.5 c 128,-1,23
 209.5 167 209.5 167 202 156.5 c 128,-1,24
 194.5 146 194.5 146 189.5 134 c 128,-1,25
 184.5 122 184.5 122 184.5 112 c 0,26,27
 184.5 110 184.5 110 186 104 c 128,-1,28
 187.5 98 187.5 98 190.5 98 c 0,29,30
 194.5 98 194.5 98 200.5 120 c 0,31,32
 203.5 134 203.5 134 211.5 145.5 c 128,-1,33
 219.5 157 219.5 157 227.5 165 c 0,18,19
268.5 49 m 0,34,35
 280.5 49 280.5 49 297 63 c 128,-1,36
 313.5 77 313.5 77 313.5 103 c 0,37,38
 313.5 123 313.5 123 303 136.5 c 128,-1,39
 292.5 150 292.5 150 275.5 150 c 256,40,41
 258.5 150 258.5 150 244.5 136.5 c 128,-1,42
 230.5 123 230.5 123 230.5 99 c 256,43,44
 230.5 75 230.5 75 241.5 62 c 128,-1,45
 252.5 49 252.5 49 268.5 49 c 0,34,35
EndSplineSet
EndChar

StartChar: slash
Encoding: 47 47 17
Width: 540
Flags: W
LayerCount: 2
Fore
SplineSet
156.5 -77 m 0,0,1
 152.5 -77 152.5 -77 141 -75 c 128,-1,2
 129.5 -73 129.5 -73 117.5 -68.5 c 128,-1,3
 105.5 -64 105.5 -64 96.5 -57 c 128,-1,4
 87.5 -50 87.5 -50 87.5 -41 c 0,5,6
 87.5 -38 87.5 -38 98 -9.5 c 128,-1,7
 108.5 19 108.5 19 125.5 64 c 128,-1,8
 142.5 109 142.5 109 165 166 c 128,-1,9
 187.5 223 187.5 223 211.5 283 c 128,-1,10
 235.5 343 235.5 343 259.5 402 c 128,-1,11
 283.5 461 283.5 461 303.5 509.5 c 128,-1,12
 323.5 558 323.5 558 338.5 592 c 128,-1,13
 353.5 626 353.5 626 359.5 636 c 0,14,15
 366.5 647 366.5 647 378 656.5 c 128,-1,16
 389.5 666 389.5 666 403.5 666 c 0,17,18
 410.5 666 410.5 666 419 663.5 c 128,-1,19
 427.5 661 427.5 661 435 656.5 c 128,-1,20
 442.5 652 442.5 652 447.5 646 c 128,-1,21
 452.5 640 452.5 640 452.5 633 c 0,22,23
 452.5 625 452.5 625 444 599.5 c 128,-1,24
 435.5 574 435.5 574 424 544.5 c 128,-1,25
 412.5 515 412.5 515 401 487.5 c 128,-1,26
 389.5 460 389.5 460 383.5 447 c 0,27,28
 379.5 438 379.5 438 368.5 410.5 c 128,-1,29
 357.5 383 357.5 383 342.5 344.5 c 128,-1,30
 327.5 306 327.5 306 309.5 259.5 c 128,-1,31
 291.5 213 291.5 213 272.5 166.5 c 128,-1,32
 253.5 120 253.5 120 235 76 c 128,-1,33
 216.5 32 216.5 32 201 -2 c 128,-1,34
 185.5 -36 185.5 -36 173.5 -56.5 c 128,-1,35
 161.5 -77 161.5 -77 156.5 -77 c 0,0,1
131.5 -37 m 4,36,37
 135.5 -25 135.5 -25 143.5 -7 c 132,-1,38
 151.5 11 151.5 11 158.5 27.5 c 132,-1,39
 165.5 44 165.5 44 169 56.5 c 132,-1,40
 172.5 69 172.5 69 167.5 70 c 4,41,42
 165.5 71 165.5 71 160.5 71 c 132,-1,43
 155.5 71 155.5 71 152.5 66 c 4,44,45
 150.5 62 150.5 62 144 48.5 c 132,-1,46
 137.5 35 137.5 35 131 19.5 c 132,-1,47
 124.5 4 124.5 4 119.5 -10.5 c 132,-1,48
 114.5 -25 114.5 -25 114.5 -31 c 4,49,50
 114.5 -38 114.5 -38 122 -40 c 132,-1,51
 129.5 -42 129.5 -42 131.5 -37 c 4,36,37
EndSplineSet
EndChar

StartChar: zero
Encoding: 48 48 18
Width: 540
Flags: W
LayerCount: 2
Fore
SplineSet
275 -17 m 0,0,1
 223 -17 223 -17 188.5 11.5 c 128,-1,2
 154 40 154 40 133 86 c 128,-1,3
 112 132 112 132 103.5 190 c 128,-1,4
 95 248 95 248 95 307 c 256,5,6
 95 366 95 366 105 422.5 c 128,-1,7
 115 479 115 479 137.5 523 c 128,-1,8
 160 567 160 567 196 594 c 128,-1,9
 232 621 232 621 283 621 c 0,10,11
 317 621 317 621 342 604 c 128,-1,12
 367 587 367 587 385 560 c 128,-1,13
 403 533 403 533 415 499 c 128,-1,14
 427 465 427 465 433.5 430 c 128,-1,15
 440 395 440 395 442.5 362.5 c 128,-1,16
 445 330 445 330 445 307 c 0,17,18
 445 258 445 258 436 201 c 128,-1,19
 427 144 427 144 407 95.5 c 128,-1,20
 387 47 387 47 354.5 15 c 128,-1,21
 322 -17 322 -17 275 -17 c 0,0,1
168 512 m 0,22,23
 177 531 177 531 182 540.5 c 128,-1,24
 187 550 187 550 187 553 c 0,25,26
 187 555 187 555 183 555.5 c 128,-1,27
 179 556 179 556 174 549 c 0,28,29
 170 543 170 543 163 530.5 c 128,-1,30
 156 518 156 518 149 504 c 128,-1,31
 142 490 142 490 137.5 476.5 c 128,-1,32
 133 463 133 463 133 456 c 256,33,34
 133 449 133 449 138 451 c 128,-1,35
 143 453 143 453 146 460 c 0,36,37
 149 468 149 468 154 481 c 128,-1,38
 159 494 159 494 168 512 c 0,22,23
276 59 m 0,39,40
 307 59 307 59 325 85 c 128,-1,41
 343 111 343 111 352.5 150 c 128,-1,42
 362 189 362 189 364.5 234 c 128,-1,43
 367 279 367 279 367 316 c 0,44,45
 367 339 367 339 364 377 c 128,-1,46
 361 415 361 415 352 451.5 c 128,-1,47
 343 488 343 488 326.5 514.5 c 128,-1,48
 310 541 310 541 283 541 c 0,49,50
 261 541 261 541 245 514 c 128,-1,51
 229 487 229 487 218.5 449.5 c 128,-1,52
 208 412 208 412 203 371 c 128,-1,53
 198 330 198 330 198 301 c 0,54,55
 198 286 198 286 198 262.5 c 128,-1,56
 198 239 198 239 200 212 c 128,-1,57
 202 185 202 185 206.5 158 c 128,-1,58
 211 131 211 131 219.5 109 c 128,-1,59
 228 87 228 87 242 73 c 128,-1,60
 256 59 256 59 276 59 c 0,39,40
EndSplineSet
EndChar

StartChar: one
Encoding: 49 49 19
Width: 540
Flags: W
LayerCount: 2
Fore
SplineSet
319.5 0 m 0,0,1
 274.5 0 274.5 0 274.5 47 c 2,2,-1
 274.5 450 l 2,3,4
 274.5 459 274.5 459 274 466 c 128,-1,5
 273.5 473 273.5 473 271.5 473 c 0,6,7
 268.5 473 268.5 473 262.5 465.5 c 128,-1,8
 256.5 458 256.5 458 249 448.5 c 128,-1,9
 241.5 439 241.5 439 233 429.5 c 128,-1,10
 224.5 420 224.5 420 216.5 416 c 0,11,12
 207.5 411 207.5 411 197.5 411 c 0,13,14
 183.5 411 183.5 411 174.5 421 c 128,-1,15
 165.5 431 165.5 431 165.5 445 c 0,16,17
 165.5 450 165.5 450 175 463 c 128,-1,18
 184.5 476 184.5 476 191.5 486 c 0,19,20
 200.5 499 200.5 499 218.5 521 c 128,-1,21
 236.5 543 236.5 543 257 564 c 128,-1,22
 277.5 585 277.5 585 296.5 600.5 c 128,-1,23
 315.5 616 315.5 616 327.5 616 c 0,24,25
 333.5 616 333.5 616 341.5 615 c 128,-1,26
 349.5 614 349.5 614 357 611 c 128,-1,27
 364.5 608 364.5 608 369.5 602.5 c 128,-1,28
 374.5 597 374.5 597 374.5 587 c 2,29,-1
 374.5 48 l 2,30,31
 374.5 30 374.5 30 358 15 c 128,-1,32
 341.5 0 341.5 0 319.5 0 c 0,0,1
318.5 592 m 0,33,34
 323.5 600 323.5 600 326.5 602.5 c 128,-1,35
 329.5 605 329.5 605 326.5 606 c 0,36,37
 324.5 606 324.5 606 317.5 603.5 c 128,-1,38
 310.5 601 310.5 601 304.5 595 c 0,39,40
 299.5 590 299.5 590 291.5 583 c 128,-1,41
 283.5 576 283.5 576 283.5 572 c 0,42,43
 283.5 569 283.5 569 287.5 568 c 0,44,45
 294.5 567 294.5 567 304.5 577 c 128,-1,46
 314.5 587 314.5 587 318.5 592 c 0,33,34
307.5 45 m 0,47,48
 307.5 53 307.5 53 305 58 c 128,-1,49
 302.5 63 302.5 63 302.5 74 c 0,50,51
 302.5 79 302.5 79 302 83 c 128,-1,52
 301.5 87 301.5 87 296.5 87 c 0,53,54
 292.5 87 292.5 87 290.5 77.5 c 128,-1,55
 288.5 68 288.5 68 288.5 57 c 128,-1,56
 288.5 46 288.5 46 290.5 36.5 c 128,-1,57
 292.5 27 292.5 27 296.5 27 c 0,58,59
 307.5 27 307.5 27 307.5 45 c 0,47,48
EndSplineSet
EndChar

StartChar: two
Encoding: 50 50 20
Width: 540
Flags: W
LayerCount: 2
Fore
SplineSet
139.2109375 0 m 2,0,1
 130.2109375 0 130.2109375 0 122.7109375 13 c 128,-1,2
 115.2109375 26 115.2109375 26 117.2109375 38 c 256,3,4
 119.2109375 50 119.2109375 50 133.2109375 68 c 128,-1,5
 147.2109375 86 147.2109375 86 163.2109375 106 c 0,6,7
 199.2109375 151 199.2109375 151 228.2109375 198.5 c 128,-1,8
 257.2109375 246 257.2109375 246 277.7109375 292.5 c 128,-1,9
 298.2109375 339 298.2109375 339 309.2109375 383 c 128,-1,10
 320.2109375 427 320.2109375 427 320.2109375 465 c 0,11,12
 320.2109375 506 320.2109375 506 302.7109375 520 c 128,-1,13
 285.2109375 534 285.2109375 534 265.2109375 534 c 256,14,15
 245.2109375 534 245.2109375 534 230.2109375 517.5 c 128,-1,16
 215.2109375 501 215.2109375 501 215.2109375 464 c 0,17,18
 215.2109375 442 215.2109375 442 220.2109375 430.5 c 128,-1,19
 225.2109375 419 225.2109375 419 225.2109375 403 c 0,20,21
 225.2109375 389 225.2109375 389 209.7109375 383 c 128,-1,22
 194.2109375 377 194.2109375 377 183.2109375 377 c 0,23,24
 157.2109375 377 157.2109375 377 139.7109375 403.5 c 128,-1,25
 122.2109375 430 122.2109375 430 122.2109375 470 c 0,26,27
 122.2109375 502 122.2109375 502 132.7109375 529.5 c 128,-1,28
 143.2109375 557 143.2109375 557 162.7109375 577.5 c 128,-1,29
 182.2109375 598 182.2109375 598 208.7109375 610 c 128,-1,30
 235.2109375 622 235.2109375 622 266.2109375 622 c 0,31,32
 296.2109375 622 296.2109375 622 324.7109375 610.5 c 128,-1,33
 353.2109375 599 353.2109375 599 375.2109375 577.5 c 128,-1,34
 397.2109375 556 397.2109375 556 410.2109375 525.5 c 128,-1,35
 423.2109375 495 423.2109375 495 423.2109375 457 c 0,36,37
 423.2109375 410 423.2109375 410 411.2109375 364 c 128,-1,38
 399.2109375 318 399.2109375 318 380.7109375 277 c 128,-1,39
 362.2109375 236 362.2109375 236 341.2109375 201 c 128,-1,40
 320.2109375 166 320.2109375 166 301.7109375 140 c 128,-1,41
 283.2109375 114 283.2109375 114 271.2109375 98 c 128,-1,42
 259.2109375 82 259.2109375 82 259.2109375 79 c 1,43,44
 262.2109375 79 262.2109375 79 267.2109375 79 c 2,45,-1
 291.2109375 79 l 1,46,-1
 378.2109375 82 l 2,47,48
 396.2109375 83 396.2109375 83 405.2109375 79 c 128,-1,49
 414.2109375 75 414.2109375 75 418.2109375 67.5 c 128,-1,50
 422.2109375 60 422.2109375 60 422.2109375 50 c 128,-1,51
 422.2109375 40 422.2109375 40 422.2109375 29 c 0,52,53
 422.2109375 11 422.2109375 11 411.7109375 5.5 c 128,-1,54
 401.2109375 0 401.2109375 0 369.2109375 0 c 2,55,-1
 139.2109375 0 l 2,0,1
155.2109375 488 m 0,56,57
 156.2109375 500 156.2109375 500 154.2109375 507 c 128,-1,58
 152.2109375 514 152.2109375 514 149.2109375 513 c 0,59,60
 145.2109375 513 145.2109375 513 142.7109375 506.5 c 128,-1,61
 140.2109375 500 140.2109375 500 139.7109375 491.5 c 128,-1,62
 139.2109375 483 139.2109375 483 139.2109375 475.5 c 128,-1,63
 139.2109375 468 139.2109375 468 139.2109375 465 c 0,64,65
 141.2109375 452 141.2109375 452 144.2109375 450 c 0,66,67
 149.2109375 445 149.2109375 445 151.2109375 452 c 128,-1,68
 153.2109375 459 153.2109375 459 155.2109375 488 c 0,56,57
157.2109375 424 m 0,69,70
 157.2109375 431 157.2109375 431 150.2109375 431 c 256,71,72
 143.2109375 431 143.2109375 431 143.2109375 423 c 0,73,74
 143.2109375 421 143.2109375 421 145.2109375 418 c 128,-1,75
 147.2109375 415 147.2109375 415 149.2109375 415 c 0,76,77
 153.2109375 415 153.2109375 415 155.2109375 418 c 128,-1,78
 157.2109375 421 157.2109375 421 157.2109375 424 c 0,69,70
156.2109375 50 m 0,79,80
 164.2109375 69 164.2109375 69 161.2109375 69 c 0,81,82
 154.2109375 69 154.2109375 69 146.7109375 60 c 128,-1,83
 139.2109375 51 139.2109375 51 139.2109375 40 c 0,84,85
 139.2109375 32 139.2109375 32 143.2109375 32 c 0,86,87
 148.2109375 32 148.2109375 32 156.2109375 50 c 0,79,80
EndSplineSet
EndChar

StartChar: three
Encoding: 51 51 21
Width: 540
Flags: W
LayerCount: 2
Fore
SplineSet
322 486 m 0,0,1
 322 515 322 515 308 527.5 c 128,-1,2
 294 540 294 540 266 540 c 0,3,4
 233 540 233 540 217 514.5 c 128,-1,5
 201 489 201 489 201 430 c 0,6,7
 201 416 201 416 190.5 410 c 128,-1,8
 180 404 180 404 169 404 c 0,9,10
 108 404 108 404 108 493 c 0,11,12
 108 520 108 520 121.5 543.5 c 128,-1,13
 135 567 135 567 156.5 584.5 c 128,-1,14
 178 602 178 602 206 612 c 128,-1,15
 234 622 234 622 262 622 c 0,16,17
 306 622 306 622 337.5 611 c 128,-1,18
 369 600 369 600 389 581 c 128,-1,19
 409 562 409 562 419 537.5 c 128,-1,20
 429 513 429 513 429 487 c 0,21,22
 429 447 429 447 411.5 418 c 128,-1,23
 394 389 394 389 372.5 368.5 c 128,-1,24
 351 348 351 348 333.5 336 c 128,-1,25
 316 324 316 324 316 318 c 256,26,27
 316 312 316 312 334 305.5 c 128,-1,28
 352 299 352 299 374 284 c 128,-1,29
 396 269 396 269 414 241.5 c 128,-1,30
 432 214 432 214 432 167 c 0,31,32
 432 121 432 121 414.5 88.5 c 128,-1,33
 397 56 397 56 368.5 35 c 128,-1,34
 340 14 340 14 304 4 c 128,-1,35
 268 -6 268 -6 231 -6 c 0,36,37
 215 -6 215 -6 195 -1.5 c 128,-1,38
 175 3 175 3 157.5 12.5 c 128,-1,39
 140 22 140 22 128 36.5 c 128,-1,40
 116 51 116 51 116 71 c 0,41,42
 116 86 116 86 122 95.5 c 128,-1,43
 128 105 128 105 139 105 c 0,44,45
 152 105 152 105 162.5 100.5 c 128,-1,46
 173 96 173 96 183.5 90.5 c 128,-1,47
 194 85 194 85 206 80.5 c 128,-1,48
 218 76 218 76 233 76 c 0,49,50
 260 76 260 76 278 84 c 128,-1,51
 296 92 296 92 306.5 105 c 128,-1,52
 317 118 317 118 321 134 c 128,-1,53
 325 150 325 150 325 166 c 0,54,55
 325 198 325 198 307 220 c 128,-1,56
 289 242 289 242 260 242 c 0,57,58
 218 242 218 242 201 257 c 128,-1,59
 184 272 184 272 184 292 c 0,60,61
 184 311 184 311 205.5 334.5 c 128,-1,62
 227 358 227 358 253 383 c 128,-1,63
 279 408 279 408 300.5 434.5 c 128,-1,64
 322 461 322 461 322 486 c 0,0,1
149 515 m 0,65,66
 150 527 150 527 148 534 c 128,-1,67
 146 541 146 541 143 540 c 0,68,69
 139 540 139 540 135.5 534 c 128,-1,70
 132 528 132 528 129.5 520 c 128,-1,71
 127 512 127 512 125.5 504 c 128,-1,72
 124 496 124 496 125 492 c 0,73,74
 127 479 127 479 130 477 c 0,75,76
 135 472 135 472 141 479 c 128,-1,77
 147 486 147 486 149 515 c 0,65,66
143 451 m 0,78,79
 143 458 143 458 136 458 c 256,80,81
 129 458 129 458 129 450 c 0,82,83
 129 448 129 448 131 445 c 128,-1,84
 133 442 133 442 135 442 c 0,85,86
 139 442 139 442 141 445 c 128,-1,87
 143 448 143 448 143 451 c 0,78,79
217 291 m 0,88,89
 219 296 219 296 223 304 c 128,-1,90
 227 312 227 312 232 319 c 0,91,92
 236 325 236 325 237 330 c 128,-1,93
 238 335 238 335 236 335 c 0,94,95
 232 335 232 335 226 329 c 128,-1,96
 220 323 220 323 214.5 315 c 128,-1,97
 209 307 209 307 205 298.5 c 128,-1,98
 201 290 201 290 201 284 c 0,99,100
 201 275 201 275 206 275 c 256,101,102
 211 275 211 275 217 291 c 0,88,89
147 80 m 0,103,104
 147 101 147 101 138 92 c 0,105,106
 133 87 133 87 131 78 c 128,-1,107
 129 69 129 69 130 62 c 0,108,109
 131 58 131 58 133 56.5 c 128,-1,110
 135 55 135 55 137 55 c 256,111,112
 139 55 139 55 143 63.5 c 128,-1,113
 147 72 147 72 147 80 c 0,103,104
EndSplineSet
EndChar

StartChar: four
Encoding: 52 52 22
Width: 540
Flags: W
LayerCount: 2
Fore
SplineSet
377.5 0 m 0,0,1
 353.5 0 353.5 0 345 19.5 c 128,-1,2
 336.5 39 336.5 39 336.5 62 c 2,3,-1
 336.5 130 l 2,4,5
 336.5 142 336.5 142 323.5 142 c 2,6,-1
 142.5 142 l 2,7,8
 120.5 142 120.5 142 110 152 c 128,-1,9
 99.5 162 99.5 162 99.5 173 c 0,10,11
 99.5 178 99.5 178 108 209.5 c 128,-1,12
 116.5 241 116.5 241 129 286 c 128,-1,13
 141.5 331 141.5 331 156.5 382 c 128,-1,14
 171.5 433 171.5 433 185 478 c 128,-1,15
 198.5 523 198.5 523 208.5 555 c 128,-1,16
 218.5 587 218.5 587 221.5 592 c 0,17,18
 229.5 607 229.5 607 239.5 610.5 c 128,-1,19
 249.5 614 249.5 614 259.5 614 c 0,20,21
 264.5 614 264.5 614 273.5 612 c 128,-1,22
 282.5 610 282.5 610 291 606.5 c 128,-1,23
 299.5 603 299.5 603 306 598 c 128,-1,24
 312.5 593 312.5 593 312.5 587 c 256,25,26
 312.5 581 312.5 581 307.5 558.5 c 128,-1,27
 302.5 536 302.5 536 294.5 503.5 c 128,-1,28
 286.5 471 286.5 471 276.5 433 c 128,-1,29
 266.5 395 266.5 395 256.5 358.5 c 128,-1,30
 246.5 322 246.5 322 237.5 291.5 c 128,-1,31
 228.5 261 228.5 261 222.5 243 c 0,32,33
 220.5 238 220.5 238 219.5 235 c 128,-1,34
 218.5 232 218.5 232 218.5 229 c 0,35,36
 218.5 224 218.5 224 226.5 224 c 2,37,-1
 323.5 224 l 2,38,39
 331.5 224 331.5 224 334 226.5 c 128,-1,40
 336.5 229 336.5 229 336.5 235 c 2,41,-1
 336.5 536 l 2,42,43
 336.5 561 336.5 561 341 576.5 c 128,-1,44
 345.5 592 345.5 592 352.5 601 c 128,-1,45
 359.5 610 359.5 610 368.5 613 c 128,-1,46
 377.5 616 377.5 616 387.5 616 c 0,47,48
 414.5 616 414.5 616 427.5 597 c 128,-1,49
 440.5 578 440.5 578 440.5 550 c 2,50,-1
 440.5 70 l 2,51,52
 440.5 49 440.5 49 435.5 35 c 128,-1,53
 430.5 21 430.5 21 421.5 13.5 c 128,-1,54
 412.5 6 412.5 6 401 3 c 128,-1,55
 389.5 0 389.5 0 377.5 0 c 0,0,1
356.5 541 m 256,56,57
 360.5 541 360.5 541 364 547 c 128,-1,58
 367.5 553 367.5 553 370 561 c 128,-1,59
 372.5 569 372.5 569 374 577.5 c 128,-1,60
 375.5 586 375.5 586 375.5 591 c 0,61,62
 375.5 598 375.5 598 368.5 598 c 0,63,64
 365.5 598 365.5 598 362.5 593.5 c 128,-1,65
 359.5 589 359.5 589 357 582.5 c 128,-1,66
 354.5 576 354.5 576 352.5 569.5 c 128,-1,67
 350.5 563 350.5 563 350.5 558 c 0,68,69
 350.5 552 350.5 552 351.5 546.5 c 128,-1,70
 352.5 541 352.5 541 356.5 541 c 256,56,57
143.5 215 m 0,71,72
 147.5 228 147.5 228 150 235 c 128,-1,73
 152.5 242 152.5 242 151.5 251 c 0,74,75
 151.5 259 151.5 259 146.5 259 c 0,76,77
 143.5 259 143.5 259 140 251.5 c 128,-1,78
 136.5 244 136.5 244 133 234 c 128,-1,79
 129.5 224 129.5 224 127.5 214 c 128,-1,80
 125.5 204 125.5 204 125.5 199 c 0,81,82
 125.5 188 125.5 188 130.5 188 c 0,83,84
 137.5 189 137.5 189 143.5 215 c 0,71,72
133.5 169 m 0,85,86
 133.5 179 133.5 179 125.5 179 c 256,87,88
 117.5 179 117.5 179 117.5 169 c 0,89,90
 117.5 167 117.5 167 118.5 166 c 0,91,92
 122.5 162 122.5 162 125.5 162 c 0,93,94
 127.5 162 127.5 162 130.5 164 c 128,-1,95
 133.5 166 133.5 166 133.5 169 c 0,85,86
369.5 29 m 0,96,97
 366.5 35 366.5 35 363.5 37.5 c 128,-1,98
 360.5 40 360.5 40 360.5 45 c 0,99,100
 360.5 49 360.5 49 359.5 53 c 0,101,102
 359.5 61 359.5 61 354.5 61 c 0,103,104
 348.5 61 348.5 61 348.5 50 c 0,105,106
 348.5 42 348.5 42 353 28.5 c 128,-1,107
 357.5 15 357.5 15 363.5 15 c 0,108,109
 366.5 15 366.5 15 369.5 19.5 c 128,-1,110
 372.5 24 372.5 24 369.5 29 c 0,96,97
EndSplineSet
EndChar

StartChar: five
Encoding: 53 53 23
Width: 540
Flags: W
LayerCount: 2
Fore
SplineSet
170 -8 m 0,0,1
 148 -8 148 -8 135.5 -1.5 c 128,-1,2
 123 5 123 5 117 14 c 128,-1,3
 111 23 111 23 109.5 32.5 c 128,-1,4
 108 42 108 42 108 48 c 0,5,6
 108 62 108 62 113.5 70 c 128,-1,7
 119 78 119 78 128 81.5 c 128,-1,8
 137 85 137 85 148 85.5 c 128,-1,9
 159 86 159 86 170 86 c 0,10,11
 257 86 257 86 293.5 112.5 c 128,-1,12
 330 139 330 139 330 196 c 0,13,14
 330 251 330 251 304 277 c 128,-1,15
 278 303 278 303 229 303 c 0,16,17
 210 303 210 303 198 300 c 128,-1,18
 186 297 186 297 177 293.5 c 128,-1,19
 168 290 168 290 160 287 c 128,-1,20
 152 284 152 284 142 284 c 256,21,22
 132 284 132 284 126 293 c 128,-1,23
 120 302 120 302 117 314.5 c 128,-1,24
 114 327 114 327 113.5 341.5 c 128,-1,25
 113 356 113 356 113 366 c 2,26,-1
 113 568 l 2,27,28
 113 595 113 595 126.5 605.5 c 128,-1,29
 140 616 140 616 159 616 c 2,30,-1
 392 616 l 2,31,32
 400 616 400 616 407 608.5 c 128,-1,33
 414 601 414 601 414 587 c 0,34,35
 414 569 414 569 406.5 552.5 c 128,-1,36
 399 536 399 536 390 536 c 2,37,-1
 222 535 l 2,38,39
 217 535 217 535 215 530.5 c 128,-1,40
 213 526 213 526 213 521 c 2,41,-1
 213 399 l 2,42,43
 213 383 213 383 216 381 c 128,-1,44
 219 379 219 379 226 379 c 2,45,-1
 250 380 l 2,46,47
 290 382 290 382 323.5 371.5 c 128,-1,48
 357 361 357 361 381 338 c 128,-1,49
 405 315 405 315 418.5 280 c 128,-1,50
 432 245 432 245 432 197 c 0,51,52
 432 158 432 158 416 121.5 c 128,-1,53
 400 85 400 85 367.5 56 c 128,-1,54
 335 27 335 27 286 9.5 c 128,-1,55
 237 -8 237 -8 170 -8 c 0,0,1
141 403 m 0,56,57
 141 422 141 422 140 432 c 128,-1,58
 139 442 139 442 133 436 c 0,59,60
 130 433 130 433 128 421 c 128,-1,61
 126 409 126 409 126 395 c 128,-1,62
 126 381 126 381 128 369 c 128,-1,63
 130 357 130 357 133 354 c 256,64,65
 136 351 136 351 137 351 c 0,66,67
 141 351 141 351 141 403 c 0,56,57
149 326 m 0,68,69
 149 336 149 336 144 336 c 0,70,71
 133 336 133 336 133 322 c 0,72,73
 133 315 133 315 141 315 c 0,74,75
 146 315 146 315 147.5 319.5 c 128,-1,76
 149 324 149 324 149 326 c 0,68,69
140 48 m 0,77,78
 139 50 139 50 139.5 54 c 128,-1,79
 140 58 140 58 140.5 61.5 c 128,-1,80
 141 65 141 65 140 67.5 c 128,-1,81
 139 70 139 70 135 70 c 0,82,83
 130 70 130 70 128 61.5 c 128,-1,84
 126 53 126 53 127 42 c 256,85,86
 128 31 128 31 131 21.5 c 128,-1,87
 134 12 134 12 140 12 c 0,88,89
 142 12 142 12 143.5 23 c 128,-1,90
 145 34 145 34 140 48 c 0,77,78
EndSplineSet
EndChar

StartChar: six
Encoding: 54 54 24
Width: 540
Flags: W
LayerCount: 2
Fore
SplineSet
271.5 -11 m 0,0,1
 219.5 -11 219.5 -11 183 8.5 c 128,-1,2
 146.5 28 146.5 28 123.5 61 c 128,-1,3
 100.5 94 100.5 94 90 136.5 c 128,-1,4
 79.5 179 79.5 179 79.5 225 c 0,5,6
 79.5 276 79.5 276 87.5 328.5 c 128,-1,7
 95.5 381 95.5 381 112.5 429 c 128,-1,8
 129.5 477 129.5 477 157 518 c 128,-1,9
 184.5 559 184.5 559 223.5 587 c 0,10,11
 251.5 607 251.5 607 279.5 613.5 c 128,-1,12
 307.5 620 307.5 620 329.5 620 c 0,13,14
 334.5 620 334.5 620 342 618.5 c 128,-1,15
 349.5 617 349.5 617 356.5 614 c 128,-1,16
 363.5 611 363.5 611 369 606 c 128,-1,17
 374.5 601 374.5 601 374.5 593 c 0,18,19
 374.5 579 374.5 579 369.5 567.5 c 128,-1,20
 364.5 556 364.5 556 337.5 547 c 0,21,22
 311.5 538 311.5 538 290.5 521 c 128,-1,23
 269.5 504 269.5 504 253 482.5 c 128,-1,24
 236.5 461 236.5 461 224.5 435.5 c 128,-1,25
 212.5 410 212.5 410 203.5 385 c 0,26,27
 198.5 373 198.5 373 194.5 354.5 c 128,-1,28
 190.5 336 190.5 336 190.5 325 c 0,29,30
 190.5 315 190.5 315 194.5 315 c 0,31,32
 197.5 315 197.5 315 204.5 324.5 c 128,-1,33
 211.5 334 211.5 334 224.5 345 c 128,-1,34
 237.5 356 237.5 356 256.5 365.5 c 128,-1,35
 275.5 375 275.5 375 302.5 375 c 0,36,37
 379.5 375 379.5 375 420 323 c 128,-1,38
 460.5 271 460.5 271 460.5 187 c 0,39,40
 460.5 146 460.5 146 445.5 110 c 128,-1,41
 430.5 74 430.5 74 404.5 47 c 128,-1,42
 378.5 20 378.5 20 344 4.5 c 128,-1,43
 309.5 -11 309.5 -11 271.5 -11 c 0,0,1
266.5 80 m 0,44,45
 308.5 80 308.5 80 334 106.5 c 128,-1,46
 359.5 133 359.5 133 359.5 190 c 0,47,48
 359.5 207 359.5 207 356.5 224 c 128,-1,49
 353.5 241 353.5 241 345.5 255 c 128,-1,50
 337.5 269 337.5 269 324 277.5 c 128,-1,51
 310.5 286 310.5 286 289.5 286 c 0,52,53
 270.5 286 270.5 286 251 276 c 128,-1,54
 231.5 266 231.5 266 216.5 250.5 c 128,-1,55
 201.5 235 201.5 235 192 215.5 c 128,-1,56
 182.5 196 182.5 196 182.5 178 c 0,57,58
 182.5 137 182.5 137 200 108.5 c 128,-1,59
 217.5 80 217.5 80 266.5 80 c 0,44,45
140.5 107 m 0,60,61
 137.5 118 137.5 118 133.5 127.5 c 128,-1,62
 129.5 137 129.5 137 126.5 148 c 0,63,64
 124.5 154 124.5 154 123 159 c 128,-1,65
 121.5 164 121.5 164 117.5 163 c 0,66,67
 114.5 163 114.5 163 112.5 155 c 0,68,69
 111.5 148 111.5 148 115 135 c 128,-1,70
 118.5 122 118.5 122 123.5 110 c 128,-1,71
 128.5 98 128.5 98 134 89.5 c 128,-1,72
 139.5 81 139.5 81 141.5 81 c 0,73,74
 146.5 81 146.5 81 146.5 86 c 0,75,76
 146.5 90 146.5 90 144.5 95 c 128,-1,77
 142.5 100 142.5 100 140.5 107 c 0,60,61
EndSplineSet
EndChar

StartChar: seven
Encoding: 55 55 25
Width: 540
Flags: W
LayerCount: 2
Fore
SplineSet
191.5 -2 m 0,0,1
 177.5 -2 177.5 -2 168 6.5 c 128,-1,2
 158.5 15 158.5 15 158.5 25 c 0,3,4
 158.5 34 158.5 34 168.5 70 c 128,-1,5
 178.5 106 178.5 106 193.5 156 c 128,-1,6
 208.5 206 208.5 206 226.5 263 c 128,-1,7
 244.5 320 244.5 320 261 371 c 128,-1,8
 277.5 422 277.5 422 290.5 461 c 128,-1,9
 303.5 500 303.5 500 308.5 514 c 0,10,11
 313.5 529 313.5 529 301.5 529 c 2,12,-1
 171.5 529 l 2,13,14
 144.5 529 144.5 529 129.5 537.5 c 128,-1,15
 114.5 546 114.5 546 114.5 573 c 256,16,17
 114.5 600 114.5 600 131 608 c 128,-1,18
 147.5 616 147.5 616 173.5 616 c 2,19,-1
 384.5 616 l 2,20,21
 401.5 616 401.5 616 413.5 605.5 c 128,-1,22
 425.5 595 425.5 595 425.5 581 c 0,23,24
 425.5 571 425.5 571 414.5 529 c 128,-1,25
 403.5 487 403.5 487 386 429 c 128,-1,26
 368.5 371 368.5 371 347 303.5 c 128,-1,27
 325.5 236 325.5 236 305.5 176 c 128,-1,28
 285.5 116 285.5 116 269.5 71 c 128,-1,29
 253.5 26 253.5 26 245.5 11 c 0,30,31
 243.5 6 243.5 6 229 2 c 128,-1,32
 214.5 -2 214.5 -2 191.5 -2 c 0,0,1
146.5 594 m 0,33,34
 146.5 602 146.5 602 141.5 602 c 256,35,36
 136.5 602 136.5 602 130 594.5 c 128,-1,37
 123.5 587 123.5 587 123.5 576 c 0,38,39
 123.5 556 123.5 556 131.5 556 c 0,40,41
 134.5 556 134.5 556 137.5 560.5 c 128,-1,42
 140.5 565 140.5 565 142.5 571 c 128,-1,43
 144.5 577 144.5 577 145.5 583.5 c 128,-1,44
 146.5 590 146.5 590 146.5 594 c 0,33,34
191.5 38 m 0,45,46
 193.5 48 193.5 48 195.5 58.5 c 128,-1,47
 197.5 69 197.5 69 199.5 73 c 0,48,49
 203.5 78 203.5 78 202 83 c 128,-1,50
 200.5 88 200.5 88 195.5 88 c 0,51,52
 192.5 88 192.5 88 189 81 c 128,-1,53
 185.5 74 185.5 74 183 64.5 c 128,-1,54
 180.5 55 180.5 55 178.5 45.5 c 128,-1,55
 176.5 36 176.5 36 176.5 31 c 0,56,57
 176.5 19 176.5 19 181.5 19 c 256,58,59
 186.5 19 186.5 19 191.5 38 c 0,45,46
EndSplineSet
EndChar

StartChar: eight
Encoding: 56 56 26
Width: 540
Flags: W
LayerCount: 2
Fore
SplineSet
261.5 -6 m 0,0,1
 221.5 -6 221.5 -6 188 8.5 c 128,-1,2
 154.5 23 154.5 23 131 46.5 c 128,-1,3
 107.5 70 107.5 70 94.5 100.5 c 128,-1,4
 81.5 131 81.5 131 81.5 163 c 0,5,6
 81.5 201 81.5 201 98.5 228 c 128,-1,7
 115.5 255 115.5 255 136 274 c 128,-1,8
 156.5 293 156.5 293 173.5 305.5 c 128,-1,9
 190.5 318 190.5 318 190.5 325 c 0,10,11
 190.5 333 190.5 333 175 342 c 128,-1,12
 159.5 351 159.5 351 140.5 367 c 128,-1,13
 121.5 383 121.5 383 106 407.5 c 128,-1,14
 90.5 432 90.5 432 90.5 471 c 0,15,16
 90.5 503 90.5 503 105 531 c 128,-1,17
 119.5 559 119.5 559 144.5 580 c 128,-1,18
 169.5 601 169.5 601 201.5 613 c 128,-1,19
 233.5 625 233.5 625 268.5 625 c 0,20,21
 294.5 625 294.5 625 324.5 614.5 c 128,-1,22
 354.5 604 354.5 604 380 584.5 c 128,-1,23
 405.5 565 405.5 565 422 536 c 128,-1,24
 438.5 507 438.5 507 438.5 469 c 0,25,26
 438.5 432 438.5 432 424.5 409.5 c 128,-1,27
 410.5 387 410.5 387 394 373.5 c 128,-1,28
 377.5 360 377.5 360 363.5 353 c 128,-1,29
 349.5 346 349.5 346 349.5 340 c 0,30,31
 349.5 331 349.5 331 366.5 319.5 c 128,-1,32
 383.5 308 383.5 308 404 289.5 c 128,-1,33
 424.5 271 424.5 271 441.5 242 c 128,-1,34
 458.5 213 458.5 213 458.5 169 c 0,35,36
 458.5 136 458.5 136 443 104.5 c 128,-1,37
 427.5 73 427.5 73 400.5 48 c 128,-1,38
 373.5 23 373.5 23 338 8.5 c 128,-1,39
 302.5 -6 302.5 -6 261.5 -6 c 0,0,1
133.5 512 m 0,40,41
 134.5 518 134.5 518 139.5 525 c 128,-1,42
 144.5 532 144.5 532 150.5 538.5 c 128,-1,43
 156.5 545 156.5 545 162 550.5 c 128,-1,44
 167.5 556 167.5 556 170.5 559 c 0,45,46
 181.5 571 181.5 571 181.5 578 c 0,47,48
 181.5 582 181.5 582 177.5 582 c 0,49,50
 168.5 582 168.5 582 158 572.5 c 128,-1,51
 147.5 563 147.5 563 138.5 549.5 c 128,-1,52
 129.5 536 129.5 536 123.5 522.5 c 128,-1,53
 117.5 509 117.5 509 117.5 501 c 256,54,55
 117.5 493 117.5 493 121.5 493 c 0,56,57
 128.5 493 128.5 493 133.5 512 c 0,40,41
268.5 371 m 0,58,59
 281.5 371 281.5 371 294 379.5 c 128,-1,60
 306.5 388 306.5 388 316.5 402 c 128,-1,61
 326.5 416 326.5 416 333 433.5 c 128,-1,62
 339.5 451 339.5 451 339.5 469 c 0,63,64
 339.5 504 339.5 504 319.5 529.5 c 128,-1,65
 299.5 555 299.5 555 267.5 555 c 256,66,67
 235.5 555 235.5 555 212.5 533 c 128,-1,68
 189.5 511 189.5 511 189.5 473 c 0,69,70
 189.5 459 189.5 459 194.5 441.5 c 128,-1,71
 199.5 424 199.5 424 209.5 408 c 128,-1,72
 219.5 392 219.5 392 234.5 381.5 c 128,-1,73
 249.5 371 249.5 371 268.5 371 c 0,58,59
123.5 469 m 0,74,75
 123.5 478 123.5 478 116.5 478 c 0,76,77
 111.5 478 111.5 478 110 475 c 128,-1,78
 108.5 472 108.5 472 108.5 469 c 0,79,80
 108.5 467 108.5 467 109.5 465 c 0,81,82
 111.5 461 111.5 461 115.5 461 c 0,83,84
 117.5 461 117.5 461 120.5 463 c 128,-1,85
 123.5 465 123.5 465 123.5 469 c 0,74,75
263.5 73 m 0,86,87
 311.5 73 311.5 73 329 98 c 128,-1,88
 346.5 123 346.5 123 346.5 169 c 0,89,90
 346.5 188 346.5 188 339 208.5 c 128,-1,91
 331.5 229 331.5 229 320 246 c 128,-1,92
 308.5 263 308.5 263 295.5 274 c 128,-1,93
 282.5 285 282.5 285 271.5 285 c 0,94,95
 256.5 285 256.5 285 241.5 273.5 c 128,-1,96
 226.5 262 226.5 262 214.5 244.5 c 128,-1,97
 202.5 227 202.5 227 195 205.5 c 128,-1,98
 187.5 184 187.5 184 187.5 163 c 0,99,100
 187.5 147 187.5 147 193 131 c 128,-1,101
 198.5 115 198.5 115 208 102 c 128,-1,102
 217.5 89 217.5 89 231.5 81 c 128,-1,103
 245.5 73 245.5 73 263.5 73 c 0,86,87
127.5 222 m 256,104,105
 130.5 230 130.5 230 127.5 233 c 128,-1,106
 124.5 236 124.5 236 117.5 229 c 0,107,108
 114.5 226 114.5 226 109.5 218.5 c 128,-1,109
 104.5 211 104.5 211 100 202 c 128,-1,110
 95.5 193 95.5 193 92 183.5 c 128,-1,111
 88.5 174 88.5 174 88.5 166 c 0,112,113
 87.5 158 87.5 158 91 150.5 c 128,-1,114
 94.5 143 94.5 143 101.5 143 c 0,115,116
 109.5 143 109.5 143 108.5 155.5 c 128,-1,117
 107.5 168 107.5 168 109.5 179 c 0,118,119
 112.5 194 112.5 194 118.5 204 c 128,-1,120
 124.5 214 124.5 214 127.5 222 c 256,104,105
EndSplineSet
EndChar

StartChar: nine
Encoding: 57 57 27
Width: 540
Flags: W
LayerCount: 2
Fore
SplineSet
268 623 m 0,0,1
 323 623 323 623 360 601.5 c 128,-1,2
 397 580 397 580 419 546 c 128,-1,3
 441 512 441 512 450.5 470 c 128,-1,4
 460 428 460 428 460 387 c 0,5,6
 460 336 460 336 448.5 284 c 128,-1,7
 437 232 437 232 416.5 185 c 128,-1,8
 396 138 396 138 368 99 c 128,-1,9
 340 60 340 60 307 34 c 0,10,11
 280 13 280 13 251.5 2.5 c 128,-1,12
 223 -8 223 -8 201 -8 c 0,13,14
 183 -8 183 -8 170.5 -1.5 c 128,-1,15
 158 5 158 5 158 21 c 0,16,17
 158 36 158 36 166 51.5 c 128,-1,18
 174 67 174 67 201 76 c 0,19,20
 227 85 227 85 247.5 100 c 128,-1,21
 268 115 268 115 284 135 c 128,-1,22
 300 155 300 155 311.5 178.5 c 128,-1,23
 323 202 323 202 332 227 c 0,24,25
 337 239 337 239 341 257.5 c 128,-1,26
 345 276 345 276 345 287 c 0,27,28
 345 297 345 297 341 297 c 0,29,30
 338 297 338 297 331.5 289 c 128,-1,31
 325 281 325 281 312 272 c 128,-1,32
 299 263 299 263 279 255 c 128,-1,33
 259 247 259 247 229 247 c 0,34,35
 159 247 159 247 119.5 295 c 128,-1,36
 80 343 80 343 80 425 c 0,37,38
 80 463 80 463 92 499 c 128,-1,39
 104 535 104 535 128 562.5 c 128,-1,40
 152 590 152 590 187 606.5 c 128,-1,41
 222 623 222 623 268 623 c 0,0,1
273 535 m 0,42,43
 231 535 231 535 205.5 508 c 128,-1,44
 180 481 180 481 180 432 c 0,45,46
 180 390 180 390 198.5 364.5 c 128,-1,47
 217 339 217 339 250 339 c 0,48,49
 270 339 270 339 288.5 347 c 128,-1,50
 307 355 307 355 321 368 c 128,-1,51
 335 381 335 381 344 398.5 c 128,-1,52
 353 416 353 416 353 434 c 0,53,54
 353 455 353 455 349.5 473 c 128,-1,55
 346 491 346 491 337 505 c 128,-1,56
 328 519 328 519 312.5 527 c 128,-1,57
 297 535 297 535 273 535 c 0,42,43
130 486 m 0,58,59
 132 496 132 496 134.5 503.5 c 128,-1,60
 137 511 137 511 137 517 c 0,61,62
 137 524 137 524 130 524 c 0,63,64
 127 524 127 524 121.5 511 c 128,-1,65
 116 498 116 498 111.5 480 c 128,-1,66
 107 462 107 462 104 444 c 128,-1,67
 101 426 101 426 103 415 c 0,68,69
 106 403 106 403 111 403 c 256,70,71
 116 403 116 403 118.5 410.5 c 128,-1,72
 121 418 121 418 123 426 c 0,73,74
 127 443 127 443 127 457 c 128,-1,75
 127 471 127 471 130 486 c 0,58,59
126 380 m 0,76,77
 126 385 126 385 124.5 388.5 c 128,-1,78
 123 392 123 392 120 392 c 0,79,80
 115 392 115 392 111 389 c 128,-1,81
 107 386 107 386 107 376 c 0,82,83
 107 373 107 373 109.5 370 c 128,-1,84
 112 367 112 367 116 367 c 0,85,86
 122 367 122 367 124 372.5 c 128,-1,87
 126 378 126 378 126 380 c 0,76,77
198 58 m 2,88,89
 198 61 198 61 193.5 60 c 128,-1,90
 189 59 189 59 184 55 c 128,-1,91
 179 51 179 51 175 44 c 128,-1,92
 171 37 171 37 171 28 c 0,93,94
 171 26 171 26 172.5 20 c 128,-1,95
 174 14 174 14 178 14 c 0,96,97
 181 14 181 14 184.5 20.5 c 128,-1,98
 188 27 188 27 191 35.5 c 128,-1,99
 194 44 194 44 196 51 c 128,-1,100
 198 58 198 58 198 58 c 2,88,89
EndSplineSet
EndChar

StartChar: colon
Encoding: 58 58 28
Width: 540
Flags: W
LayerCount: 2
Fore
SplineSet
208 54 m 0,0,1
 208 91 208 91 226 106 c 128,-1,2
 244 121 244 121 269 121 c 0,3,4
 295 121 295 121 313.5 106 c 128,-1,5
 332 91 332 91 332 54 c 0,6,7
 332 18 332 18 313.5 2 c 128,-1,8
 295 -14 295 -14 269 -14 c 0,9,10
 244 -14 244 -14 226 2 c 128,-1,11
 208 18 208 18 208 54 c 0,0,1
208 482 m 0,12,13
 208 520 208 520 226 535 c 128,-1,14
 244 550 244 550 269 550 c 0,15,16
 295 550 295 550 313.5 535 c 128,-1,17
 332 520 332 520 332 482 c 0,18,19
 332 446 332 446 313.5 430 c 128,-1,20
 295 414 295 414 269 414 c 0,21,22
 244 414 244 414 226 430 c 128,-1,23
 208 446 208 446 208 482 c 0,12,13
EndSplineSet
EndChar

StartChar: semicolon
Encoding: 59 59 29
Width: 540
Flags: W
LayerCount: 2
Fore
SplineSet
340.5 105 m 1,0,1
 331.5 70 331.5 70 317.5 29 c 128,-1,2
 303.5 -12 303.5 -12 287 -52.5 c 128,-1,3
 270.5 -93 270.5 -93 254.5 -129 c 1,4,-1
 188.5 -129 l 1,5,6
 195.5 -101 195.5 -101 203 -69 c 128,-1,7
 210.5 -37 210.5 -37 217.5 -4.5 c 128,-1,8
 224.5 28 224.5 28 230 59 c 128,-1,9
 235.5 90 235.5 90 239.5 116 c 1,10,-1
 333.5 116 l 1,11,-1
 340.5 105 l 1,0,1
227.5 482 m 4,12,13
 227.5 520 227.5 520 245.5 535 c 132,-1,14
 263.5 550 263.5 550 288.5 550 c 4,15,16
 314.5 550 314.5 550 333 535 c 132,-1,17
 351.5 520 351.5 520 351.5 482 c 4,18,19
 351.5 446 351.5 446 333 430 c 132,-1,20
 314.5 414 314.5 414 288.5 414 c 4,21,22
 263.5 414 263.5 414 245.5 430 c 132,-1,23
 227.5 446 227.5 446 227.5 482 c 4,12,13
EndSplineSet
EndChar

StartChar: less
Encoding: 60 60 30
Width: 540
Flags: W
LayerCount: 2
Fore
SplineSet
505.5 116 m 1,0,-1
 34.5 323 l 1,1,-1
 34.5 373 l 1,2,-1
 505.5 608 l 1,3,-1
 505.5 530 l 1,4,-1
 128.5 352 l 1,5,-1
 505.5 194 l 1,6,-1
 505.5 116 l 1,0,-1
EndSplineSet
EndChar

StartChar: equal
Encoding: 61 61 31
Width: 540
Flags: W
LayerCount: 2
Fore
SplineSet
41 416 m 1,0,-1
 41 487 l 1,1,-1
 499 487 l 1,2,-1
 499 416 l 1,3,-1
 41 416 l 1,0,-1
41 217 m 5,4,-1
 41 288 l 5,5,-1
 499 288 l 5,6,-1
 499 217 l 5,7,-1
 41 217 l 5,4,-1
EndSplineSet
EndChar

StartChar: greater
Encoding: 62 62 32
Width: 540
Flags: W
LayerCount: 2
Fore
SplineSet
34.5 194 m 1,0,-1
 411.5 351 l 1,1,-1
 34.5 530 l 1,2,-1
 34.5 608 l 1,3,-1
 505.5 373 l 1,4,-1
 505.5 323 l 1,5,-1
 34.5 116 l 1,6,-1
 34.5 194 l 1,0,-1
EndSplineSet
EndChar

StartChar: question
Encoding: 63 63 33
Width: 540
Flags: W
LayerCount: 2
Fore
SplineSet
200 199 m 6,0,1
 200 237 200 237 207.5 264.5 c 132,-1,2
 215 292 215 292 233.5 317 c 132,-1,3
 252 342 252 342 284 369 c 4,4,5
 323 402 323 402 344.5 424 c 132,-1,6
 366 446 366 446 375 467 c 132,-1,7
 384 488 384 488 384 518 c 4,8,9
 384 566 384 566 353 592 c 132,-1,10
 322 618 322 618 263 618 c 4,11,12
 214 618 214 618 176 605.5 c 132,-1,13
 138 593 138 593 103 576 c 5,14,-1
 72 646 l 5,15,16
 112 667 112 667 160.5 681 c 132,-1,17
 209 695 209 695 269 695 c 4,18,19
 364 695 364 695 416 648 c 132,-1,20
 468 601 468 601 468 520 c 4,21,22
 468 475 468 475 453.5 443.5 c 132,-1,23
 439 412 439 412 412.5 385.5 c 132,-1,24
 386 359 386 359 350 329 c 4,25,26
 317 301 317 301 299.5 280 c 132,-1,27
 282 259 282 259 276 238.5 c 132,-1,28
 270 218 270 218 270 189 c 6,29,-1
 270 172 l 5,30,-1
 200 172 l 5,31,-1
 200 199 l 6,0,1
177 25 m 4,32,33
 177 62 177 62 194.5 77 c 132,-1,34
 212 92 212 92 239 92 c 4,35,36
 264 92 264 92 282 77 c 132,-1,37
 300 62 300 62 300 25 c 4,38,39
 300 -11 300 -11 282 -27 c 132,-1,40
 264 -43 264 -43 239 -43 c 4,41,42
 212 -43 212 -43 194.5 -27 c 132,-1,43
 177 -11 177 -11 177 25 c 4,32,33
EndSplineSet
EndChar

StartChar: at
Encoding: 64 64 34
Width: 540
Flags: W
LayerCount: 2
Fore
SplineSet
294 -89 m 0,0,1
 194 -89 194 -89 125 -42 c 128,-1,2
 56 5 56 5 20.5 91.5 c 128,-1,3
 -15 178 -15 178 -15 294 c 0,4,5
 -15 386 -15 386 4.5 463 c 128,-1,6
 24 540 24 540 62.5 596 c 128,-1,7
 101 652 101 652 158 683 c 128,-1,8
 215 714 215 714 289 714 c 0,9,10
 370 714 370 714 429.5 671 c 128,-1,11
 489 628 489 628 522 548 c 128,-1,12
 555 468 555 468 555 357 c 0,13,14
 555 311 555 311 548.5 267 c 128,-1,15
 542 223 542 223 528.5 187 c 128,-1,16
 515 151 515 151 492.5 129.5 c 128,-1,17
 470 108 470 108 437 108 c 0,18,19
 403 108 403 108 384 135 c 128,-1,20
 365 162 365 162 360 196 c 1,21,-1
 358 196 l 1,22,23
 344 159 344 159 316 133.5 c 128,-1,24
 288 108 288 108 246 108 c 0,25,26
 185 108 185 108 152 160 c 128,-1,27
 119 212 119 212 119 296 c 0,28,29
 119 362 119 362 140 412.5 c 128,-1,30
 161 463 161 463 199.5 491.5 c 128,-1,31
 238 520 238 520 291 520 c 0,32,33
 327 520 327 520 362 512.5 c 128,-1,34
 397 505 397 505 416 497 c 1,35,-1
 405 294 l 2,36,37
 404 286 404 286 404 275.5 c 128,-1,38
 404 265 404 265 404 257 c 0,39,40
 404 205 404 205 415 188 c 128,-1,41
 426 171 426 171 439 171 c 0,42,43
 457 171 457 171 468 196.5 c 128,-1,44
 479 222 479 222 483.5 264.5 c 128,-1,45
 488 307 488 307 488 358 c 0,46,47
 488 497 488 497 432.5 572.5 c 128,-1,48
 377 648 377 648 288 648 c 0,49,50
 212 648 212 648 159.5 604 c 128,-1,51
 107 560 107 560 80.5 481.5 c 128,-1,52
 54 403 54 403 54 297 c 0,53,54
 54 199 54 199 81 127 c 128,-1,55
 108 55 108 55 162 16.5 c 128,-1,56
 216 -22 216 -22 297 -22 c 0,57,58
 347 -22 347 -22 389 -11 c 128,-1,59
 431 0 431 0 466 16 c 1,60,-1
 466 -49 l 1,61,62
 430 -67 430 -67 389 -78 c 128,-1,63
 348 -89 348 -89 294 -89 c 0,0,1
259 171 m 0,64,65
 296 171 296 171 311 213.5 c 128,-1,66
 326 256 326 256 330 323 c 2,67,-1
 337 447 l 1,68,69
 327 451 327 451 314 454 c 128,-1,70
 301 457 301 457 287 457 c 0,71,72
 254 457 254 457 234.5 433 c 128,-1,73
 215 409 215 409 206 372 c 128,-1,74
 197 335 197 335 197 294 c 0,75,76
 197 229 197 229 214 200 c 128,-1,77
 231 171 231 171 259 171 c 0,64,65
EndSplineSet
EndChar

StartChar: A
Encoding: 65 65 35
Width: 540
GlyphClass: 2
Flags: W
LayerCount: 2
Fore
SplineSet
225 221 m 4
 198.400390625 221 198.400390625 221 182.299804688 237.25 c 4
 166.200195312 253.5 166.200195312 253.5 166.200195312 280.799804688 c 4
 166.200195312 305.5 166.200195312 305.5 180.200195312 326.950195312 c 4
 194.200195312 348.400390625 194.200195312 348.400390625 225 348.400390625 c 4
 257.200195312 348.400390625 257.200195312 348.400390625 274 328.25 c 4
 290.799804688 308.100585938 290.799804688 308.100585938 290.799804688 280.799804688 c 4
 290.799804688 250.900390625 290.799804688 250.900390625 271.900390625 235.950195312 c 4
 253 221 253 221 225 221 c 4
199.799804688 288.600585938 m 4
 201.200195312 302.900390625 201.200195312 302.900390625 206.799804688 314.600585938 c 4
 212.400390625 326.299804688 212.400390625 326.299804688 205.400390625 326.299804688 c 4
 195.600585938 326.299804688 195.600585938 326.299804688 189.299804688 307.450195312 c 4
 183 288.600585938 183 288.600585938 183 274.299804688 c 4
 183 261.299804688 183 261.299804688 190 261.299804688 c 4
 195.600585938 261.299804688 195.600585938 261.299804688 197 271.049804688 c 4
 198.400390625 280.799804688 198.400390625 280.799804688 199.799804688 288.600585938 c 4
EndSplineSet
Refer: 67 97 N 1 0 0 1 0 0 2
EndChar

StartChar: B
Encoding: 66 66 36
Width: 540
GlyphClass: 2
Flags: W
LayerCount: 2
Fore
SplineSet
266 178 m 4
 239.400390625 178 239.400390625 178 223.299804688 194.25 c 4
 207.200195312 210.5 207.200195312 210.5 207.200195312 237.799804688 c 4
 207.200195312 262.5 207.200195312 262.5 221.200195312 283.950195312 c 4
 235.200195312 305.400390625 235.200195312 305.400390625 266 305.400390625 c 4
 298.200195312 305.400390625 298.200195312 305.400390625 315 285.25 c 4
 331.799804688 265.100585938 331.799804688 265.100585938 331.799804688 237.799804688 c 4
 331.799804688 207.900390625 331.799804688 207.900390625 312.900390625 192.950195312 c 4
 294 178 294 178 266 178 c 4
240.799804688 245.600585938 m 4
 242.200195312 259.900390625 242.200195312 259.900390625 247.799804688 271.600585938 c 4
 253.400390625 283.299804688 253.400390625 283.299804688 246.400390625 283.299804688 c 4
 236.600585938 283.299804688 236.600585938 283.299804688 230.299804688 264.450195312 c 4
 224 245.600585938 224 245.600585938 224 231.299804688 c 4
 224 218.299804688 224 218.299804688 231 218.299804688 c 4
 236.600585938 218.299804688 236.600585938 218.299804688 238 228.049804688 c 4
 239.400390625 237.799804688 239.400390625 237.799804688 240.799804688 245.600585938 c 4
EndSplineSet
Refer: 68 98 N 1 0 0 1 0.000280683 0 2
EndChar

StartChar: C
Encoding: 67 67 37
Width: 540
GlyphClass: 2
Flags: W
LayerCount: 2
Fore
SplineSet
272.099609375 603.049804688 m 0
 245.5 603.049804688 245.5 603.049804688 229.399414062 619.299804688 c 0
 213.299804688 635.549804688 213.299804688 635.549804688 213.299804688 662.849609375 c 0
 213.299804688 687.549804688 213.299804688 687.549804688 227.299804688 709 c 0
 241.299804688 730.450195312 241.299804688 730.450195312 272.099609375 730.450195312 c 0
 304.299804688 730.450195312 304.299804688 730.450195312 321.099609375 710.299804688 c 0
 337.899414062 690.150390625 337.899414062 690.150390625 337.899414062 662.849609375 c 0
 337.899414062 632.950195312 337.899414062 632.950195312 319 618 c 0
 300.099609375 603.049804688 300.099609375 603.049804688 272.099609375 603.049804688 c 0
246.899414062 670.650390625 m 0
 248.299804688 684.950195312 248.299804688 684.950195312 253.899414062 696.650390625 c 0
 259.5 708.349609375 259.5 708.349609375 252.5 708.349609375 c 0
 242.700195312 708.349609375 242.700195312 708.349609375 236.399414062 689.5 c 0
 230.099609375 670.650390625 230.099609375 670.650390625 230.099609375 656.349609375 c 0
 230.099609375 643.349609375 230.099609375 643.349609375 237.099609375 643.349609375 c 0
 242.700195312 643.349609375 242.700195312 643.349609375 244.099609375 653.099609375 c 0
 245.5 662.849609375 245.5 662.849609375 246.899414062 670.650390625 c 0
EndSplineSet
Refer: 69 99 S 1 0 0 1 0 0 2
EndChar

StartChar: D
Encoding: 68 68 38
Width: 540
GlyphClass: 2
Flags: W
LayerCount: 2
Fore
SplineSet
270.000976562 157 m 4
 243.401367188 157 243.401367188 157 227.30078125 173.25 c 4
 211.201171875 189.5 211.201171875 189.5 211.201171875 216.799804688 c 4
 211.201171875 241.5 211.201171875 241.5 225.201171875 262.950195312 c 4
 239.201171875 284.400390625 239.201171875 284.400390625 270.000976562 284.400390625 c 4
 302.201171875 284.400390625 302.201171875 284.400390625 319.000976562 264.25 c 4
 335.80078125 244.100585938 335.80078125 244.100585938 335.80078125 216.799804688 c 4
 335.80078125 186.900390625 335.80078125 186.900390625 316.901367188 171.950195312 c 4
 298.000976562 157 298.000976562 157 270.000976562 157 c 4
244.80078125 224.600585938 m 4
 246.201171875 238.900390625 246.201171875 238.900390625 251.80078125 250.600585938 c 4
 257.401367188 262.299804688 257.401367188 262.299804688 250.401367188 262.299804688 c 4
 240.6015625 262.299804688 240.6015625 262.299804688 234.30078125 243.450195312 c 4
 228.000976562 224.600585938 228.000976562 224.600585938 228.000976562 210.299804688 c 4
 228.000976562 197.299804688 228.000976562 197.299804688 235.000976562 197.299804688 c 4
 240.6015625 197.299804688 240.6015625 197.299804688 242.000976562 207.049804688 c 4
 243.401367188 216.799804688 243.401367188 216.799804688 244.80078125 224.600585938 c 4
EndSplineSet
Refer: 70 100 N 1 0 0 1 -0.000346345 0 2
EndChar

StartChar: E
Encoding: 69 69 39
Width: 540
GlyphClass: 2
Flags: W
LayerCount: 2
Fore
SplineSet
355.5 20 m 6,0,1
 189 20 189 20 100.5 94 c 4,2,3
 13 168 13 168 12.5 311 c 260,4,5
 13 454 13 454 99.5 528 c 132,-1,6
 186 602 186 602 355.5 602 c 6,7,-1
 527.5 602 l 5,8,-1
 527.5 531 l 5,9,-1
 343.5 531 l 6,10,11
 109 531 109 531 86.5 347 c 5,12,-1
 527.5 347 l 5,13,-1
 527.5 276 l 5,14,-1
 86.5 276 l 5,15,16
 97 185 97 185 162.5 138 c 4,17,18
 229 91 229 91 343.5 91 c 6,19,-1
 527.5 91 l 5,20,-1
 527.5 20 l 5,21,-1
 355.5 20 l 6,0,1
EndSplineSet
EndChar

StartChar: F
Encoding: 70 70 40
Width: 540
GlyphClass: 2
Flags: W
LayerCount: 2
Fore
SplineSet
86 -81 m 0,0,1
 86.517578125 -67 86.517578125 -67 91.5 -57.5 c 128,-1,2
 96.517578125 -48 96.517578125 -48 105 -42 c 0,3,4
 112.517578125 -36 112.517578125 -36 122.5 -33.5 c 128,-1,5
 132.517578125 -31 132.517578125 -31 138 -29 c 0,6,7
 164.517578125 -21 164.517578125 -21 172.5 -6 c 0,8,9
 186.485351562 18.943359375 186.485351562 18.943359375 189 51 c 2,10,-1
 209 306 l 1,11,-1
 44 306 l 2,12,13
 33.517578125 306 33.517578125 306 27 319 c 0,14,15
 20.517578125 334 20.517578125 334 21 346 c 256,16,17
 21.517578125 360 21.517578125 360 27 370.5 c 0,18,19
 33.517578125 381 33.517578125 381 44 381 c 2,20,-1
 214 381 l 1,21,-1
 217 478 l 2,22,23
 219.517578125 553 219.517578125 553 259 596 c 0,24,25
 292.517578125 633 292.517578125 633 391 633 c 0,26,27
 419.517578125 633 419.517578125 633 434.5 621 c 0,28,29
 448.517578125 610 448.517578125 610 449 590 c 0,30,31
 449.517578125 576 449.517578125 576 444.5 567.5 c 128,-1,32
 439.517578125 559 439.517578125 559 433 554.5 c 0,33,34
 425.517578125 550 425.517578125 550 419 549.5 c 0,35,36
 411.517578125 549 411.517578125 549 406 550 c 0,37,38
 389.517578125 553 389.517578125 553 378 551.5 c 0,39,40
 331.517578125 549 331.517578125 549 328.5 541.5 c 0,41,42
 320.517578125 521 320.517578125 521 316.5 517 c 0,43,44
 310.147460938 509.56640625 310.147460938 509.56640625 309 474 c 2,45,-1
 306 381 l 1,46,-1
 490 381 l 2,47,48
 504.517578125 381 504.517578125 381 512 371 c 0,49,50
 519.517578125 359 519.517578125 359 519 345 c 0,51,52
 518.517578125 330 518.517578125 330 512.5 319 c 128,-1,53
 506.517578125 308 506.517578125 308 491 308 c 0,54,55
 482.517578125 308 482.517578125 308 470.5 307 c 0,56,57
 457.517578125 306 457.517578125 306 425 306 c 2,58,-1
 302 306 l 1,59,-1
 282 44 l 2,60,61
 276.517578125 -31 276.517578125 -31 242 -70 c 0,62,63
 206.517578125 -110 206.517578125 -110 153 -118 c 0,64,65
 122.517578125 -123 122.517578125 -123 104.5 -113.5 c 0,66,67
 85.517578125 -103 85.517578125 -103 86 -81 c 0,0,1
252 526 m 0,68,69
 252 537 252 537 260 553 c 128,-1,70
 268 569 268 569 276 577 c 256,71,72
 284 585 284 585 285 589.5 c 128,-1,73
 286 594 286 594 282 594 c 0,74,75
 274 594 274 594 266 585 c 128,-1,76
 258 576 258 576 252 564 c 128,-1,77
 246 552 246 552 242 540 c 128,-1,78
 238 528 238 528 238 521 c 0,79,80
 238 511 238 511 244 511 c 0,81,82
 252 511 252 511 252 526 c 0,68,69
108 -84 m 256,83,84
 110 -84 110 -84 111.5 -80 c 128,-1,85
 113 -76 113 -76 114.5 -71 c 128,-1,86
 116 -66 116 -66 119.5 -61.5 c 128,-1,87
 123 -57 123 -57 130 -55 c 0,88,89
 135 -53 135 -53 141 -52 c 128,-1,90
 147 -51 147 -51 147 -43 c 0,91,92
 147 -40 147 -40 141 -40 c 0,93,94
 136 -40 136 -40 129 -43.5 c 128,-1,95
 122 -47 122 -47 115 -52.5 c 128,-1,96
 108 -58 108 -58 103.5 -64.5 c 128,-1,97
 99 -71 99 -71 99 -77 c 0,98,99
 99 -80 99 -80 102.5 -82 c 128,-1,100
 106 -84 106 -84 108 -84 c 256,83,84
EndSplineSet
EndChar

StartChar: G
Encoding: 71 71 41
Width: 540
GlyphClass: 2
Flags: W
LayerCount: 2
Fore
SplineSet
269 1 m 0,0,1
 206 1 206 1 165.5 34 c 128,-1,2
 125 67 125 67 102 117 c 128,-1,3
 79 167 79 167 70.5 225 c 128,-1,4
 62 283 62 283 62 334 c 0,5,6
 62 390 62 390 75.5 443.5 c 128,-1,7
 89 497 89 497 117.5 538.5 c 128,-1,8
 146 580 146 580 191.5 605.5 c 128,-1,9
 237 631 237 631 301 631 c 0,10,11
 328 631 328 631 357.5 625 c 128,-1,12
 387 619 387 619 411.5 602.5 c 128,-1,13
 436 586 436 586 452.5 558 c 128,-1,14
 469 530 469 530 469 486 c 0,15,16
 469 470 469 470 462.5 460.5 c 128,-1,17
 456 451 456 451 446.5 445.5 c 128,-1,18
 437 440 437 440 427 438.5 c 128,-1,19
 417 437 417 437 411 437 c 0,20,21
 397 437 397 437 384.5 447 c 128,-1,22
 372 457 372 457 372 486 c 0,23,24
 372 509 372 509 364 521 c 128,-1,25
 356 533 356 533 345 538.5 c 128,-1,26
 334 544 334 544 323.5 545 c 128,-1,27
 313 546 313 546 307 546 c 0,28,29
 281 546 281 546 258 530.5 c 128,-1,30
 235 515 235 515 217.5 486 c 128,-1,31
 200 457 200 457 190 415 c 128,-1,32
 180 373 180 373 180 320 c 0,33,34
 180 291 180 291 183.5 251 c 128,-1,35
 187 211 187 211 199 175 c 128,-1,36
 211 139 211 139 233 113.5 c 128,-1,37
 255 88 255 88 291 88 c 0,38,39
 314 88 314 88 331 103 c 128,-1,40
 348 118 348 118 359.5 140 c 128,-1,41
 371 162 371 162 377 186.5 c 128,-1,42
 383 211 383 211 382 230 c 0,43,44
 381 246 381 246 362.5 247.5 c 128,-1,45
 344 249 344 249 321 249 c 2,46,-1
 259 249 l 2,47,48
 253 249 253 249 248 255 c 128,-1,49
 243 261 243 261 240 269.5 c 128,-1,50
 237 278 237 278 235 287 c 128,-1,51
 233 296 233 296 233 302 c 0,52,53
 233 318 233 318 243.5 330.5 c 128,-1,54
 254 343 254 343 277 343 c 2,55,-1
 402 342 l 2,56,57
 415 342 415 342 428.5 336.5 c 128,-1,58
 442 331 442 331 452.5 320.5 c 128,-1,59
 463 310 463 310 470 293.5 c 128,-1,60
 477 277 477 277 477 254 c 0,61,62
 477 219 477 219 477.5 189 c 128,-1,63
 478 159 478 159 478 115 c 0,64,65
 478 81 478 81 475.5 60 c 128,-1,66
 473 39 473 39 467 27 c 128,-1,67
 461 15 461 15 452.5 10.5 c 128,-1,68
 444 6 444 6 432 6 c 0,69,70
 415 6 415 6 407 18.5 c 128,-1,71
 399 31 399 31 395.5 46 c 128,-1,72
 392 61 392 61 391 73.5 c 128,-1,73
 390 86 390 86 387 86 c 256,74,75
 384 86 384 86 378 72.5 c 128,-1,76
 372 59 372 59 359 43.5 c 128,-1,77
 346 28 346 28 325 14.5 c 128,-1,78
 304 1 304 1 269 1 c 0,0,1
174 82 m 0,79,80
 174 87 174 87 158 110 c 0,81,82
 151 121 151 121 144 135.5 c 128,-1,83
 137 150 137 150 132 164 c 128,-1,84
 127 178 127 178 124 190 c 128,-1,85
 121 202 121 202 122 206 c 0,86,87
 123 211 123 211 120 213.5 c 128,-1,88
 117 216 117 216 116 216 c 0,89,90
 108 216 108 216 106 205 c 256,91,92
 104 194 104 194 109.5 173 c 128,-1,93
 115 152 115 152 124.5 131 c 128,-1,94
 134 110 134 110 145.5 94 c 128,-1,95
 157 78 157 78 166 77 c 0,96,97
 173 75 173 75 174 82 c 0,79,80
437 31 m 0,98,99
 437 39 437 39 429 44.5 c 128,-1,100
 421 50 421 50 420 62 c 0,101,102
 420 65 420 65 419.5 73 c 128,-1,103
 419 81 419 81 414 81 c 256,104,105
 409 81 409 81 408 74.5 c 128,-1,106
 407 68 407 68 407 63 c 256,107,108
 407 58 407 58 408.5 50.5 c 128,-1,109
 410 43 410 43 413 36.5 c 128,-1,110
 416 30 416 30 420 25 c 128,-1,111
 424 20 424 20 429 20 c 256,112,113
 434 20 434 20 435.5 24 c 128,-1,114
 437 28 437 28 437 31 c 0,98,99
194 65 m 0,115,116
 195 68 195 68 192.5 70.5 c 128,-1,117
 190 73 190 73 188 73 c 0,118,119
 184 74 184 74 182.5 71 c 128,-1,120
 181 68 181 68 180 66 c 0,121,122
 179 61 179 61 181.5 59.5 c 128,-1,123
 184 58 184 58 186 58 c 0,124,125
 192 58 192 58 194 65 c 0,115,116
EndSplineSet
EndChar

StartChar: H
Encoding: 72 72 42
Width: 540
GlyphClass: 2
Flags: W
LayerCount: 2
Fore
SplineSet
319 556.599609375 m 0
 292.400390625 556.599609375 292.400390625 556.599609375 276.299804688 572.849609375 c 0
 260.200195312 589.099609375 260.200195312 589.099609375 260.200195312 616.399414062 c 0
 260.200195312 641.099609375 260.200195312 641.099609375 274.200195312 662.549804688 c 0
 288.200195312 684 288.200195312 684 319 684 c 0
 351.200195312 684 351.200195312 684 368 663.849609375 c 0
 384.799804688 643.700195312 384.799804688 643.700195312 384.799804688 616.399414062 c 0
 384.799804688 586.5 384.799804688 586.5 365.900390625 571.549804688 c 0
 347 556.599609375 347 556.599609375 319 556.599609375 c 0
293.799804688 624.200195312 m 0
 295.200195312 638.5 295.200195312 638.5 300.799804688 650.200195312 c 0
 306.400390625 661.899414062 306.400390625 661.899414062 299.400390625 661.899414062 c 0
 289.600585938 661.899414062 289.600585938 661.899414062 283.299804688 643.049804688 c 0
 277 624.200195312 277 624.200195312 277 609.899414062 c 0
 277 596.899414062 277 596.899414062 284 596.899414062 c 0
 289.600585938 596.899414062 289.600585938 596.899414062 291 606.649414062 c 0
 292.400390625 616.399414062 292.400390625 616.399414062 293.799804688 624.200195312 c 0
EndSplineSet
Refer: 74 104 N 1 0 0 1 0 0 2
EndChar

StartChar: I
Encoding: 73 73 43
Width: 540
GlyphClass: 2
Flags: W
LayerCount: 2
Fore
SplineSet
22 448 m 1,0,-1
 234 790 l 5,1,-1
 284 790 l 5,2,-1
 518 448 l 1,3,-1
 440 448 l 1,4,-1
 260 697 l 5,5,-1
 100 448 l 1,6,-1
 22 448 l 1,0,-1
40 0 m 1,7,-1
 40 60 l 1,8,-1
 231 75 l 1,9,-1
 231 526 l 1,10,-1
 321 526 l 1,11,-1
 321 75 l 1,12,-1
 500 60 l 1,13,-1
 500 0 l 1,14,-1
 40 0 l 1,7,-1
EndSplineSet
EndChar

StartChar: J
Encoding: 74 74 44
Width: 540
GlyphClass: 2
Flags: W
LayerCount: 2
Fore
SplineSet
278 651.599609375 m 4
 251.400390625 651.599609375 251.400390625 651.599609375 235.299804688 667.849609375 c 4
 219.200195312 684.099609375 219.200195312 684.099609375 219.200195312 711.399414062 c 4
 219.200195312 736.099609375 219.200195312 736.099609375 233.200195312 757.549804688 c 4
 247.200195312 779 247.200195312 779 278 779 c 4
 310.200195312 779 310.200195312 779 327 758.849609375 c 4
 343.799804688 738.700195312 343.799804688 738.700195312 343.799804688 711.399414062 c 4
 343.799804688 681.5 343.799804688 681.5 324.900390625 666.549804688 c 4
 306 651.599609375 306 651.599609375 278 651.599609375 c 4
252.799804688 719.200195312 m 4
 254.200195312 733.5 254.200195312 733.5 259.799804688 745.200195312 c 4
 265.400390625 756.899414062 265.400390625 756.899414062 258.400390625 756.899414062 c 4
 248.600585938 756.899414062 248.600585938 756.899414062 242.299804688 738.049804688 c 4
 236 719.200195312 236 719.200195312 236 704.899414062 c 4
 236 691.899414062 236 691.899414062 243 691.899414062 c 4
 248.600585938 691.899414062 248.600585938 691.899414062 250 701.649414062 c 4
 251.400390625 711.399414062 251.400390625 711.399414062 252.799804688 719.200195312 c 4
EndSplineSet
Refer: 76 106 N 1 0 0 1 0 0 2
EndChar

StartChar: K
Encoding: 75 75 45
Width: 540
GlyphClass: 2
Flags: W
LayerCount: 2
Fore
SplineSet
166.200195312 597.75 m 0,0,1
 139.600585938 597.75 139.600585938 597.75 123.5 614 c 128,-1,2
 107.400390625 630.25 107.400390625 630.25 107.400390625 657.549804688 c 0,3,4
 107.400390625 682.25 107.400390625 682.25 121.400390625 703.700195312 c 128,-1,5
 135.400390625 725.150390625 135.400390625 725.150390625 166.200195312 725.150390625 c 0,6,7
 198.400390625 725.150390625 198.400390625 725.150390625 215.200195312 705 c 128,-1,8
 232 684.850585938 232 684.850585938 232 657.549804688 c 0,9,10
 232 627.650390625 232 627.650390625 213.100585938 612.700195312 c 128,-1,11
 194.200195312 597.75 194.200195312 597.75 166.200195312 597.75 c 0,0,1
141 665.350585938 m 0,12,13
 142.400390625 679.650390625 142.400390625 679.650390625 148 691.350585938 c 128,-1,14
 153.600585938 703.049804688 153.600585938 703.049804688 146.600585938 703.049804688 c 0,15,16
 136.80078125 703.049804688 136.80078125 703.049804688 130.5 684.200195312 c 128,-1,17
 124.200195312 665.350585938 124.200195312 665.350585938 124.200195312 651.049804688 c 0,18,19
 124.200195312 638.049804688 124.200195312 638.049804688 131.200195312 638.049804688 c 0,20,21
 136.80078125 638.049804688 136.80078125 638.049804688 138.200195312 647.799804688 c 128,-1,22
 139.600585938 657.549804688 139.600585938 657.549804688 141 665.350585938 c 0,12,13
136.5 0 m 0,23,24
 115.5 0 115.5 0 105.5 11 c 128,-1,25
 95.5 22 95.5 22 92 38.5 c 128,-1,26
 88.5 55 88.5 55 88.5 73 c 128,-1,27
 88.5 91 88.5 91 88.5 105 c 2,28,-1
 88.5 204 l 1,29,-1
 87.5 402 l 1,30,-1
 87.5 428 l 2,31,32
 87.5 455 87.5 455 89.5 476 c 128,-1,33
 91.5 497 91.5 497 97.5 512 c 128,-1,34
 103.5 527 103.5 527 115 535 c 128,-1,35
 126.5 543 126.5 543 146.5 543 c 0,36,37
 169.5 543 169.5 543 187 524.5 c 128,-1,38
 204.5 506 204.5 506 204.5 476 c 0,39,40
 204.5 471 204.5 471 204 456 c 128,-1,41
 203.5 441 203.5 441 203.5 421 c 2,42,-1
 203.5 429 l 1,43,-1
 203.5 410 l 2,44,45
 203.5 391 203.5 391 205 379 c 128,-1,46
 206.5 367 206.5 367 208.5 367 c 0,47,48
 212.5 367 212.5 367 224 385.5 c 128,-1,49
 235.5 404 235.5 404 251 431.5 c 128,-1,50
 266.5 459 266.5 459 284.5 491.5 c 128,-1,51
 302.5 524 302.5 524 320.5 551.5 c 128,-1,52
 338.5 579 338.5 579 355 597.5 c 128,-1,53
 371.5 616 371.5 616 382.5 616 c 0,54,55
 391.5 616 391.5 616 402.5 613 c 128,-1,56
 413.5 610 413.5 610 422.5 604 c 128,-1,57
 431.5 598 431.5 598 437.5 589 c 128,-1,58
 443.5 580 443.5 580 443.5 567 c 0,59,60
 443.5 559 443.5 559 432.5 537.5 c 128,-1,61
 421.5 516 421.5 516 405.5 489 c 128,-1,62
 389.5 462 389.5 462 370.5 432 c 128,-1,63
 351.5 402 351.5 402 335.5 376.5 c 128,-1,64
 319.5 351 319.5 351 308.5 333.5 c 128,-1,65
 297.5 316 297.5 316 297.5 313 c 0,66,67
 297.5 309 297.5 309 309 290 c 128,-1,68
 320.5 271 320.5 271 337.5 245 c 128,-1,69
 354.5 219 354.5 219 375 188.5 c 128,-1,70
 395.5 158 395.5 158 412.5 130 c 128,-1,71
 429.5 102 429.5 102 441 80 c 128,-1,72
 452.5 58 452.5 58 452.5 48 c 0,73,74
 452.5 35 452.5 35 444 26 c 128,-1,75
 435.5 17 435.5 17 423.5 11 c 128,-1,76
 411.5 5 411.5 5 399.5 2 c 128,-1,77
 387.5 -1 387.5 -1 379.5 -1 c 0,78,79
 365.5 -1 365.5 -1 350.5 17.5 c 128,-1,80
 335.5 36 335.5 36 323.5 57 c 0,81,82
 319.5 64 319.5 64 311 80.5 c 128,-1,83
 302.5 97 302.5 97 291 118 c 128,-1,84
 279.5 139 279.5 139 267 161.5 c 128,-1,85
 254.5 184 254.5 184 243 203 c 128,-1,86
 231.5 222 231.5 222 223 234 c 128,-1,87
 214.5 246 214.5 246 210.5 246 c 0,88,89
 202.5 246 202.5 246 202.5 234.5 c 128,-1,90
 202.5 223 202.5 223 202.5 215 c 2,91,-1
 202.5 164 l 1,92,-1
 203.5 125 l 1,93,-1
 203.5 102 l 2,94,95
 203.5 51 203.5 51 187.5 25.5 c 128,-1,96
 171.5 0 171.5 0 136.5 0 c 0,23,24
106.5 488 m 0,97,98
 111.5 487 111.5 487 116 491 c 128,-1,99
 120.5 495 120.5 495 124 500.5 c 128,-1,100
 127.5 506 127.5 506 130.5 512.5 c 128,-1,101
 133.5 519 133.5 519 134.5 523 c 0,102,103
 135.5 526 135.5 526 132.5 528.5 c 128,-1,104
 129.5 531 129.5 531 126.5 531 c 0,105,106
 122.5 531 122.5 531 118.5 526 c 128,-1,107
 114.5 521 114.5 521 111 514.5 c 128,-1,108
 107.5 508 107.5 508 105.5 501.5 c 128,-1,109
 103.5 495 103.5 495 103.5 492 c 0,110,111
 103.5 488 103.5 488 106.5 488 c 0,97,98
356.5 558 m 0,112,113
 359.5 558 359.5 558 365.5 562.5 c 128,-1,114
 371.5 567 371.5 567 377.5 573 c 128,-1,115
 383.5 579 383.5 579 387.5 585.5 c 128,-1,116
 391.5 592 391.5 592 390.5 596 c 0,117,118
 390.5 600 390.5 600 386.5 600 c 0,119,120
 383.5 601 383.5 601 377 596.5 c 128,-1,121
 370.5 592 370.5 592 364 585.5 c 128,-1,122
 357.5 579 357.5 579 353 573 c 128,-1,123
 348.5 567 348.5 567 349.5 564 c 0,124,125
 351.5 559 351.5 559 356.5 558 c 0,112,113
121.5 70 m 0,126,127
 121.5 74 121.5 74 121.5 84.5 c 128,-1,128
 121.5 95 121.5 95 120.5 106 c 128,-1,129
 119.5 117 119.5 117 117.5 125.5 c 128,-1,130
 115.5 134 115.5 134 111.5 134 c 0,131,132
 108.5 134 108.5 134 106 129 c 128,-1,133
 103.5 124 103.5 124 102.5 117 c 128,-1,134
 101.5 110 101.5 110 101 103.5 c 128,-1,135
 100.5 97 100.5 97 100.5 95 c 0,136,137
 100.5 91 100.5 91 100.5 82.5 c 128,-1,138
 100.5 74 100.5 74 102 65 c 128,-1,139
 103.5 56 103.5 56 106.5 49.5 c 128,-1,140
 109.5 43 109.5 43 115.5 43 c 0,141,142
 117.5 43 117.5 43 119 47 c 128,-1,143
 120.5 51 120.5 51 121 55.5 c 128,-1,144
 121.5 60 121.5 60 121.5 64.5 c 128,-1,145
 121.5 69 121.5 69 121.5 70 c 0,126,127
382.5 21 m 0,146,147
 382.5 24 382.5 24 379.5 30.5 c 128,-1,148
 376.5 37 376.5 37 372 43 c 128,-1,149
 367.5 49 367.5 49 362.5 54 c 128,-1,150
 357.5 59 357.5 59 354.5 59 c 0,151,152
 352.5 59 352.5 59 351.5 55.5 c 128,-1,153
 350.5 52 350.5 52 350.5 50 c 0,154,155
 350.5 47 350.5 47 353 41 c 128,-1,156
 355.5 35 355.5 35 359 29 c 128,-1,157
 362.5 23 362.5 23 367.5 19 c 128,-1,158
 372.5 15 372.5 15 376.5 15 c 0,159,160
 382.5 15 382.5 15 382.5 21 c 0,146,147
131.5 25 m 0,161,162
 133.5 29 133.5 29 130.5 32.5 c 128,-1,163
 127.5 36 127.5 36 123.5 36 c 0,164,165
 118.5 36 118.5 36 116 32.5 c 128,-1,166
 113.5 29 113.5 29 115.5 25 c 0,167,168
 117.5 17 117.5 17 123.5 17 c 256,169,170
 129.5 17 129.5 17 131.5 25 c 0,161,162
EndSplineSet
EndChar

StartChar: L
Encoding: 76 76 46
Width: 540
GlyphClass: 2
Flags: W
LayerCount: 2
Fore
SplineSet
91.5 0 m 2,0,1
 80.5 0 80.5 0 72 8 c 128,-1,2
 63.5 16 63.5 16 63.5 27 c 2,3,-1
 63.5 553 l 2,4,5
 63.5 564 63.5 564 65 575 c 128,-1,6
 66.5 586 66.5 586 72.5 595 c 128,-1,7
 78.5 604 78.5 604 90 610 c 128,-1,8
 101.5 616 101.5 616 121.5 616 c 4,9,10
 144.5 616 144.5 616 161 598 c 128,-1,11
 177.5 580 177.5 580 177.5 560 c 2,12,-1
 177.5 121 l 2,13,14
 177.5 103 177.5 103 254 98.5 c 128,-1,15
 330.5 94 330.5 94 339.5 94 c 0,16,17
 356.5 94 356.5 94 370 94.5 c 128,-1,18
 383.5 95 383.5 95 396 95.5 c 128,-1,19
 408.5 96 408.5 96 422 96.5 c 128,-1,20
 435.5 97 435.5 97 452.5 97 c 0,21,22
 466.5 97 466.5 97 471.5 82.5 c 128,-1,23
 476.5 68 476.5 68 476.5 54 c 0,24,25
 476.5 34 476.5 34 464 16.5 c 128,-1,26
 451.5 -1 451.5 -1 437.5 -1 c 2,27,-1
 390.5 -1 l 1,28,-1
 168.5 0 l 1,29,-1
 91.5 0 l 2,0,1
81.5 549 m 0,30,31
 84.5 549 84.5 549 89 555.5 c 128,-1,32
 93.5 562 93.5 562 98 571 c 128,-1,33
 102.5 580 102.5 580 106 588 c 128,-1,34
 109.5 596 109.5 596 109.5 599 c 0,35,36
 109.5 604 109.5 604 101.5 604 c 0,37,38
 96.5 604 96.5 604 91.5 597.5 c 128,-1,39
 86.5 591 86.5 591 83 583 c 128,-1,40
 79.5 575 79.5 575 77.5 567 c 128,-1,41
 75.5 559 75.5 559 76.5 555 c 0,42,43
 76.5 549 76.5 549 81.5 549 c 0,30,31
92.5 59 m 0,44,45
 97.5 59 97.5 59 99.5 70 c 128,-1,46
 101.5 81 101.5 81 102.5 96.5 c 128,-1,47
 103.5 112 103.5 112 103 128.5 c 128,-1,48
 102.5 145 102.5 145 102.5 155 c 0,49,50
 102.5 159 102.5 159 102 165 c 128,-1,51
 101.5 171 101.5 171 100 177 c 128,-1,52
 98.5 183 98.5 183 96 187 c 128,-1,53
 93.5 191 93.5 191 88.5 191 c 0,54,55
 85.5 191 85.5 191 84 182.5 c 128,-1,56
 82.5 174 82.5 174 81.5 163 c 128,-1,57
 80.5 152 80.5 152 80.5 142.5 c 128,-1,58
 80.5 133 80.5 133 80.5 130 c 256,59,60
 80.5 127 80.5 127 81 115.5 c 128,-1,61
 81.5 104 81.5 104 83 91.5 c 128,-1,62
 84.5 79 84.5 79 86.5 69 c 128,-1,63
 88.5 59 88.5 59 92.5 59 c 0,44,45
109.5 30 m 0,64,65
 109.5 41 109.5 41 102.5 41 c 0,66,67
 92.5 41 92.5 41 92.5 30 c 0,68,69
 92.5 22 92.5 22 100.5 22 c 0,70,71
 103.5 22 103.5 22 106.5 24 c 128,-1,72
 109.5 26 109.5 26 109.5 30 c 0,64,65
EndSplineSet
EndChar

StartChar: M
Encoding: 77 77 47
Width: 540
GlyphClass: 2
Flags: W
LayerCount: 2
Fore
SplineSet
292.08984375 595.75 m 0,0,1
 254.490234375 595.75 254.490234375 595.75 227.69921875 623.469726562 c 128,-1,2
 200.91015625 651.190429688 200.91015625 651.190429688 200.91015625 694.75 c 0,3,4
 200.91015625 718.509765625 200.91015625 718.509765625 208.900390625 739.794921875 c 128,-1,5
 216.890625 761.080078125 216.890625 761.080078125 230.990234375 776.424804688 c 128,-1,6
 245.08984375 791.76953125 245.08984375 791.76953125 264.830078125 801.174804688 c 128,-1,7
 284.5703125 810.580078125 284.5703125 810.580078125 308.0703125 810.580078125 c 0,8,9
 326.869140625 810.580078125 326.869140625 810.580078125 342.849609375 802.165039062 c 128,-1,10
 358.830078125 793.75 358.830078125 793.75 370.109375 778.900390625 c 128,-1,11
 381.390625 764.049804688 381.390625 764.049804688 387.5 745.240234375 c 128,-1,12
 393.609375 726.4296875 393.609375 726.4296875 393.609375 705.639648438 c 0,13,14
 393.609375 678.91015625 393.609375 678.91015625 385.619140625 658.615234375 c 128,-1,15
 377.630859375 638.3203125 377.630859375 638.3203125 363.529296875 624.459960938 c 128,-1,16
 349.4296875 610.599609375 349.4296875 610.599609375 331.099609375 603.174804688 c 128,-1,17
 312.76953125 595.75 312.76953125 595.75 292.08984375 595.75 c 0,0,1
257.310546875 767.01953125 m 0,18,19
 263.890625 773.950195312 263.890625 773.950195312 265.30078125 778.900390625 c 128,-1,20
 266.7109375 783.849609375 266.7109375 783.849609375 264.830078125 783.849609375 c 0,21,22
 257.310546875 783.849609375 257.310546875 783.849609375 248.849609375 776.424804688 c 128,-1,23
 240.390625 769 240.390625 769 233.33984375 758.60546875 c 128,-1,24
 226.291015625 748.209960938 226.291015625 748.209960938 221.58984375 736.330078125 c 128,-1,25
 216.890625 724.450195312 216.890625 724.450195312 216.890625 714.549804688 c 0,26,27
 216.890625 712.5703125 216.890625 712.5703125 218.30078125 706.629882812 c 128,-1,28
 219.7109375 700.690429688 219.7109375 700.690429688 222.529296875 700.690429688 c 0,29,30
 226.291015625 700.690429688 226.291015625 700.690429688 231.9296875 722.469726562 c 0,31,32
 234.75 736.330078125 234.75 736.330078125 242.26953125 747.71484375 c 128,-1,33
 249.791015625 759.099609375 249.791015625 759.099609375 257.310546875 767.01953125 c 0,18,19
295.849609375 652.1796875 m 0,34,35
 307.130859375 652.1796875 307.130859375 652.1796875 322.640625 666.040039062 c 128,-1,36
 338.150390625 679.900390625 338.150390625 679.900390625 338.150390625 705.639648438 c 0,37,38
 338.150390625 725.440429688 338.150390625 725.440429688 328.279296875 738.8046875 c 128,-1,39
 318.41015625 752.169921875 318.41015625 752.169921875 302.4296875 752.169921875 c 256,40,41
 286.44921875 752.169921875 286.44921875 752.169921875 273.291015625 738.8046875 c 128,-1,42
 260.130859375 725.440429688 260.130859375 725.440429688 260.130859375 701.6796875 c 256,43,44
 260.130859375 677.919921875 260.130859375 677.919921875 270.470703125 665.049804688 c 128,-1,45
 280.810546875 652.1796875 280.810546875 652.1796875 295.849609375 652.1796875 c 0,34,35
58.970703125 2.740234375 m 0,46,47
 44.869140625 2.740234375 44.869140625 2.740234375 36.41015625 8.1845703125 c 128,-1,48
 27.94921875 13.6298828125 27.94921875 13.6298828125 23.720703125 22.5400390625 c 128,-1,49
 19.490234375 31.4501953125 19.490234375 31.4501953125 18.080078125 42.8349609375 c 128,-1,50
 16.669921875 54.2197265625 16.669921875 54.2197265625 16.669921875 67.08984375 c 2,51,-1
 16.669921875 493.780273438 l 2,52,53
 16.669921875 504.669921875 16.669921875 504.669921875 17.140625 517.540039062 c 128,-1,54
 17.609375 530.41015625 17.609375 530.41015625 21.369140625 541.299804688 c 128,-1,55
 25.130859375 552.190429688 25.130859375 552.190429688 33.58984375 559.615234375 c 128,-1,56
 42.05078125 567.040039062 42.05078125 567.040039062 57.08984375 567.040039062 c 0,57,58
 75.890625 567.040039062 75.890625 567.040039062 85.291015625 552.684570312 c 128,-1,59
 94.689453125 538.330078125 94.689453125 538.330078125 98.919921875 520.509765625 c 128,-1,60
 103.150390625 502.690429688 103.150390625 502.690429688 104.08984375 488.334960938 c 128,-1,61
 105.029296875 473.98046875 105.029296875 473.98046875 106.91015625 473.98046875 c 256,62,63
 108.791015625 473.98046875 108.791015625 473.98046875 112.55078125 489.325195312 c 128,-1,64
 116.310546875 504.669921875 116.310546875 504.669921875 126.1796875 522.490234375 c 128,-1,65
 136.05078125 540.309570312 136.05078125 540.309570312 153.91015625 555.655273438 c 128,-1,66
 171.76953125 571 171.76953125 571 202.791015625 571 c 0,67,68
 229.109375 571 229.109375 571 246.029296875 556.150390625 c 128,-1,69
 262.94921875 541.299804688 262.94921875 541.299804688 273.291015625 522.985351562 c 128,-1,70
 283.630859375 504.669921875 283.630859375 504.669921875 289.26953125 489.8203125 c 128,-1,71
 294.91015625 474.969726562 294.91015625 474.969726562 297.73046875 474.969726562 c 256,72,73
 300.55078125 474.969726562 300.55078125 474.969726562 305.720703125 489.8203125 c 128,-1,74
 310.890625 504.669921875 310.890625 504.669921875 321.23046875 522.985351562 c 128,-1,75
 331.5703125 541.299804688 331.5703125 541.299804688 349.900390625 556.150390625 c 128,-1,76
 368.23046875 571 368.23046875 571 398.310546875 571 c 0,77,78
 436.849609375 571 436.849609375 571 461.291015625 551.200195312 c 128,-1,79
 485.73046875 531.400390625 485.73046875 531.400390625 499.359375 496.254882812 c 128,-1,80
 512.990234375 461.110351562 512.990234375 461.110351562 518.16015625 413.094726562 c 128,-1,81
 523.330078125 365.080078125 523.330078125 365.080078125 523.330078125 309.639648438 c 2,82,-1
 523.330078125 29.4697265625 l 2,83,84
 523.330078125 15.6103515625 523.330078125 15.6103515625 505.470703125 9.1748046875 c 128,-1,85
 487.609375 2.740234375 487.609375 2.740234375 468.810546875 2.740234375 c 256,86,87
 450.009765625 2.740234375 450.009765625 2.740234375 439.669921875 8.1845703125 c 128,-1,88
 429.330078125 13.6298828125 429.330078125 13.6298828125 429.330078125 28.48046875 c 2,89,-1
 429.330078125 300.73046875 l 2,90,91
 429.330078125 312.610351562 429.330078125 312.610351562 429.330078125 340.825195312 c 128,-1,92
 429.330078125 369.040039062 429.330078125 369.040039062 425.099609375 398.740234375 c 128,-1,93
 420.869140625 428.440429688 420.869140625 428.440429688 411 450.71484375 c 128,-1,94
 401.130859375 472.990234375 401.130859375 472.990234375 381.390625 472.990234375 c 0,95,96
 364.470703125 472.990234375 364.470703125 472.990234375 353.66015625 459.129882812 c 128,-1,97
 342.849609375 445.26953125 342.849609375 445.26953125 336.26953125 421.014648438 c 128,-1,98
 329.689453125 396.759765625 329.689453125 396.759765625 326.400390625 362.60546875 c 128,-1,99
 323.109375 328.450195312 323.109375 328.450195312 321.23046875 286.870117188 c 0,100,101
 318.41015625 238.360351562 318.41015625 238.360351562 317.470703125 211.629882812 c 128,-1,102
 316.529296875 184.900390625 316.529296875 184.900390625 317 142.825195312 c 128,-1,103
 317.470703125 100.75 317.470703125 100.75 317.939453125 71.544921875 c 128,-1,104
 318.41015625 42.33984375 318.41015625 42.33984375 318.41015625 33.4296875 c 0,105,106
 318.41015625 19.5703125 318.41015625 19.5703125 302.900390625 11.1552734375 c 128,-1,107
 287.390625 2.740234375 287.390625 2.740234375 264.830078125 2.740234375 c 256,108,109
 242.26953125 2.740234375 242.26953125 2.740234375 232.869140625 9.669921875 c 128,-1,110
 223.470703125 16.599609375 223.470703125 16.599609375 223.470703125 40.3603515625 c 2,111,-1
 223.470703125 300.73046875 l 2,112,113
 223.470703125 311.620117188 223.470703125 311.620117188 223.470703125 340.330078125 c 128,-1,114
 223.470703125 369.040039062 223.470703125 369.040039062 219.7109375 398.740234375 c 128,-1,115
 215.94921875 428.440429688 215.94921875 428.440429688 206.55078125 451.209960938 c 128,-1,116
 197.150390625 473.98046875 197.150390625 473.98046875 178.349609375 473.98046875 c 0,117,118
 161.4296875 473.98046875 161.4296875 473.98046875 149.6796875 458.634765625 c 128,-1,119
 137.9296875 443.290039062 137.9296875 443.290039062 130.41015625 419.530273438 c 128,-1,120
 122.890625 395.76953125 122.890625 395.76953125 118.66015625 366.0703125 c 128,-1,121
 114.4296875 336.370117188 114.4296875 336.370117188 112.55078125 308.650390625 c 128,-1,122
 110.669921875 280.9296875 110.669921875 280.9296875 110.19921875 257.169921875 c 128,-1,123
 109.73046875 233.41015625 109.73046875 233.41015625 109.73046875 221.530273438 c 2,124,-1
 109.73046875 47.2900390625 l 2,125,126
 109.73046875 28.48046875 109.73046875 28.48046875 94.689453125 15.6103515625 c 128,-1,127
 79.650390625 2.740234375 79.650390625 2.740234375 58.970703125 2.740234375 c 0,46,47
39.23046875 473.98046875 m 0,128,129
 44.869140625 474.969726562 44.869140625 474.969726562 45.33984375 485.365234375 c 128,-1,130
 45.810546875 495.759765625 45.810546875 495.759765625 45.810546875 503.6796875 c 0,131,132
 45.810546875 510.610351562 45.810546875 510.610351562 47.689453125 519.025390625 c 128,-1,133
 49.5703125 527.440429688 49.5703125 527.440429688 50.98046875 534.370117188 c 128,-1,134
 52.390625 541.299804688 52.390625 541.299804688 52.390625 546.25 c 128,-1,135
 52.390625 551.200195312 52.390625 551.200195312 48.630859375 551.200195312 c 0,136,137
 42.05078125 551.200195312 42.05078125 551.200195312 37.8203125 544.764648438 c 128,-1,138
 33.58984375 538.330078125 33.58984375 538.330078125 31.7109375 529.419921875 c 128,-1,139
 29.830078125 520.509765625 29.830078125 520.509765625 28.890625 512.58984375 c 128,-1,140
 27.94921875 504.669921875 27.94921875 504.669921875 27.94921875 501.700195312 c 0,141,142
 27.94921875 493.780273438 27.94921875 493.780273438 29.830078125 483.384765625 c 128,-1,143
 31.7109375 472.990234375 31.7109375 472.990234375 39.23046875 473.98046875 c 0,128,129
256.369140625 25.509765625 m 0,144,145
 256.369140625 35.41015625 256.369140625 35.41015625 250.259765625 38.875 c 128,-1,146
 244.150390625 42.33984375 244.150390625 42.33984375 244.150390625 53.23046875 c 0,147,148
 244.150390625 55.2099609375 244.150390625 55.2099609375 244.150390625 60.6552734375 c 128,-1,149
 244.150390625 66.099609375 244.150390625 66.099609375 243.6796875 71.544921875 c 128,-1,150
 243.2109375 76.990234375 243.2109375 76.990234375 241.330078125 81.4453125 c 128,-1,151
 239.44921875 85.900390625 239.44921875 85.900390625 236.630859375 85.900390625 c 0,152,153
 234.75 85.900390625 234.75 85.900390625 233.810546875 81.4453125 c 128,-1,154
 232.869140625 76.990234375 232.869140625 76.990234375 232.400390625 71.0498046875 c 128,-1,155
 231.9296875 65.1103515625 231.9296875 65.1103515625 231.9296875 59.6650390625 c 128,-1,156
 231.9296875 54.2197265625 231.9296875 54.2197265625 231.9296875 52.240234375 c 0,157,158
 231.9296875 40.3603515625 231.9296875 40.3603515625 235.220703125 26.9951171875 c 128,-1,159
 238.509765625 13.6298828125 238.509765625 13.6298828125 247.91015625 13.6298828125 c 0,160,161
 256.369140625 13.6298828125 256.369140625 13.6298828125 256.369140625 25.509765625 c 0,144,145
459.41015625 26.5 m 0,162,163
 459.41015625 36.400390625 459.41015625 36.400390625 454.240234375 43.8251953125 c 128,-1,164
 449.0703125 51.25 449.0703125 51.25 449.0703125 62.1396484375 c 0,165,166
 449.0703125 66.099609375 449.0703125 66.099609375 448.599609375 76 c 128,-1,167
 448.130859375 85.900390625 448.130859375 85.900390625 442.490234375 85.900390625 c 0,168,169
 437.791015625 85.900390625 437.791015625 85.900390625 437.3203125 75.009765625 c 128,-1,170
 436.849609375 64.1201171875 436.849609375 64.1201171875 436.849609375 61.150390625 c 256,171,172
 436.849609375 58.1796875 436.849609375 58.1796875 437.3203125 50.259765625 c 128,-1,173
 437.791015625 42.33984375 437.791015625 42.33984375 439.669921875 34.9150390625 c 128,-1,174
 441.55078125 27.490234375 441.55078125 27.490234375 444.369140625 21.5498046875 c 128,-1,175
 447.189453125 15.6103515625 447.189453125 15.6103515625 451.890625 15.6103515625 c 0,176,177
 455.650390625 15.6103515625 455.650390625 15.6103515625 457.529296875 20.0654296875 c 128,-1,178
 459.41015625 24.51953125 459.41015625 24.51953125 459.41015625 26.5 c 0,162,163
57.08984375 26.5 m 0,179,180
 57.08984375 37.3896484375 57.08984375 37.3896484375 52.859375 38.3798828125 c 128,-1,181
 48.630859375 39.3701171875 48.630859375 39.3701171875 43.9296875 46.2998046875 c 0,182,183
 42.990234375 48.2802734375 42.990234375 48.2802734375 42.51953125 53.724609375 c 128,-1,184
 42.05078125 59.169921875 42.05078125 59.169921875 42.05078125 64.615234375 c 128,-1,185
 42.05078125 70.0595703125 42.05078125 70.0595703125 40.640625 74.5146484375 c 128,-1,186
 39.23046875 78.9697265625 39.23046875 78.9697265625 36.41015625 78.9697265625 c 0,187,188
 31.7109375 78.9697265625 31.7109375 78.9697265625 31.240234375 69.5654296875 c 128,-1,189
 30.76953125 60.16015625 30.76953125 60.16015625 30.76953125 53.23046875 c 0,190,191
 30.76953125 49.26953125 30.76953125 49.26953125 31.7109375 43.330078125 c 128,-1,192
 32.650390625 37.3896484375 32.650390625 37.3896484375 35 31.4501953125 c 128,-1,193
 37.349609375 25.509765625 37.349609375 25.509765625 40.640625 21.0546875 c 128,-1,194
 43.9296875 16.599609375 43.9296875 16.599609375 48.630859375 16.599609375 c 0,195,196
 57.08984375 16.599609375 57.08984375 16.599609375 57.08984375 26.5 c 0,179,180
EndSplineSet
EndChar

StartChar: N
Encoding: 78 78 48
Width: 540
GlyphClass: 2
Flags: W
LayerCount: 2
Fore
SplineSet
260.5 576 m 4,0,1
 220.5 576 220.5 576 192 604 c 132,-1,2
 163.5 632 163.5 632 163.5 676 c 4,3,4
 163.5 700 163.5 700 172 721.5 c 132,-1,5
 180.5 743 180.5 743 195.5 758.5 c 132,-1,6
 210.5 774 210.5 774 231.5 783.5 c 132,-1,7
 252.5 793 252.5 793 277.5 793 c 4,8,9
 297.5 793 297.5 793 314.5 784.5 c 132,-1,10
 331.5 776 331.5 776 343.5 761 c 132,-1,11
 355.5 746 355.5 746 362 727 c 132,-1,12
 368.5 708 368.5 708 368.5 687 c 4,13,14
 368.5 660 368.5 660 360 639.5 c 132,-1,15
 351.5 619 351.5 619 336.5 605 c 132,-1,16
 321.5 591 321.5 591 302 583.5 c 132,-1,17
 282.5 576 282.5 576 260.5 576 c 4,0,1
223.5 749 m 4,18,19
 230.5 756 230.5 756 232 761 c 132,-1,20
 233.5 766 233.5 766 231.5 766 c 4,21,22
 223.5 766 223.5 766 214.5 758.5 c 132,-1,23
 205.5 751 205.5 751 198 740.5 c 132,-1,24
 190.5 730 190.5 730 185.5 718 c 132,-1,25
 180.5 706 180.5 706 180.5 696 c 4,26,27
 180.5 694 180.5 694 182 688 c 132,-1,28
 183.5 682 183.5 682 186.5 682 c 4,29,30
 190.5 682 190.5 682 196.5 704 c 4,31,32
 199.5 718 199.5 718 207.5 729.5 c 132,-1,33
 215.5 741 215.5 741 223.5 749 c 4,18,19
264.5 633 m 4,34,35
 276.5 633 276.5 633 293 647 c 132,-1,36
 309.5 661 309.5 661 309.5 687 c 4,37,38
 309.5 707 309.5 707 299 720.5 c 132,-1,39
 288.5 734 288.5 734 271.5 734 c 260,40,41
 254.5 734 254.5 734 240.5 720.5 c 132,-1,42
 226.5 707 226.5 707 226.5 683 c 260,43,44
 226.5 659 226.5 659 237.5 646 c 132,-1,45
 248.5 633 248.5 633 264.5 633 c 4,34,35
47.5 0 m 1,46,-1
 47.5 511 l 1,47,-1
 119.5 511 l 1,48,-1
 132.5 432 l 1,49,-1
 137.5 432 l 1,50,51
 154 463 154 463 179 482.5 c 128,-1,52
 204 502 204 502 238.5 511.5 c 0,53,54
 272 521 272 521 312.5 521 c 0,55,56
 394 521 394 521 443 475.5 c 0,57,58
 492.5 429.536132812 492.5 429.536132812 492.5 333 c 2,59,-1
 492.5 0 l 1,60,-1
 402.5 0 l 1,61,-1
 402.5 317 l 2,62,63
 401.984375 385.017578125 401.984375 385.017578125 375 416.5 c 128,-1,64
 348 448 348 448 286.5 448 c 0,65,66
 195 448 195 448 171 396 c 0,67,68
 137.5 318.848632812 137.5 318.848632812 137.5 250 c 2,69,-1
 137.5 0 l 1,70,-1
 47.5 0 l 1,46,-1
EndSplineSet
EndChar

StartChar: O
Encoding: 79 79 49
Width: 540
GlyphClass: 2
Flags: W
LayerCount: 2
Fore
SplineSet
152.204101562 340.775390625 m 0,0,1
 140.09765625 345.23046875 140.09765625 345.23046875 132.182617188 354.139648438 c 128,-1,2
 124.267578125 363.049804688 124.267578125 363.049804688 121.939453125 372.950195312 c 128,-1,3
 119.611328125 382.849609375 119.611328125 382.849609375 122.87109375 393.245117188 c 0,4,5
 127.060546875 404.629882812 127.060546875 404.629882812 135.442382812 410.075195312 c 0,6,7
 140.09765625 412.549804688 140.09765625 412.549804688 147.08203125 415.025390625 c 0,8,9
 154.06640625 416.509765625 154.06640625 416.509765625 166.637695312 418.490234375 c 128,-1,10
 179.208984375 420.469726562 179.208984375 420.469726562 197.833007812 420.469726562 c 0,11,12
 253.704101562 420.469726562 253.704101562 420.469726562 282.571289062 420.96484375 c 0,13,14
 349.618164062 420.469726562 349.618164062 420.469726562 372.897460938 419.48046875 c 128,-1,15
 396.177734375 418.490234375 396.177734375 418.490234375 407.818359375 413.044921875 c 0,16,17
 419.458007812 408.58984375 419.458007812 408.58984375 422.250976562 399.184570312 c 0,18,19
 425.044921875 390.76953125 425.044921875 390.76953125 425.044921875 375.424804688 c 0,20,21
 425.044921875 363.049804688 425.044921875 363.049804688 419.923828125 356.120117188 c 128,-1,22
 414.801757812 349.190429688 414.801757812 349.190429688 401.764648438 344.240234375 c 128,-1,23
 388.728515625 339.290039062 388.728515625 339.290039062 366.379882812 337.8046875 c 0,24,25
 344.03125 335.330078125 344.03125 335.330078125 282.571289062 335.825195312 c 0,26,27
 209.9375 335.330078125 209.9375 335.330078125 183.3984375 337.309570312 c 128,-1,28
 156.859375 339.290039062 156.859375 339.290039062 152.204101562 340.775390625 c 0,0,1
159.653320312 401.165039062 m 0,29,30
 159.653320312 402.650390625 159.653320312 402.650390625 157.325195312 404.629882812 c 0,31,32
 155.928710938 405.620117188 155.928710938 405.620117188 151.272460938 403.14453125 c 128,-1,33
 146.616210938 400.669921875 146.616210938 400.669921875 144.2890625 391.264648438 c 0,34,35
 141.959960938 382.849609375 141.959960938 382.849609375 141.959960938 375.424804688 c 256,36,37
 141.959960938 368.990234375 141.959960938 368.990234375 143.822265625 368.495117188 c 0,38,39
 146.616210938 368.990234375 146.616210938 368.990234375 151.272460938 381.365234375 c 0,40,41
 156.859375 394.73046875 156.859375 394.73046875 156.859375 395.224609375 c 0,42,43
 159.653320312 397.700195312 159.653320312 397.700195312 159.653320312 401.165039062 c 0,29,30
150.340820312 181.384765625 m 0,44,45
 132.6484375 184.849609375 132.6484375 184.849609375 123.801757812 198.709960938 c 128,-1,46
 114.955078125 212.5703125 114.955078125 212.5703125 121.473632812 226.924804688 c 0,47,48
 126.129882812 236.330078125 126.129882812 236.330078125 133.11328125 240.78515625 c 0,49,50
 140.09765625 246.23046875 140.09765625 246.23046875 154.53125 248.209960938 c 0,51,52
 176.415039062 251.1796875 176.415039062 251.1796875 192.245117188 251.1796875 c 0,53,54
 251.841796875 251.1796875 251.841796875 251.1796875 301.661132812 251.674804688 c 128,-1,55
 351.48046875 252.169921875 351.48046875 252.169921875 375.2265625 250.190429688 c 128,-1,56
 398.971679688 248.209960938 398.971679688 248.209960938 412.008789062 245.240234375 c 128,-1,57
 425.044921875 242.26953125 425.044921875 242.26953125 430.166992188 235.33984375 c 128,-1,58
 435.2890625 228.41015625 435.2890625 228.41015625 435.2890625 218.014648438 c 0,59,60
 435.2890625 204.650390625 435.2890625 204.650390625 429.700195312 196.235351562 c 0,61,62
 424.11328125 186.830078125 424.11328125 186.830078125 409.680664062 182.375 c 0,63,64
 395.247070312 176.9296875 395.247070312 176.9296875 371.03515625 174.950195312 c 0,65,66
 336.581054688 171.98046875 336.581054688 171.98046875 283.502929688 172.474609375 c 0,67,68
 210.869140625 172.969726562 210.869140625 172.969726562 184.329101562 175.940429688 c 128,-1,69
 157.791015625 178.91015625 157.791015625 178.91015625 150.340820312 181.384765625 c 0,44,45
153.134765625 229.89453125 m 0,70,71
 153.134765625 232.370117188 153.134765625 232.370117188 150.340820312 232.865234375 c 256,72,73
 147.546875 232.370117188 147.546875 232.370117188 146.616210938 231.875 c 0,74,75
 144.75390625 230.389648438 144.75390625 230.389648438 141.959960938 226.4296875 c 128,-1,76
 139.166992188 222.469726562 139.166992188 222.469726562 139.166992188 215.044921875 c 0,77,78
 139.166992188 206.629882812 139.166992188 206.629882812 140.563476562 205.14453125 c 0,79,80
 141.959960938 204.650390625 141.959960938 204.650390625 146.616210938 209.10546875 c 0,81,82
 150.340820312 212.5703125 150.340820312 212.5703125 151.73828125 219.004882812 c 0,83,84
 153.134765625 224.450195312 153.134765625 224.450195312 153.134765625 229.89453125 c 0,70,71
267.672851562 -7.2099609375 m 0,85,86
 200.625976562 -7.2099609375 200.625976562 -7.2099609375 150.806640625 20.0146484375 c 128,-1,87
 100.987304688 47.240234375 100.987304688 47.240234375 68.3955078125 90.3046875 c 128,-1,88
 35.8037109375 133.370117188 35.8037109375 133.370117188 19.5068359375 186.830078125 c 128,-1,89
 3.2109375 240.290039062 3.2109375 240.290039062 3.2109375 293.75 c 0,90,91
 3.2109375 359.08984375 3.2109375 359.08984375 21.8359375 414.530273438 c 128,-1,92
 40.4599609375 469.969726562 40.4599609375 469.969726562 75.3798828125 510.065429688 c 128,-1,93
 110.299804688 550.16015625 110.299804688 550.16015625 160.583984375 572.9296875 c 128,-1,94
 210.869140625 595.700195312 210.869140625 595.700195312 273.259765625 595.700195312 c 0,95,96
 330.994140625 595.700195312 330.994140625 595.700195312 379.416015625 573.424804688 c 128,-1,97
 427.837890625 551.150390625 427.837890625 551.150390625 462.758789062 512.044921875 c 128,-1,98
 497.678710938 472.940429688 497.678710938 472.940429688 517.233398438 418.985351562 c 128,-1,99
 536.7890625 365.030273438 536.7890625 365.030273438 536.7890625 302.66015625 c 0,100,101
 536.7890625 239.299804688 536.7890625 239.299804688 516.768554688 182.870117188 c 128,-1,102
 496.747070312 126.440429688 496.747070312 126.440429688 460.896484375 84.365234375 c 128,-1,103
 425.044921875 42.2900390625 425.044921875 42.2900390625 375.69140625 17.5400390625 c 128,-1,104
 326.337890625 -7.2099609375 326.337890625 -7.2099609375 267.672851562 -7.2099609375 c 0,85,86
269.53515625 69.01953125 m 0,105,106
 363.5859375 69.01953125 363.5859375 69.01953125 411.54296875 131.884765625 c 128,-1,107
 459.5 194.75 459.5 194.75 459.5 302.66015625 c 0,108,109
 459.5 346.219726562 459.5 346.219726562 446.928710938 386.315429688 c 128,-1,110
 434.357421875 426.41015625 434.357421875 426.41015625 410.146484375 457.099609375 c 128,-1,111
 385.935546875 487.790039062 385.935546875 487.790039062 351.48046875 506.10546875 c 128,-1,112
 317.026367188 524.419921875 317.026367188 524.419921875 273.259765625 524.419921875 c 0,113,114
 231.35546875 524.419921875 231.35546875 524.419921875 196.435546875 506.599609375 c 128,-1,115
 161.515625 488.780273438 161.515625 488.780273438 136.373046875 459.080078125 c 128,-1,116
 111.23046875 429.379882812 111.23046875 429.379882812 97.2626953125 389.780273438 c 128,-1,117
 83.294921875 350.1796875 83.294921875 350.1796875 83.294921875 305.629882812 c 256,118,119
 83.294921875 261.080078125 83.294921875 261.080078125 95.8662109375 218.509765625 c 128,-1,120
 108.4375 175.940429688 108.4375 175.940429688 132.182617188 142.775390625 c 128,-1,121
 155.928710938 109.610351562 155.928710938 109.610351562 190.3828125 89.3154296875 c 128,-1,122
 224.837890625 69.01953125 224.837890625 69.01953125 269.53515625 69.01953125 c 0,105,106
EndSplineSet
EndChar

StartChar: P
Encoding: 80 80 50
Width: 540
GlyphClass: 2
Flags: W
LayerCount: 2
Fore
SplineSet
37.5 -170 m 5,0,-1
 37.5 606 l 5,1,-1
 111.5 606 l 5,2,-1
 122.5 533 l 5,3,-1
 126.5 533 l 5,4,5
 142.5 559 142.5 559 164.5 577.5 c 132,-1,6
 186.5 596 186.5 596 216.5 606 c 132,-1,7
 246.5 616 246.5 616 286.5 616 c 4,8,9
 335.5 616 335.5 616 375.5 598.5 c 132,-1,10
 415.5 581 415.5 581 444 546 c 132,-1,11
 472.5 511 472.5 511 487.5 459 c 132,-1,12
 502.5 407 502.5 407 502.5 339 c 4,13,14
 502.5 248 502.5 248 476 185.5 c 132,-1,15
 449.5 123 449.5 123 401 91.5 c 132,-1,16
 352.5 60 352.5 60 286.5 60 c 4,17,18
 247.5 60 247.5 60 217 71 c 132,-1,19
 186.5 82 186.5 82 164.5 100 c 132,-1,20
 142.5 118 142.5 118 126.5 139 c 5,21,-1
 120.5 139 l 5,22,23
 123.5 120 123.5 120 125 99.5 c 132,-1,24
 126.5 79 126.5 79 126.5 59 c 6,25,-1
 126.5 -170 l 5,26,-1
 37.5 -170 l 5,0,-1
267.5 133 m 4,27,28
 342.5 133 342.5 133 376.5 184.5 c 132,-1,29
 410.5 236 410.5 236 410.5 341 c 4,30,31
 410.5 444 410.5 444 377 493.5 c 132,-1,32
 343.5 543 343.5 543 266.5 543 c 4,33,34
 193.5 543 193.5 543 160 495.5 c 132,-1,35
 126.5 448 126.5 448 126.5 359 c 6,36,-1
 126.5 339 l 6,37,38
 126.5 244 126.5 244 157 188.5 c 132,-1,39
 187.5 133 187.5 133 267.5 133 c 4,27,28
EndSplineSet
EndChar

StartChar: Q
Encoding: 81 81 51
Width: 540
GlyphClass: 2
Flags: W
LayerCount: 2
Fore
SplineSet
221.616210938 647 m 4
 195.016601562 647 195.016601562 647 178.916015625 663.25 c 4
 162.81640625 679.5 162.81640625 679.5 162.81640625 706.799804688 c 4
 162.81640625 731.5 162.81640625 731.5 176.81640625 752.950195312 c 4
 190.81640625 774.400390625 190.81640625 774.400390625 221.616210938 774.400390625 c 4
 253.81640625 774.400390625 253.81640625 774.400390625 270.616210938 754.25 c 4
 287.416015625 734.100585938 287.416015625 734.100585938 287.416015625 706.799804688 c 4
 287.416015625 676.900390625 287.416015625 676.900390625 268.516601562 661.950195312 c 4
 249.616210938 647 249.616210938 647 221.616210938 647 c 4
196.416015625 714.600585938 m 4
 197.81640625 728.900390625 197.81640625 728.900390625 203.416015625 740.600585938 c 4
 209.016601562 752.299804688 209.016601562 752.299804688 202.016601562 752.299804688 c 4
 192.216796875 752.299804688 192.216796875 752.299804688 185.916015625 733.450195312 c 4
 179.616210938 714.600585938 179.616210938 714.600585938 179.616210938 700.299804688 c 4
 179.616210938 687.299804688 179.616210938 687.299804688 186.616210938 687.299804688 c 4
 192.216796875 687.299804688 192.216796875 687.299804688 193.616210938 697.049804688 c 4
 195.016601562 706.799804688 195.016601562 706.799804688 196.416015625 714.600585938 c 4
EndSplineSet
Refer: 83 113 N 1 0 0 1 -0.000193408 0 2
EndChar

StartChar: R
Encoding: 82 82 52
Width: 540
GlyphClass: 2
Flags: W
LayerCount: 2
Fore
SplineSet
301 609 m 4,0,1
 274.400390625 609 274.400390625 609 258.299804688 625.25 c 132,-1,2
 242.200195312 641.5 242.200195312 641.5 242.200195312 668.799804688 c 4,3,4
 242.200195312 693.5 242.200195312 693.5 256.200195312 714.950195312 c 132,-1,5
 270.200195312 736.400390625 270.200195312 736.400390625 301 736.400390625 c 4,6,7
 333.200195312 736.400390625 333.200195312 736.400390625 350 716.25 c 132,-1,8
 366.799804688 696.100585938 366.799804688 696.100585938 366.799804688 668.799804688 c 4,9,10
 366.799804688 638.900390625 366.799804688 638.900390625 347.900390625 623.950195312 c 132,-1,11
 329 609 329 609 301 609 c 4,0,1
275.799804688 676.600585938 m 4,12,13
 277.200195312 690.900390625 277.200195312 690.900390625 282.799804688 702.600585938 c 132,-1,14
 288.400390625 714.299804688 288.400390625 714.299804688 281.400390625 714.299804688 c 4,15,16
 271.600585938 714.299804688 271.600585938 714.299804688 265.299804688 695.450195312 c 132,-1,17
 259 676.600585938 259 676.600585938 259 662.299804688 c 4,18,19
 259 649.299804688 259 649.299804688 266 649.299804688 c 4,20,21
 271.600585938 649.299804688 271.600585938 649.299804688 273 659.049804688 c 132,-1,22
 274.400390625 668.799804688 274.400390625 668.799804688 275.799804688 676.600585938 c 4,12,13
15 0 m 1,23,-1
 15 60 l 1,24,-1
 178 75 l 1,25,-1
 178 461 l 1,26,-1
 31 474 l 1,27,-1
 31 536 l 1,28,-1
 250 536 l 1,29,-1
 262 438 l 1,30,-1
 266 438 l 1,31,32
 294 491 294 491 327.5 518.5 c 128,-1,33
 361 546 361 546 416 546 c 0,34,35
 450 546 450 546 476.5 540 c 128,-1,36
 503 534 503 534 525 524 c 1,37,-1
 501 445 l 1,38,39
 485 454 485 454 463 460.5 c 128,-1,40
 441 467 441 467 416 467 c 0,41,42
 373 467 373 467 340 440 c 128,-1,43
 307 413 307 413 288 368 c 128,-1,44
 269 323 269 323 269 269 c 2,45,-1
 269 75 l 1,46,-1
 425 60 l 1,47,-1
 425 0 l 1,48,-1
 15 0 l 1,23,-1
EndSplineSet
EndChar

StartChar: S
Encoding: 83 83 53
Width: 540
GlyphClass: 2
Flags: W
LayerCount: 2
Fore
SplineSet
296 659.599609375 m 0
 269.400390625 659.599609375 269.400390625 659.599609375 253.299804688 675.849609375 c 0
 237.200195312 692.099609375 237.200195312 692.099609375 237.200195312 719.399414062 c 0
 237.200195312 744.099609375 237.200195312 744.099609375 251.200195312 765.549804688 c 0
 265.200195312 787 265.200195312 787 296 787 c 0
 328.200195312 787 328.200195312 787 345 766.849609375 c 0
 361.799804688 746.700195312 361.799804688 746.700195312 361.799804688 719.399414062 c 0
 361.799804688 689.5 361.799804688 689.5 342.900390625 674.549804688 c 0
 324 659.599609375 324 659.599609375 296 659.599609375 c 0
270.799804688 727.200195312 m 0
 272.200195312 741.5 272.200195312 741.5 277.799804688 753.200195312 c 0
 283.400390625 764.899414062 283.400390625 764.899414062 276.400390625 764.899414062 c 0
 266.600585938 764.899414062 266.600585938 764.899414062 260.299804688 746.049804688 c 0
 254 727.200195312 254 727.200195312 254 712.899414062 c 0
 254 699.899414062 254 699.899414062 261 699.899414062 c 0
 266.600585938 699.899414062 266.600585938 699.899414062 268 709.649414062 c 0
 269.400390625 719.399414062 269.400390625 719.399414062 270.799804688 727.200195312 c 0
EndSplineSet
Refer: 85 115 N 1 0 0 1 0 0 2
EndChar

StartChar: T
Encoding: 84 84 54
Width: 540
GlyphClass: 2
Flags: W
LayerCount: 2
Fore
SplineSet
413 622 m 0
 386.400390625 622 386.400390625 622 370.299804688 638.25 c 0
 354.200195312 654.5 354.200195312 654.5 354.200195312 681.799804688 c 0
 354.200195312 706.5 354.200195312 706.5 368.200195312 727.950195312 c 0
 382.200195312 749.400390625 382.200195312 749.400390625 413 749.400390625 c 0
 445.200195312 749.400390625 445.200195312 749.400390625 462 729.25 c 0
 478.799804688 709.100585938 478.799804688 709.100585938 478.799804688 681.799804688 c 0
 478.799804688 651.900390625 478.799804688 651.900390625 459.900390625 636.950195312 c 0
 441 622 441 622 413 622 c 0
387.799804688 689.600585938 m 0
 389.200195312 703.900390625 389.200195312 703.900390625 394.799804688 715.600585938 c 0
 400.400390625 727.299804688 400.400390625 727.299804688 393.400390625 727.299804688 c 0
 383.600585938 727.299804688 383.600585938 727.299804688 377.299804688 708.450195312 c 0
 371 689.600585938 371 689.600585938 371 675.299804688 c 0
 371 662.299804688 371 662.299804688 378 662.299804688 c 0
 383.600585938 662.299804688 383.600585938 662.299804688 385 672.049804688 c 0
 386.400390625 681.799804688 386.400390625 681.799804688 387.799804688 689.600585938 c 0
EndSplineSet
Refer: 86 116 N 1 0 0 1 0 0 2
EndChar

StartChar: U
Encoding: 85 85 55
Width: 540
GlyphClass: 2
Flags: W
LayerCount: 2
Fore
SplineSet
222.5 -4 m 0,0,1
 177 -4 177 -4 141 12.5 c 0,2,3
 91 35 91 35 79.5 58.5 c 0,4,5
 46 125 46 125 41 129.5 c 0,6,7
 28 143 28 143 27.5 221 c 2,8,-1
 27.5 530 l 2,9,10
 28 536 28 536 29.5 555 c 0,11,12
 31 570 31 570 37.5 583.5 c 0,13,14
 43 597 43 597 54 606.5 c 128,-1,15
 65 616 65 616 80.5 616 c 0,16,17
 124 616 124 616 127.5 599 c 0,18,19
 141 530 141 530 141.5 528 c 2,20,-1
 141.5 228 l 2,21,22
 141 204 141 204 141.5 179.5 c 0,23,24
 141 155 141 155 149 135.5 c 128,-1,25
 157 116 157 116 174 103.5 c 128,-1,26
 191 91 191 91 270.5 91 c 128,-1,27
 350 91 350 91 366.5 110 c 0,28,29
 384 129 384 129 391 157.5 c 128,-1,30
 398 186 398 186 399 220 c 0,31,32
 399 237 399 237 399.5 284 c 2,33,-1
 399.5 531 l 2,34,35
 400 544 400 544 401.5 556 c 0,36,37
 404 571 404 571 409 584.5 c 128,-1,38
 414 598 414 598 424 608 c 128,-1,39
 434 618 434 618 449.5 618 c 0,40,41
 491 618 491 618 496.5 597.5 c 4,42,43
 512 534 512 534 512.5 532 c 6,44,-1
 512.5 246 l 2,45,46
 511.938879457 188.765704584 511.938879457 188.765704584 500 143 c 0,47,48
 488 97 488 97 462 64.5 c 128,-1,49
 436 32 436 32 399.5 14 c 0,50,51
 362 -4 362 -4 222.5 -4 c 0,0,1
427.5 556 m 0,52,53
 428 560 428 560 430.5 568 c 0,54,55
 434 576 434 576 440.5 584 c 0,56,57
 448 595 448 595 449 599 c 128,-1,58
 450 603 450 603 440.5 603 c 0,59,60
 436 603 436 603 431 598 c 128,-1,61
 426 593 426 593 423.5 588 c 0,62,63
 422 583 422 583 418 575 c 0,64,65
 413 565 413 565 413.5 558 c 0,66,67
 414 553 414 553 414.5 548.5 c 0,68,69
 416 544 416 544 420.5 544 c 256,70,71
 426 544 426 544 426.5 547.5 c 128,-1,72
 427 551 427 551 427.5 556 c 0,52,53
69.5 570 m 0,73,74
 74 579 74 579 79 585 c 0,75,76
 85 592 85 592 84.5 598 c 0,77,78
 84 603 84 603 81.5 603 c 256,79,80
 78 603 78 603 72.5 600.5 c 0,81,82
 66 598 66 598 61.5 590 c 0,83,84
 46 569 46 569 44.5 552 c 0,85,86
 42 535 42 535 48.5 535 c 0,87,88
 54 535 54 535 59 545.5 c 0,89,90
 63 556 63 556 69.5 570 c 0,73,74
138.5 48 m 0,91,92
 138 51 138 51 131 57 c 128,-1,93
 124 63 124 63 115.5 72 c 0,94,95
 108 80 108 80 97 93.5 c 0,96,97
 91 100 91 100 79.5 122 c 0,98,99
 74 132 74 132 70 136 c 128,-1,100
 66 140 66 140 63.5 140 c 0,101,102
 60 140 60 140 59.5 133 c 0,103,104
 60 125 60 125 67.5 109.5 c 0,105,106
 76 94 76 94 86.5 79 c 0,107,108
 98 64 98 64 110 53 c 128,-1,109
 122 42 122 42 132.5 42 c 0,110,111
 140 42 140 42 138.5 48 c 0,91,92
161.5 39 m 0,112,113
 162 40 162 40 159 43 c 128,-1,114
 156 46 156 46 153.5 46 c 0,115,116
 148 45 148 45 146.5 42 c 0,117,118
 144 39 144 39 144.5 37 c 0,119,120
 146 34 146 34 146.5 31.5 c 0,121,122
 148 29 148 29 152.5 30 c 0,123,124
 157 30 157 30 161.5 39 c 0,112,113
EndSplineSet
EndChar

StartChar: V
Encoding: 86 86 56
Width: 540
GlyphClass: 2
Flags: W
LayerCount: 2
Fore
SplineSet
277.5 641 m 4
 250.900390625 641 250.900390625 641 234.799804688 657.25 c 4
 218.700195312 673.5 218.700195312 673.5 218.700195312 700.799804688 c 4
 218.700195312 725.5 218.700195312 725.5 232.700195312 746.950195312 c 4
 246.700195312 768.400390625 246.700195312 768.400390625 277.5 768.400390625 c 4
 309.700195312 768.400390625 309.700195312 768.400390625 326.5 748.25 c 4
 343.299804688 728.100585938 343.299804688 728.100585938 343.299804688 700.799804688 c 4
 343.299804688 670.900390625 343.299804688 670.900390625 324.400390625 655.950195312 c 4
 305.5 641 305.5 641 277.5 641 c 4
252.299804688 708.600585938 m 4
 253.700195312 722.900390625 253.700195312 722.900390625 259.299804688 734.600585938 c 4
 264.900390625 746.299804688 264.900390625 746.299804688 257.900390625 746.299804688 c 4
 248.100585938 746.299804688 248.100585938 746.299804688 241.799804688 727.450195312 c 4
 235.5 708.600585938 235.5 708.600585938 235.5 694.299804688 c 4
 235.5 681.299804688 235.5 681.299804688 242.5 681.299804688 c 4
 248.100585938 681.299804688 248.100585938 681.299804688 249.5 691.049804688 c 4
 250.900390625 700.799804688 250.900390625 700.799804688 252.299804688 708.600585938 c 4
EndSplineSet
Refer: 88 118 N 1 0 0 1 0 0 2
EndChar

StartChar: W
Encoding: 87 87 57
Width: 540
GlyphClass: 2
Flags: W
LayerCount: 2
Fore
SplineSet
165.5 -2 m 4,0,1
 132.25 -2 132.25 -2 110.875 5 c 132,-1,2
 89.5 12 89.5 12 80.9501953125 29 c 4,3,4
 75.25 39 75.25 39 67.650390625 77.5 c 132,-1,5
 60.0498046875 116 60.0498046875 116 51.5 169.5 c 132,-1,6
 42.9501953125 223 42.9501953125 223 34.400390625 284.5 c 132,-1,7
 25.849609375 346 25.849609375 346 19.2001953125 402.5 c 132,-1,8
 12.5498046875 459 12.5498046875 459 8.275390625 503.5 c 132,-1,9
 4 548 4 548 4 567 c 4,10,11
 4 588 4 588 17.2998046875 603 c 132,-1,12
 30.599609375 618 30.599609375 618 50.5498046875 618 c 260,13,14
 70.5 618 70.5 618 87.125 608 c 132,-1,15
 103.75 598 103.75 598 108.5 569 c 4,16,17
 110.400390625 560 110.400390625 560 113.724609375 520.5 c 132,-1,18
 117.049804688 481 117.049804688 481 121.799804688 428 c 132,-1,19
 126.549804688 375 126.549804688 375 132.25 315.5 c 132,-1,20
 137.950195312 256 137.950195312 256 143.650390625 206.5 c 132,-1,21
 149.349609375 157 149.349609375 157 154.575195312 124 c 132,-1,22
 159.799804688 91 159.799804688 91 163.599609375 91 c 4,23,24
 164.549804688 91 164.549804688 91 169.299804688 125 c 132,-1,25
 174.049804688 159 174.049804688 159 181.174804688 210.5 c 132,-1,26
 188.299804688 262 188.299804688 262 195.900390625 323 c 132,-1,27
 203.5 384 203.5 384 210.625 438.5 c 132,-1,28
 217.75 493 217.75 493 223.450195312 533 c 132,-1,29
 229.150390625 573 229.150390625 573 231.049804688 582 c 4,30,31
 235.799804688 605 235.799804688 605 246.724609375 611.5 c 132,-1,32
 257.650390625 618 257.650390625 618 276.650390625 618 c 4,33,34
 296.599609375 618 296.599609375 618 313.700195312 608 c 132,-1,35
 330.799804688 598 330.799804688 598 335.549804688 569 c 4,36,37
 336.5 562 336.5 562 338.875 537.5 c 132,-1,38
 341.25 513 341.25 513 344.099609375 478 c 132,-1,39
 346.950195312 443 346.950195312 443 350.275390625 400.5 c 132,-1,40
 353.599609375 358 353.599609375 358 357.400390625 314.5 c 132,-1,41
 361.200195312 271 361.200195312 271 365 230 c 132,-1,42
 368.799804688 189 368.799804688 189 372.599609375 157.5 c 132,-1,43
 376.400390625 126 376.400390625 126 380.200195312 107 c 132,-1,44
 384 88 384 88 386.849609375 88 c 4,45,46
 387.799804688 88 387.799804688 88 392.549804688 122 c 132,-1,47
 397.299804688 156 397.299804688 156 404.424804688 208 c 132,-1,48
 411.549804688 260 411.549804688 260 419.150390625 321.5 c 132,-1,49
 426.75 383 426.75 383 433.875 438 c 132,-1,50
 441 493 441 493 446.700195312 533 c 132,-1,51
 452.400390625 573 452.400390625 573 454.299804688 582 c 4,52,53
 458.099609375 599 458.099609375 599 466.174804688 608 c 132,-1,54
 474.25 617 474.25 617 483.75 617 c 4,55,56
 489.450195312 617 489.450195312 617 498.474609375 615 c 132,-1,57
 507.5 613 507.5 613 515.575195312 609 c 132,-1,58
 523.650390625 605 523.650390625 605 529.825195312 599 c 132,-1,59
 536 593 536 593 536 585 c 4,60,61
 536 579 536 579 531.724609375 541 c 132,-1,62
 527.450195312 503 527.450195312 503 520.325195312 449 c 132,-1,63
 513.200195312 395 513.200195312 395 504.174804688 331 c 132,-1,64
 495.150390625 267 495.150390625 267 486.125 208.5 c 132,-1,65
 477.099609375 150 477.099609375 150 469.025390625 104.5 c 132,-1,66
 460.950195312 59 460.950195312 59 455.25 40 c 4,67,68
 451.450195312 27 451.450195312 27 442.900390625 19 c 132,-1,69
 434.349609375 11 434.349609375 11 424.849609375 6.5 c 132,-1,70
 415.349609375 2 415.349609375 2 405.375 0 c 132,-1,71
 395.400390625 -2 395.400390625 -2 388.75 -2 c 4,72,73
 355.5 -2 355.5 -2 334.599609375 5 c 132,-1,74
 313.700195312 12 313.700195312 12 304.200195312 29 c 4,75,76
 302.299804688 33 302.299804688 33 298.974609375 54.5 c 132,-1,77
 295.650390625 76 295.650390625 76 292.325195312 105 c 132,-1,78
 289 134 289 134 285.200195312 167 c 132,-1,79
 281.400390625 200 281.400390625 200 278.075195312 228 c 132,-1,80
 274.75 256 274.75 256 272.375 274.5 c 132,-1,81
 270 293 270 293 268.099609375 293 c 260,82,83
 266.200195312 293 266.200195312 293 262.875 276 c 132,-1,84
 259.549804688 259 259.549804688 259 255.75 233.5 c 132,-1,85
 251.950195312 208 251.950195312 208 248.625 177 c 132,-1,86
 245.299804688 146 245.299804688 146 241.974609375 117.5 c 132,-1,87
 238.650390625 89 238.650390625 89 235.325195312 68 c 132,-1,88
 232 47 232 47 230.099609375 40 c 4,89,90
 226.299804688 27 226.299804688 27 218.224609375 19 c 132,-1,91
 210.150390625 11 210.150390625 11 200.650390625 6.5 c 132,-1,92
 191.150390625 2 191.150390625 2 181.650390625 0 c 132,-1,93
 172.150390625 -2 172.150390625 -2 165.5 -2 c 4,0,1
479.950195312 584 m 4,94,95
 479.950195312 597 479.950195312 597 476.150390625 597 c 4,96,97
 471.400390625 597 471.400390625 597 468.075195312 586 c 132,-1,98
 464.75 575 464.75 575 464.75 564 c 4,99,100
 464.75 559 464.75 559 465.700195312 554 c 132,-1,101
 466.650390625 549 466.650390625 549 468.549804688 549 c 260,102,103
 470.450195312 549 470.450195312 549 472.825195312 553.5 c 132,-1,104
 475.200195312 558 475.200195312 558 476.625 564 c 132,-1,105
 478.049804688 570 478.049804688 570 479 576 c 132,-1,106
 479.950195312 582 479.950195312 582 479.950195312 584 c 4,94,95
256.700195312 584 m 4,107,108
 256.700195312 597 256.700195312 597 252.900390625 597 c 4,109,110
 248.150390625 597 248.150390625 597 244.825195312 586 c 132,-1,111
 241.5 575 241.5 575 241.5 564 c 4,112,113
 241.5 559 241.5 559 242.450195312 554 c 132,-1,114
 243.400390625 549 243.400390625 549 245.299804688 549 c 260,115,116
 247.200195312 549 247.200195312 549 249.575195312 553.5 c 132,-1,117
 251.950195312 558 251.950195312 558 253.375 564 c 132,-1,118
 254.799804688 570 254.799804688 570 255.75 576 c 132,-1,119
 256.700195312 582 256.700195312 582 256.700195312 584 c 4,107,108
34.400390625 579 m 4,120,121
 39.150390625 587 39.150390625 587 36.775390625 591.5 c 132,-1,122
 34.400390625 596 34.400390625 596 30.599609375 596 c 4,123,124
 24.900390625 596 24.900390625 596 20.625 580.5 c 132,-1,125
 16.349609375 565 16.349609375 565 16.349609375 545 c 4,126,127
 16.349609375 522 16.349609375 522 21.099609375 522 c 4,128,129
 23.9501953125 522 23.9501953125 522 24.900390625 529.5 c 132,-1,130
 25.849609375 537 25.849609375 537 27.275390625 546.5 c 132,-1,131
 28.7001953125 556 28.7001953125 556 30.125 565.5 c 132,-1,132
 31.5498046875 575 31.5498046875 575 34.400390625 579 c 4,120,121
329.849609375 40 m 4,133,134
 323.200195312 52 323.200195312 52 319.875 67.5 c 132,-1,135
 316.549804688 83 316.549804688 83 310.849609375 83 c 4,136,137
 308 83 308 83 307.525390625 78.5 c 132,-1,138
 307.049804688 74 307.049804688 74 307.049804688 71 c 260,139,140
 307.049804688 68 307.049804688 68 308.474609375 60 c 132,-1,141
 309.900390625 52 309.900390625 52 312.75 44 c 132,-1,142
 315.599609375 36 315.599609375 36 318.924804688 29.5 c 132,-1,143
 322.25 23 322.25 23 326.049804688 23 c 4,144,145
 330.799804688 23 330.799804688 23 332.700195312 27.5 c 132,-1,146
 334.599609375 32 334.599609375 32 329.849609375 40 c 4,133,134
106.599609375 40 m 4,147,148
 99.9501953125 52 99.9501953125 52 96.625 67.5 c 132,-1,149
 93.2998046875 83 93.2998046875 83 87.599609375 83 c 4,150,151
 84.75 83 84.75 83 84.275390625 78.5 c 132,-1,152
 83.7998046875 74 83.7998046875 74 83.7998046875 71 c 260,153,154
 83.7998046875 68 83.7998046875 68 85.224609375 60 c 132,-1,155
 86.650390625 52 86.650390625 52 89.5 44 c 132,-1,156
 92.349609375 36 92.349609375 36 95.6748046875 29.5 c 132,-1,157
 99 23 99 23 102.799804688 23 c 4,158,159
 107.549804688 23 107.549804688 23 109.450195312 27.5 c 132,-1,160
 111.349609375 32 111.349609375 32 106.599609375 40 c 4,147,148
EndSplineSet
EndChar

StartChar: X
Encoding: 88 88 58
Width: 540
GlyphClass: 2
Flags: W
LayerCount: 2
Fore
SplineSet
257.998046875 641 m 4
 231.3984375 641 231.3984375 641 215.297851562 657.25 c 4
 199.198242188 673.5 199.198242188 673.5 199.198242188 700.799804688 c 4
 199.198242188 725.5 199.198242188 725.5 213.198242188 746.950195312 c 4
 227.198242188 768.400390625 227.198242188 768.400390625 257.998046875 768.400390625 c 4
 290.198242188 768.400390625 290.198242188 768.400390625 306.998046875 748.25 c 4
 323.797851562 728.100585938 323.797851562 728.100585938 323.797851562 700.799804688 c 4
 323.797851562 670.900390625 323.797851562 670.900390625 304.8984375 655.950195312 c 4
 285.998046875 641 285.998046875 641 257.998046875 641 c 4
232.797851562 708.600585938 m 4
 234.198242188 722.900390625 234.198242188 722.900390625 239.797851562 734.600585938 c 4
 245.3984375 746.299804688 245.3984375 746.299804688 238.3984375 746.299804688 c 4
 228.598632812 746.299804688 228.598632812 746.299804688 222.297851562 727.450195312 c 4
 215.998046875 708.600585938 215.998046875 708.600585938 215.998046875 694.299804688 c 4
 215.998046875 681.299804688 215.998046875 681.299804688 222.998046875 681.299804688 c 4
 228.598632812 681.299804688 228.598632812 681.299804688 229.998046875 691.049804688 c 4
 231.3984375 700.799804688 231.3984375 700.799804688 232.797851562 708.600585938 c 4
EndSplineSet
Refer: 90 120 N 1 0 0 1 5.00045e-10 0 2
EndChar

StartChar: Y
Encoding: 89 89 59
Width: 540
GlyphClass: 2
Flags: W
LayerCount: 2
Fore
SplineSet
106.5 -175 m 4,0,1
 86.5 -175 86.5 -175 67.5 -172.5 c 132,-1,2
 48.5 -170 48.5 -170 34.5 -167 c 5,3,-1
 34.5 -98 l 5,4,5
 46.5 -100 46.5 -100 63 -102 c 132,-1,6
 79.5 -104 79.5 -104 95.5 -104 c 4,7,8
 126.5 -104 126.5 -104 147 -94 c 132,-1,9
 167.5 -84 167.5 -84 183 -63 c 132,-1,10
 198.5 -42 198.5 -42 211.5 -8 c 6,11,-1
 240.5 65 l 5,12,-1
 15.5 606 l 5,13,-1
 103.5 606 l 5,14,-1
 231.5 291 l 6,15,16
 244.5 260 244.5 260 257 222 c 132,-1,17
 269.5 184 269.5 184 279.5 149 c 5,18,-1
 282.5 149 l 5,19,20
 289.5 174 289.5 174 297.5 198.5 c 132,-1,21
 305.5 223 305.5 223 313 247 c 132,-1,22
 320.5 271 320.5 271 327.5 292 c 6,23,-1
 432.5 606 l 5,24,-1
 524.5 606 l 5,25,-1
 299.5 0 l 6,26,27
 280.5 -52 280.5 -52 258 -91.5 c 132,-1,28
 235.5 -131 235.5 -131 200 -153 c 132,-1,29
 164.5 -175 164.5 -175 106.5 -175 c 4,0,1
EndSplineSet
EndChar

StartChar: Z
Encoding: 90 90 60
Width: 540
GlyphClass: 2
Flags: W
LayerCount: 2
Fore
SplineSet
284.5 586 m 4,0,1
 244.5 586 244.5 586 216 614 c 132,-1,2
 187.5 642 187.5 642 187.5 686 c 4,3,4
 187.5 710 187.5 710 196 731.5 c 132,-1,5
 204.5 753 204.5 753 219.5 768.5 c 132,-1,6
 234.5 784 234.5 784 255.5 793.5 c 132,-1,7
 276.5 803 276.5 803 301.5 803 c 4,8,9
 321.5 803 321.5 803 338.5 794.5 c 132,-1,10
 355.5 786 355.5 786 367.5 771 c 132,-1,11
 379.5 756 379.5 756 386 737 c 132,-1,12
 392.5 718 392.5 718 392.5 697 c 4,13,14
 392.5 670 392.5 670 384 649.5 c 132,-1,15
 375.5 629 375.5 629 360.5 615 c 132,-1,16
 345.5 601 345.5 601 326 593.5 c 132,-1,17
 306.5 586 306.5 586 284.5 586 c 4,0,1
247.5 759 m 4,18,19
 254.5 766 254.5 766 256 771 c 132,-1,20
 257.5 776 257.5 776 255.5 776 c 4,21,22
 247.5 776 247.5 776 238.5 768.5 c 132,-1,23
 229.5 761 229.5 761 222 750.5 c 132,-1,24
 214.5 740 214.5 740 209.5 728 c 132,-1,25
 204.5 716 204.5 716 204.5 706 c 4,26,27
 204.5 704 204.5 704 206 698 c 132,-1,28
 207.5 692 207.5 692 210.5 692 c 4,29,30
 214.5 692 214.5 692 220.5 714 c 4,31,32
 223.5 728 223.5 728 231.5 739.5 c 132,-1,33
 239.5 751 239.5 751 247.5 759 c 4,18,19
288.5 643 m 4,34,35
 300.5 643 300.5 643 317 657 c 132,-1,36
 333.5 671 333.5 671 333.5 697 c 4,37,38
 333.5 717 333.5 717 323 730.5 c 132,-1,39
 312.5 744 312.5 744 295.5 744 c 260,40,41
 278.5 744 278.5 744 264.5 730.5 c 132,-1,42
 250.5 717 250.5 717 250.5 693 c 260,43,44
 250.5 669 250.5 669 261.5 656 c 132,-1,45
 272.5 643 272.5 643 288.5 643 c 4,34,35
60 0 m 1,46,-1
 60 61 l 1,47,-1
 375 467 l 1,48,-1
 76 467 l 1,49,-1
 76 536 l 1,50,-1
 472 536 l 1,51,-1
 472 465 l 1,52,-1
 167 76 l 1,53,-1
 480 76 l 1,54,-1
 480 0 l 1,55,-1
 60 0 l 1,46,-1
EndSplineSet
EndChar

StartChar: bracketleft
Encoding: 91 91 61
Width: 540
Flags: W
LayerCount: 2
Fore
SplineSet
174.930664062 -70 m 0,0,1
 171.930664062 -67 171.930664062 -67 170.430664062 -56.5 c 128,-1,2
 168.930664062 -46 168.930664062 -46 167.930664062 -12.5 c 128,-1,3
 166.930664062 21 166.930664062 21 166.930664062 86.5 c 128,-1,4
 166.930664062 152 166.930664062 152 166.930664062 266 c 0,5,6
 166.930664062 347 166.930664062 347 166.930664062 405 c 128,-1,7
 166.930664062 463 166.930664062 463 166.930664062 503.5 c 128,-1,8
 166.930664062 544 166.930664062 544 167.930664062 570 c 128,-1,9
 168.930664062 596 168.930664062 596 170.930664062 611.5 c 128,-1,10
 172.930664062 627 172.930664062 627 175.930664062 635 c 128,-1,11
 178.930664062 643 178.930664062 643 183.930664062 649 c 0,12,13
 187.930664062 654 187.930664062 654 199.430664062 657 c 128,-1,14
 210.930664062 660 210.930664062 660 226.430664062 661.5 c 128,-1,15
 241.930664062 663 241.930664062 663 261.430664062 663.5 c 128,-1,16
 280.930664062 664 280.930664062 664 300.930664062 664 c 0,17,18
 341.930664062 664 341.930664062 664 362.430664062 650 c 128,-1,19
 382.930664062 636 382.930664062 636 363.930664062 616 c 0,20,21
 358.930664062 610 358.930664062 610 344.930664062 606 c 128,-1,22
 330.930664062 602 330.930664062 602 300.930664062 602 c 0,23,24
 286.930664062 602 286.930664062 602 279.430664062 600 c 128,-1,25
 271.930664062 598 271.930664062 598 268.930664062 593 c 128,-1,26
 265.930664062 588 265.930664062 588 265.930664062 579.5 c 128,-1,27
 265.930664062 571 265.930664062 571 265.930664062 557 c 2,28,-1
 265.930664062 -20 l 1,29,-1
 283.930664062 -20 l 2,30,31
 326.930664062 -20 326.930664062 -20 341.430664062 -27.5 c 128,-1,32
 355.930664062 -35 355.930664062 -35 355.930664062 -56 c 0,33,34
 355.930664062 -66 355.930664062 -66 352.430664062 -71.5 c 128,-1,35
 348.930664062 -77 348.930664062 -77 338.430664062 -79.5 c 128,-1,36
 327.930664062 -82 327.930664062 -82 309.930664062 -82.5 c 128,-1,37
 291.930664062 -83 291.930664062 -83 261.930664062 -83 c 0,38,39
 234.930664062 -83 234.930664062 -83 219.430664062 -83 c 128,-1,40
 203.930664062 -83 203.930664062 -83 194.930664062 -81.5 c 128,-1,41
 185.930664062 -80 185.930664062 -80 181.930664062 -77.5 c 128,-1,42
 177.930664062 -75 177.930664062 -75 174.930664062 -70 c 0,0,1
211.930664062 616 m 256,43,44
 213.930664062 624 213.930664062 624 222.930664062 630 c 128,-1,45
 231.930664062 636 231.930664062 636 237.930664062 636 c 0,46,47
 246.930664062 636 246.930664062 636 246.930664062 643 c 0,48,49
 246.930664062 644 246.930664062 644 245.430664062 644 c 128,-1,50
 243.930664062 644 243.930664062 644 237.930664062 644 c 0,51,52
 222.930664062 644 222.930664062 644 208.930664062 634 c 128,-1,53
 194.930664062 624 194.930664062 624 194.930664062 610 c 0,54,55
 194.930664062 598 194.930664062 598 198.930664062 598 c 256,56,57
 202.930664062 598 202.930664062 598 206.430664062 603 c 128,-1,58
 209.930664062 608 209.930664062 608 211.930664062 616 c 256,43,44
EndSplineSet
EndChar

StartChar: backslash
Encoding: 92 92 62
Width: 540
Flags: W
LayerCount: 2
Fore
SplineSet
156.5 666 m 0,0,1
 163.5 666 163.5 666 181.5 630.5 c 128,-1,2
 199.5 595 199.5 595 223 541 c 128,-1,3
 246.5 487 246.5 487 272.5 422.5 c 128,-1,4
 298.5 358 298.5 358 321.5 299.5 c 128,-1,5
 344.5 241 344.5 241 361 197.5 c 128,-1,6
 377.5 154 377.5 154 383.5 142 c 0,7,8
 389.5 129 389.5 129 401 101.5 c 128,-1,9
 412.5 74 412.5 74 424 44.5 c 128,-1,10
 435.5 15 435.5 15 444 -10.5 c 128,-1,11
 452.5 -36 452.5 -36 452.5 -44 c 0,12,13
 452.5 -51 452.5 -51 447.5 -57 c 128,-1,14
 442.5 -63 442.5 -63 435 -67.5 c 128,-1,15
 427.5 -72 427.5 -72 419 -74.5 c 128,-1,16
 410.5 -77 410.5 -77 403.5 -77 c 0,17,18
 389.5 -77 389.5 -77 378 -67.5 c 128,-1,19
 366.5 -58 366.5 -58 359.5 -47 c 0,20,21
 353.5 -37 353.5 -37 338.5 -3 c 128,-1,22
 323.5 31 323.5 31 303.5 79.5 c 128,-1,23
 283.5 128 283.5 128 259.5 187 c 128,-1,24
 235.5 246 235.5 246 211.5 306 c 128,-1,25
 187.5 366 187.5 366 165 423 c 128,-1,26
 142.5 480 142.5 480 125.5 525 c 128,-1,27
 108.5 570 108.5 570 98 598.5 c 128,-1,28
 87.5 627 87.5 627 87.5 630 c 0,29,30
 87.5 639 87.5 639 96.5 646 c 128,-1,31
 105.5 653 105.5 653 117.5 657.5 c 128,-1,32
 129.5 662 129.5 662 141 664 c 128,-1,33
 152.5 666 152.5 666 156.5 666 c 0,0,1
131.5 626 m 0,34,35
 129.5 631 129.5 631 122 629 c 128,-1,36
 114.5 627 114.5 627 114.5 620 c 0,37,38
 114.5 614 114.5 614 119.5 599.5 c 128,-1,39
 124.5 585 124.5 585 131 569.5 c 128,-1,40
 137.5 554 137.5 554 144 540.5 c 128,-1,41
 150.5 527 150.5 527 152.5 523 c 0,42,43
 155.5 518 155.5 518 160.5 518 c 128,-1,44
 165.5 518 165.5 518 167.5 519 c 0,45,46
 172.5 520 172.5 520 169 532.5 c 128,-1,47
 165.5 545 165.5 545 158.5 561.5 c 128,-1,48
 151.5 578 151.5 578 143.5 596 c 128,-1,49
 135.5 614 135.5 614 131.5 626 c 0,34,35
EndSplineSet
EndChar

StartChar: bracketright
Encoding: 93 93 63
Width: 540
Flags: W
LayerCount: 2
Fore
SplineSet
199.75 -80 m 0,0,1
 184.75 -80 184.75 -80 174.25 -71.5 c 128,-1,2
 163.75 -63 163.75 -63 163.75 -55 c 0,3,4
 163.75 -33 163.75 -33 177.25 -25 c 128,-1,5
 190.75 -17 190.75 -17 210.75 -17 c 0,6,7
 234.75 -17 234.75 -17 248.25 -15 c 128,-1,8
 261.75 -13 261.75 -13 268.25 -8.5 c 128,-1,9
 274.75 -4 274.75 -4 276.25 3.5 c 128,-1,10
 277.75 11 277.75 11 277.75 21 c 2,11,-1
 277.75 551 l 2,12,13
 277.75 580 277.75 580 265.75 590 c 128,-1,14
 253.75 600 253.75 600 242.75 600 c 256,15,16
 231.75 600 231.75 600 219.75 598 c 128,-1,17
 207.75 596 207.75 596 196.75 596 c 0,18,19
 182.75 596 182.75 596 173.25 603 c 128,-1,20
 163.75 610 163.75 610 163.75 633 c 0,21,22
 163.75 645 163.75 645 180.25 653.5 c 128,-1,23
 196.75 662 196.75 662 225.75 662 c 0,24,25
 250.75 662 250.75 662 274.75 662 c 128,-1,26
 298.75 662 298.75 662 318.25 660.5 c 128,-1,27
 337.75 659 337.75 659 350.75 656 c 128,-1,28
 363.75 653 363.75 653 366.75 647 c 0,29,30
 369.75 642 369.75 642 370.25 625.5 c 128,-1,31
 370.75 609 370.75 609 370.75 570.5 c 128,-1,32
 370.75 532 370.75 532 371.25 466 c 128,-1,33
 371.75 400 371.75 400 372.75 295 c 0,34,35
 374.75 193 374.75 193 375.75 127.5 c 128,-1,36
 376.75 62 376.75 62 375.75 21 c 0,37,38
 375.75 -7 375.75 -7 371.75 -25 c 128,-1,39
 367.75 -43 367.75 -43 361.75 -54 c 128,-1,40
 355.75 -65 355.75 -65 347.25 -70 c 128,-1,41
 338.75 -75 338.75 -75 328.75 -76 c 0,42,43
 310.75 -78 310.75 -78 289.25 -79 c 128,-1,44
 267.75 -80 267.75 -80 248.75 -80 c 128,-1,45
 229.75 -80 229.75 -80 215.75 -80 c 128,-1,46
 201.75 -80 201.75 -80 199.75 -80 c 0,0,1
194.75 644 m 256,47,48
 190.75 649 190.75 649 183.75 645 c 128,-1,49
 176.75 641 176.75 641 176.75 633 c 0,50,51
 176.75 623 176.75 623 180.75 623 c 256,52,53
 184.75 623 184.75 623 184.75 630 c 0,54,55
 185.75 634 185.75 634 192.25 636.5 c 128,-1,56
 198.75 639 198.75 639 194.75 644 c 256,47,48
EndSplineSet
EndChar

StartChar: asciicircum
Encoding: 94 94 64
Width: 540
Flags: W
LayerCount: 2
Fore
SplineSet
22 267 m 1,0,-1
 234 719 l 1,1,-1
 284 719 l 1,2,-1
 518 267 l 1,3,-1
 440 267 l 1,4,-1
 260 626 l 1,5,-1
 100 267 l 1,6,-1
 22 267 l 1,0,-1
EndSplineSet
EndChar

StartChar: underscore
Encoding: 95 95 65
Width: 540
Flags: W
LayerCount: 2
Fore
SplineSet
494 -154 m 1,0,-1
 46 -154 l 1,1,-1
 46 -90 l 1,2,-1
 494 -90 l 1,3,-1
 494 -154 l 1,0,-1
EndSplineSet
EndChar

StartChar: grave
Encoding: 96 96 66
Width: 540
Flags: W
LayerCount: 2
Fore
SplineSet
274.5 766 m 1,0,1
 285.5 744 285.5 744 302 716.5 c 128,-1,2
 318.5 689 318.5 689 337 663 c 128,-1,3
 355.5 637 355.5 637 370.5 618 c 1,4,-1
 370.5 606 l 1,5,-1
 311.5 606 l 1,6,7
 294.5 620 294.5 620 273.5 639.5 c 128,-1,8
 252.5 659 252.5 659 232 680.5 c 128,-1,9
 211.5 702 211.5 702 195 722 c 128,-1,10
 178.5 742 178.5 742 169.5 756 c 1,11,-1
 169.5 766 l 1,12,-1
 274.5 766 l 1,0,1
EndSplineSet
EndChar

StartChar: a
Encoding: 97 97 67
Width: 540
GlyphClass: 2
Flags: W
LayerCount: 2
Fore
SplineSet
88 77 m 0,0,1
 76 93 76 93 67 108.5 c 128,-1,2
 58 124 58 124 56 139 c 0,3,4
 53 153 53 153 47 152 c 0,5,6
 39 152 39 152 42 134 c 0,7,8
 43 125 43 125 47.5 112 c 128,-1,9
 52 99 52 99 58 88 c 128,-1,10
 64 77 64 77 72 69.5 c 128,-1,11
 80 62 80 62 89 63 c 0,12,13
 97 65 97 65 88 77 c 0,0,1
199.5 -1 m 0,14,15
 138 -1 138 -1 91.5 30.5 c 0,16,17
 44 62 44 62 18 123.5 c 128,-1,18
 -8 185 -8 185 -8.5 274 c 0,19,20
 -8 368 -8 368 24.5 433.5 c 0,21,22
 58 499 58 499 112 534 c 128,-1,23
 166 569 166 569 229.5 569 c 0,24,25
 264 569 264 569 296 555 c 128,-1,26
 328 541 328 541 355 509.5 c 128,-1,27
 382 478 382 478 396.5 426 c 1,28,-1
 399.5 426 l 1,29,-1
 422.5 509 l 1,30,-1
 512.5 509 l 1,31,32
 502 456 502 456 490 420 c 128,-1,33
 478 384 478 384 468 326.5 c 128,-1,34
 458 269 458 269 451 218.5 c 0,35,36
 445 178 445 178 444.5 131 c 0,37,38
 444 104 444 104 460 89.5 c 128,-1,39
 476 75 476 75 498.5 75 c 0,40,41
 508 75 508 75 517.5 77 c 0,42,43
 528 79 528 79 535.5 83 c 1,44,-1
 548.5 13 l 1,45,46
 538 8 538 8 520.5 3.5 c 0,47,48
 504 -1 504 -1 479.5 -1 c 0,49,50
 432 -1 432 -1 402 25.5 c 128,-1,51
 372 52 372 52 372.5 109 c 1,52,-1
 368.5 109 l 1,53,54
 306 -1 306 -1 199.5 -1 c 0,14,15
218.5 76 m 0,55,56
 254.5 76 254.5 76 287 98.5 c 128,-1,57
 319.5 121 319.5 121 341.5 159.5 c 128,-1,58
 363.5 198 363.5 198 366.5 244 c 2,59,-1
 375.5 347 l 1,60,61
 363.5 391 363.5 391 348 419.5 c 128,-1,62
 332.5 448 332.5 448 314.5 464 c 128,-1,63
 296.5 480 296.5 480 277 486 c 128,-1,64
 257.5 492 257.5 492 238.5 492 c 0,65,66
 199.5 492 199.5 492 164.5 467.5 c 128,-1,67
 129.5 443 129.5 443 107.5 395 c 128,-1,68
 85.5 347 85.5 347 85.5 275 c 0,69,70
 85.5 180 85.5 180 121 128 c 128,-1,71
 156.5 76 156.5 76 218.5 76 c 0,55,56
EndSplineSet
EndChar

StartChar: b
Encoding: 98 98 68
Width: 540
GlyphClass: 2
Flags: W
LayerCount: 2
Fore
SplineSet
286.3984375 -3.921875 m 4,0,1
 227.448242188 -4.400390625 227.448242188 -4.400390625 187.471679688 16.8720703125 c 4,2,3
 147.408203125 37.1796875 147.408203125 37.1796875 124.336914062 65.09765625 c 5,4,-1
 118.372070312 65.09765625 l 5,5,-1
 110.41796875 4.927734375 l 5,6,-1
 38.83203125 4.927734375 l 5,7,-1
 38.83203125 613.072265625 l 5,8,-1
 125.331054688 613.072265625 l 5,9,-1
 125.331054688 514.606445312 l 6,10,11
 125.328125 489.610351562 125.328125 489.610351562 124.833984375 465.939453125 c 132,-1,12
 124.408203125 442.08984375 124.408203125 442.08984375 121.354492188 417.272460938 c 5,13,-1
 125.331054688 417.272460938 l 5,14,15
 146.48828125 446.049804688 146.48828125 446.049804688 185.98046875 466.825195312 c 132,-1,16
 225.608398438 487.629882812 225.608398438 487.629882812 286.3984375 488.061523438 c 4,17,18
 334.16796875 487.629882812 334.16796875 487.629882812 373.891601562 472.576171875 c 4,19,20
 413.288085938 456.940429688 413.288085938 456.940429688 441.998046875 426.120117188 c 4,21,22
 470.328125 395.559570312 470.328125 395.559570312 485.744140625 349.138671875 c 4,23,24
 501.608398438 303.490234375 501.608398438 303.490234375 501.155273438 242.955078125 c 4,25,26
 501.608398438 181.719726562 501.608398438 181.719726562 485.744140625 135.885742188 c 4,27,28
 470.328125 89.650390625 470.328125 89.650390625 441.501953125 58.4609375 c 4,29,30
 412.368164062 27.2802734375 412.368164062 27.2802734375 373.39453125 11.5625 c 4,31,32
 334.16796875 -4.400390625 334.16796875 -4.400390625 286.3984375 -3.921875 c 4,0,1
269.497070312 60.671875 m 4,33,34
 342.077148438 60.671875 342.077148438 60.671875 375.880859375 107.5703125 c 132,-1,35
 409.685546875 154.46875 409.685546875 154.46875 409.685546875 242.955078125 c 4,36,37
 409.685546875 329.670898438 409.685546875 329.670898438 375.880859375 376.568359375 c 132,-1,38
 342.077148438 423.466796875 342.077148438 423.466796875 268.501953125 423.466796875 c 4,39,40
 199.899414062 423.466796875 199.899414062 423.466796875 162.615234375 377.010742188 c 132,-1,41
 125.331054688 330.556640625 125.331054688 330.556640625 125.331054688 244.724609375 c 4,42,43
 125.331054688 155.353515625 125.331054688 155.353515625 160.626953125 108.013671875 c 132,-1,44
 195.922851562 60.671875 195.922851562 60.671875 269.497070312 60.671875 c 4,33,34
EndSplineSet
EndChar

StartChar: c
Encoding: 99 99 69
Width: 540
GlyphClass: 2
Flags: W
LayerCount: 2
Fore
SplineSet
379 17 m 0,0,1
 261 17 261 17 196 84 c 128,-1,2
 131 151 131 151 131 272 c 0,3,4
 131 352 131 352 160 407.5 c 128,-1,5
 189 463 189 463 243 492 c 1,6,-1
 15 492 l 1,7,-1
 15 564 l 1,8,-1
 525 564 l 1,9,-1
 525 492 l 1,10,-1
 423 492 l 2,11,12
 329 492 329 492 275.5 438.5 c 128,-1,13
 222 385 222 385 222 279 c 0,14,15
 222 192 222 192 265 141.5 c 128,-1,16
 308 91 308 91 388 91 c 0,17,18
 425 91 425 91 459 100.5 c 128,-1,19
 493 110 493 110 525 126 c 1,20,-1
 525 48 l 1,21,22
 496 32 496 32 461 24.5 c 128,-1,23
 426 17 426 17 379 17 c 0,0,1
EndSplineSet
EndChar

StartChar: d
Encoding: 100 100 70
Width: 540
GlyphClass: 2
Flags: W
LayerCount: 2
Fore
SplineSet
255.8359375 2.5400390625 m 0,0,1
 204.74609375 3 204.74609375 3 161.9140625 15.7314453125 c 0,2,3
 119.74609375 29 119.74609375 29 88.98046875 56.083984375 c 0,4,5
 58.74609375 83 58.74609375 83 42.283203125 124.372070312 c 0,6,7
 25.74609375 166 25.74609375 166 26.0166015625 220.595703125 c 0,8,9
 25.74609375 290 25.74609375 290 52.7763671875 337.383789062 c 0,10,11
 79.74609375 385 79.74609375 385 133.055664062 409.551757812 c 0,12,13
 186.74609375 434 186.74609375 434 266.329101562 433.99609375 c 0,14,15
 304.74609375 434 304.74609375 434 335.065429688 426.235351562 c 0,16,17
 364.74609375 418 364.74609375 418 386.486328125 404.895507812 c 0,18,19
 407.74609375 391 407.74609375 391 420.590820312 373.46875 c 1,20,-1
 426.887695312 373.46875 l 1,21,22
 425.74609375 381 425.74609375 381 424.263671875 391.704101562 c 0,23,24
 422.74609375 402 422.74609375 402 421.640625 413.431640625 c 0,25,26
 420.74609375 432 420.74609375 432 420.590820312 434.771484375 c 2,27,-1
 420.590820312 616.059570312 l 1,28,-1
 513.98828125 616.059570312 l 1,29,-1
 513.98828125 10.2998046875 l 1,30,-1
 436.33203125 10.2998046875 l 1,31,-1
 425.837890625 66.171875 l 1,32,-1
 421.640625 66.171875 l 1,33,34
 405.74609375 48 405.74609375 48 383.337890625 33.19140625 c 0,35,36
 360.74609375 19 360.74609375 19 329.818359375 10.6884765625 c 0,37,38
 298.74609375 3 298.74609375 3 255.8359375 2.5400390625 c 0,0,1
273.67578125 59.1884765625 m 0,39,40
 348.182617188 59.1884765625 348.182617188 59.1884765625 384.38671875 97.599609375 c 128,-1,41
 420.590820312 136.01171875 420.590820312 136.01171875 420.590820312 201.971679688 c 2,42,-1
 420.590820312 217.491210938 l 2,43,44
 420.590820312 263.275390625 420.590820312 263.275390625 406.94921875 299.360351562 c 128,-1,45
 393.306640625 335.444335938 393.306640625 335.444335938 361.82421875 356.395507812 c 128,-1,46
 330.342773438 377.348632812 330.342773438 377.348632812 276.823242188 377.348632812 c 0,47,48
 203.365234375 377.348632812 203.365234375 377.348632812 162.963867188 336.99609375 c 128,-1,49
 122.561523438 296.64453125 122.561523438 296.64453125 122.561523438 213.611328125 c 0,50,51
 122.561523438 136.788085938 122.561523438 136.788085938 159.815429688 97.98828125 c 128,-1,52
 197.068359375 59.1884765625 197.068359375 59.1884765625 273.67578125 59.1884765625 c 0,39,40
EndSplineSet
EndChar

StartChar: e
Encoding: 101 101 71
Width: 540
GlyphClass: 2
Flags: W
LayerCount: 2
Fore
SplineSet
307 -10 m 0,0,1
 221 -10 221 -10 159 22 c 128,-1,2
 97 54 97 54 63.5 115.5 c 128,-1,3
 30 177 30 177 30 266 c 0,4,5
 30 354 30 354 62 416.5 c 128,-1,6
 94 479 94 479 151 512.5 c 128,-1,7
 208 546 208 546 284 546 c 0,8,9
 354 546 354 546 404.5 515 c 128,-1,10
 455 484 455 484 482.5 427.5 c 128,-1,11
 510 371 510 371 510 292 c 2,12,-1
 510 251 l 1,13,-1
 121 251 l 1,14,15
 123 181 123 181 147.5 140 c 128,-1,16
 172 99 172 99 214.5 81.5 c 128,-1,17
 257 64 257 64 313 64 c 0,18,19
 357 64 357 64 400 76 c 128,-1,20
 443 88 443 88 486 108 c 1,21,-1
 486 28 l 1,22,23
 440 8 440 8 394 -1 c 128,-1,24
 348 -10 348 -10 307 -10 c 0,0,1
420 323 m 1,25,26
 418 370 418 370 402 403.5 c 128,-1,27
 386 437 386 437 356.5 455 c 128,-1,28
 327 473 327 473 284 473 c 0,29,30
 217 473 217 473 175.5 432.5 c 128,-1,31
 134 392 134 392 123 323 c 1,32,-1
 420 323 l 1,25,26
EndSplineSet
EndChar

StartChar: f
Encoding: 102 102 72
Width: 540
GlyphClass: 2
Flags: W
LayerCount: 2
Fore
SplineSet
93 0 m 0,0,1
 66 0 66 0 48.5 9.5 c 128,-1,2
 31 19 31 19 31 49 c 2,3,-1
 31 543 l 2,4,5
 31 582 31 582 59.5 599.5 c 0,6,7
 88.2099609375 617.12890625 88.2099609375 617.12890625 133 617 c 2,8,-1
 480 616 l 2,9,10
 491 616 491 616 500 604.5 c 128,-1,11
 509 593 509 593 509 579 c 0,12,13
 509 572 509 572 507.5 561.5 c 128,-1,14
 506 551 506 551 503 541.5 c 128,-1,15
 500 532 500 532 495.5 525.5 c 128,-1,16
 490.986328125 518.98046875 490.986328125 518.98046875 485 519 c 2,17,-1
 171 520 l 2,18,19
 145 520 145 520 145 494 c 2,20,-1
 145 345 l 2,21,22
 145 335 145 335 151.5 330.5 c 128,-1,23
 158.150390625 325.895507812 158.150390625 325.895507812 168 326 c 2,24,-1
 451 329 l 2,25,26
 459 329 459 329 465 324 c 128,-1,27
 471 319 471 319 476 310.5 c 128,-1,28
 481 302 481 302 483.5 293 c 128,-1,29
 486 284 486 284 486 276 c 0,30,31
 486 236.40234375 486 236.40234375 448 236 c 2,32,-1
 165 233 l 2,33,34
 157 233 157 233 151 227 c 128,-1,35
 145 221 145 221 145 213 c 2,36,-1
 145 48 l 2,37,38
 145 32 145 32 140.5 22.5 c 128,-1,39
 136 13 136 13 128.5 8 c 128,-1,40
 121 3 121 3 111.5 1.5 c 128,-1,41
 102 0 102 0 93 0 c 0,0,1
81 26 m 0,42,43
 80 31 80 31 71.5 42 c 128,-1,44
 63 53 63 53 61 78 c 0,45,46
 59 91 59 91 55.5 94 c 128,-1,47
 52 97 52 97 50 97 c 256,48,49
 48 97 48 97 46.5 91 c 128,-1,50
 45 85 45 85 47 75 c 0,51,52
 47 70 47 70 49 60.5 c 128,-1,53
 51 51 51 51 54.5 41.5 c 128,-1,54
 58 32 58 32 63 25 c 128,-1,55
 68 18 68 18 75 19 c 0,56,57
 81 19 81 19 81 26 c 0,42,43
EndSplineSet
EndChar

StartChar: g
Encoding: 103 103 73
Width: 540
GlyphClass: 2
Flags: W
LayerCount: 2
Fore
SplineSet
293.786132812 -5 m 0,0,1
 207.286132812 -5 207.286132812 -5 162.786132812 28 c 4,2,3
 119.286132812 61 119.286132812 61 92.7861328125 111 c 4,4,5
 70.2861328125 155 70.2861328125 155 69.7861328125 219 c 0,6,7
 69.2861328125 307 69.2861328125 307 66.7861328125 328 c 0,8,9
 57.2861328125 432 57.2861328125 432 58.2861328125 437.5 c 4,10,11
 69.2861328125 491 69.2861328125 491 96.7861328125 532.5 c 4,12,13
 123.286132812 574 123.286132812 574 167.286132812 599.5 c 132,-1,14
 211.286132812 625 211.286132812 625 294.786132812 625 c 0,15,16
 326.286132812 625 326.286132812 625 354.286132812 616.5 c 128,-1,17
 382.286132812 608 382.286132812 608 404.786132812 589.5 c 0,18,19
 426.286132812 571 426.286132812 571 439.786132812 540.5 c 0,20,21
 454.286132812 506 454.286132812 506 452.786132812 466 c 0,22,23
 452.286132812 450 452.286132812 450 446.286132812 440.5 c 128,-1,24
 440.286132812 431 440.286132812 431 430.286132812 425.5 c 128,-1,25
 420.286132812 420 420.286132812 420 410.786132812 418.5 c 0,26,27
 400.286132812 417 400.286132812 417 394.786132812 417 c 0,28,29
 380.286132812 417 380.286132812 417 368.286132812 427 c 128,-1,30
 356.286132812 437 356.286132812 437 355.786132812 466 c 0,31,32
 356.286132812 511 356.286132812 511 335.286132812 529 c 128,-1,33
 314.286132812 547 314.286132812 547 279.786132812 547 c 128,-1,34
 245.286132812 547 245.286132812 547 227.286132812 530.5 c 132,-1,35
 209.286132812 514 209.286132812 514 194.786132812 483.5 c 4,36,37
 179.286132812 449 179.286132812 449 172.786132812 410 c 4,38,39
 164.286132812 360 164.286132812 360 164.786132812 314 c 4,40,41
 165.286132812 285 165.286132812 285 168.286132812 245 c 132,-1,42
 171.286132812 205 171.286132812 205 183.786132812 169 c 4,43,44
 195.286132812 133 195.286132812 133 217.786132812 107.5 c 4,45,46
 239.286132812 82 239.286132812 82 295.786132812 82 c 0,47,48
 324.286132812 82 324.286132812 82 341.286132812 96.5 c 128,-1,49
 358.286132812 111 358.286132812 111 365.286132812 132 c 128,-1,50
 372.286132812 153 372.286132812 153 374.286132812 175.5 c 128,-1,51
 376.286132812 198 376.286132812 198 374.786132812 214 c 256,52,53
 374.286132812 230 374.286132812 230 361.286132812 231.5 c 0,54,55
 349.286132812 233 349.286132812 233 325.786132812 233 c 2,56,-1
 274.786132812 233 l 2,57,58
 268.286132812 233 268.286132812 233 263.786132812 239 c 0,59,60
 258.286132812 245 258.286132812 245 245.786132812 253.5 c 128,-1,61
 233.286132812 262 233.286132812 262 230.786132812 271 c 4,62,63
 228.286132812 284 228.286132812 284 228.786132812 286 c 4,64,65
 244.286132812 300 244.286132812 300 258.786132812 314.5 c 0,66,67
 270.475585938 327.20703125 270.475585938 327.20703125 292.786132812 327 c 2,68,-1
 400.786132812 326 l 2,69,70
 432.286132812 326 432.286132812 326 456.786132812 306 c 0,71,72
 482.286132812 286 482.286132812 286 481.786132812 249 c 0,73,74
 482.286132812 206 482.286132812 206 472.286132812 161 c 128,-1,75
 462.286132812 116 462.286132812 116 440.786132812 79 c 0,76,77
 418.286132812 42 418.286132812 42 382.786132812 18.5 c 0,78,79
 346.286132812 -5 346.286132812 -5 293.786132812 -5 c 0,0,1
178.786132812 58 m 132,-1,81
 179.286132812 64 179.286132812 64 158.786132812 84 c 4,82,83
 149.286132812 93 149.286132812 93 140.786132812 106.5 c 4,84,85
 131.286132812 120 131.286132812 120 124.286132812 133 c 132,-1,86
 117.286132812 146 117.286132812 146 112.286132812 157.5 c 132,-1,87
 107.286132812 169 107.286132812 169 107.786132812 173 c 4,88,89
 107.286132812 178 107.286132812 178 104.786132812 179.5 c 4,90,91
 101.286132812 181 101.286132812 181 100.786132812 181 c 4,92,93
 93.2861328125 181 93.2861328125 181 92.7861328125 170 c 260,94,95
 93.2861328125 159 93.2861328125 159 101.786132812 139 c 4,96,97
 111.286132812 119 111.286132812 119 123.286132812 99.5 c 132,-1,98
 135.286132812 80 135.286132812 80 149.286132812 66 c 132,-1,99
 163.286132812 52 163.286132812 52 172.786132812 52 c 4,100,80
 178.286132812 52 178.286132812 52 178.786132812 58 c 132,-1,81
201.786132812 45 m 4,101,102
 201.286132812 52 201.286132812 52 194.786132812 52 c 4,103,104
 191.286132812 52 191.286132812 52 189.286132812 49 c 132,-1,105
 187.286132812 46 187.286132812 46 187.786132812 44 c 4,106,107
 187.286132812 39 187.286132812 39 190.286132812 38 c 132,-1,108
 193.286132812 37 193.286132812 37 194.786132812 37 c 4,109,110
 202.286132812 37 202.286132812 37 201.786132812 45 c 4,101,102
EndSplineSet
EndChar

StartChar: h
Encoding: 104 104 74
Width: 540
GlyphClass: 2
Flags: W
LayerCount: 2
Fore
SplineSet
47.5 0 m 1,0,-1
 47.5 616 l 5,1,-1
 137.5 616 l 5,2,-1
 137.5 400 l 6,3,4
 138 381 138 381 136 352 c 132,-1,5
 134 323 134 323 133.5 306 c 5,6,-1
 138.5 306 l 5,7,8
 156 339 156 339 181 360 c 132,-1,9
 206 381 206 381 238.5 391.5 c 4,10,11
 270 402 270 402 306.5 402 c 4,12,13
 390 402 390 402 441 355.5 c 4,14,15
 492.5 308.544117647 492.5 308.544117647 492.5 206 c 6,16,-1
 492.5 0 l 1,17,-1
 402.5 0 l 1,18,-1
 402.5 188 l 6,19,20
 402 261 402 261 371.5 295 c 4,21,22
 340 329 340 329 283.5 329 c 4,23,24
 240 329 240 329 206.5 306 c 4,25,26
 174 283 174 283 155.5 239.5 c 4,27,28
 137.5 194.757142857 137.5 194.757142857 137.5 134 c 6,29,-1
 137.5 0 l 1,30,-1
 47.5 0 l 1,0,-1
EndSplineSet
EndChar

StartChar: i
Encoding: 105 105 75
Width: 540
GlyphClass: 2
Flags: W
LayerCount: 2
Fore
SplineSet
200.5 576 m 4,0,1
 160.5 576 160.5 576 132 604 c 132,-1,2
 103.5 632 103.5 632 103.5 676 c 4,3,4
 103.5 700 103.5 700 112 721.5 c 132,-1,5
 120.5 743 120.5 743 135.5 758.5 c 132,-1,6
 150.5 774 150.5 774 171.5 783.5 c 132,-1,7
 192.5 793 192.5 793 217.5 793 c 4,8,9
 237.5 793 237.5 793 254.5 784.5 c 132,-1,10
 271.5 776 271.5 776 283.5 761 c 132,-1,11
 295.5 746 295.5 746 302 727 c 132,-1,12
 308.5 708 308.5 708 308.5 687 c 4,13,14
 308.5 660 308.5 660 300 639.5 c 132,-1,15
 291.5 619 291.5 619 276.5 605 c 132,-1,16
 261.5 591 261.5 591 242 583.5 c 132,-1,17
 222.5 576 222.5 576 200.5 576 c 4,0,1
163.5 749 m 4,18,19
 170.5 756 170.5 756 172 761 c 132,-1,20
 173.5 766 173.5 766 171.5 766 c 4,21,22
 163.5 766 163.5 766 154.5 758.5 c 132,-1,23
 145.5 751 145.5 751 138 740.5 c 132,-1,24
 130.5 730 130.5 730 125.5 718 c 132,-1,25
 120.5 706 120.5 706 120.5 696 c 4,26,27
 120.5 694 120.5 694 122 688 c 132,-1,28
 123.5 682 123.5 682 126.5 682 c 4,29,30
 130.5 682 130.5 682 136.5 704 c 4,31,32
 139.5 718 139.5 718 147.5 729.5 c 132,-1,33
 155.5 741 155.5 741 163.5 749 c 4,18,19
204.5 633 m 4,34,35
 216.5 633 216.5 633 233 647 c 132,-1,36
 249.5 661 249.5 661 249.5 687 c 4,37,38
 249.5 707 249.5 707 239 720.5 c 132,-1,39
 228.5 734 228.5 734 211.5 734 c 260,40,41
 194.5 734 194.5 734 180.5 720.5 c 132,-1,42
 166.5 707 166.5 707 166.5 683 c 260,43,44
 166.5 659 166.5 659 177.5 646 c 132,-1,45
 188.5 633 188.5 633 204.5 633 c 4,34,35
40 0 m 1,46,-1
 40 60 l 1,47,-1
 231 75 l 1,48,-1
 231 461 l 1,49,-1
 56 474 l 1,50,-1
 56 536 l 1,51,-1
 321 536 l 1,52,-1
 321 75 l 1,53,-1
 500 60 l 1,54,-1
 500 0 l 1,55,-1
 40 0 l 1,46,-1
EndSplineSet
EndChar

StartChar: j
Encoding: 106 106 76
Width: 540
GlyphClass: 2
Flags: W
LayerCount: 2
Fore
SplineSet
227.5 7 m 0,0,1
 271 0 271 0 292 17.5 c 128,-1,2
 313 35 313 35 322.5 64 c 128,-1,3
 332 93 332 93 333.5 130 c 128,-1,4
 335 167 335 167 335 206 c 2,5,-1
 335 541 l 1,6,-1
 475 541 l 2,7,8
 497 541 497 541 505 552 c 128,-1,9
 513 563 513 563 513 580 c 256,10,11
 513 597 513 597 506.5 607 c 128,-1,12
 500 617 500 617 475 617 c 2,13,-1
 60 617 l 2,14,15
 42 617 42 617 34.5 608.5 c 128,-1,16
 27 600 27 600 27 586 c 0,17,18
 27 566 27 566 33.5 553.5 c 128,-1,19
 40 541 40 541 56 541 c 2,20,-1
 232 541 l 1,21,-1
 232 178 l 2,22,23
 232 141 232 141 229.5 118 c 128,-1,24
 227 95 227 95 216 95 c 2,25,-1
 208 95 l 1,26,-1
 122 77 l 0,27,28
 113 62 113 62 114 10 c 0,29,-1
 227.5 7 l 0,0,1
493 587 m 0,30,31
 493 592 493 592 491.5 598.5 c 128,-1,32
 490 605 490 605 492 605 c 0,33,34
 497 605 497 605 500.5 597.5 c 128,-1,35
 504 590 504 590 504 579 c 0,36,37
 504 572 504 572 501.5 564.5 c 128,-1,38
 499 557 499 557 494 557 c 256,39,40
 489 557 489 557 491 567.5 c 128,-1,41
 493 578 493 578 493 587 c 0,30,31
280 50 m 0,42,43
 280 54 280 54 288.5 70 c 128,-1,44
 297 86 297 86 298 100 c 0,45,46
 299 108 299 108 303 112.5 c 128,-1,47
 307 117 307 117 310 117 c 0,48,49
 316 117 316 117 316.5 108.5 c 128,-1,50
 317 100 317 100 317 95 c 0,51,52
 317 91 317 91 314.5 81.5 c 128,-1,53
 312 72 312 72 308 62.5 c 128,-1,54
 304 53 304 53 299 46 c 128,-1,55
 294 39 294 39 289 39 c 0,56,57
 286 39 286 39 283 43 c 128,-1,58
 280 47 280 47 280 50 c 0,42,43
EndSplineSet
EndChar

StartChar: k
Encoding: 107 107 77
Width: 540
GlyphClass: 2
Flags: W
LayerCount: 2
Fore
SplineSet
127 0 m 0,0,1
 106 0 106 0 96 11 c 128,-1,2
 86 22 86 22 82.5 38.5 c 128,-1,3
 79 55 79 55 79 73 c 128,-1,4
 79 91 79 91 79 105 c 2,5,-1
 79 204 l 1,6,-1
 78 402 l 1,7,-1
 78 501 l 2,8,9
 78 533 78 533 80 554 c 128,-1,10
 82 575 82 575 88 590 c 128,-1,11
 94 605 94 605 105.5 613 c 128,-1,12
 117 621 117 621 137 621 c 0,13,14
 160 621 160 621 177.5 602.5 c 128,-1,15
 195 584 195 584 195 554 c 0,16,17
 195 549 195 549 194.5 533 c 128,-1,18
 194 517 194 517 194 493.5 c 128,-1,19
 194 470 194 470 194 446.5 c 128,-1,20
 194 423 194 423 194 403.5 c 128,-1,21
 194 384 194 384 195.5 371 c 128,-1,22
 197 358 197 358 199 358 c 0,23,24
 203 358 203 358 215 377 c 128,-1,25
 227 396 227 396 243 425 c 128,-1,26
 259 454 259 454 278 487 c 128,-1,27
 297 520 297 520 316 549 c 128,-1,28
 335 578 335 578 351.5 597 c 128,-1,29
 368 616 368 616 379 616 c 0,30,31
 388 616 388 616 399 613 c 128,-1,32
 410 610 410 610 419 604 c 128,-1,33
 428 598 428 598 434 589 c 128,-1,34
 440 580 440 580 440 567 c 0,35,36
 440 559 440 559 429 538.5 c 128,-1,37
 418 518 418 518 402 492 c 128,-1,38
 386 466 386 466 366.5 437.5 c 128,-1,39
 347 409 347 409 331 385 c 128,-1,40
 315 361 315 361 304 344 c 128,-1,41
 293 327 293 327 293 324 c 0,42,43
 293 320 293 320 305.5 300.5 c 128,-1,44
 318 281 318 281 337 253.5 c 128,-1,45
 356 226 356 226 377.5 194 c 128,-1,46
 399 162 399 162 418 133 c 128,-1,47
 437 104 437 104 449.5 81 c 128,-1,48
 462 58 462 58 462 48 c 0,49,50
 462 35 462 35 453.5 26 c 128,-1,51
 445 17 445 17 433 11 c 128,-1,52
 421 5 421 5 409 2 c 128,-1,53
 397 -1 397 -1 389 -1 c 0,54,55
 375 -1 375 -1 360 18 c 0,56,57
 341 41 341 41 333 57 c 0,58,59
 329 65 329 65 315 87.5 c 128,-1,60
 301 110 301 110 285 136 c 0,61,62
 259 179 259 179 253 186 c 0,63,64
 236 210 236 210 228 223 c 0,65,66
 225 228 225 228 220 228 c 0,67,68
 216 229 216 229 211 223 c 2,69,-1
 201 210 l 2,70,71
 193 200 193 200 193 178 c 2,72,-1
 193 155 l 1,73,-1
 194 125 l 1,74,-1
 194 102 l 2,75,76
 194 51 194 51 178 25.5 c 128,-1,77
 162 0 162 0 127 0 c 0,0,1
97 566 m 0,78,79
 102 565 102 565 107 568.5 c 128,-1,80
 112 572 112 572 116.5 577.5 c 128,-1,81
 121 583 121 583 124.5 589 c 128,-1,82
 128 595 128 595 129 599 c 0,83,84
 130 602 130 602 127 604.5 c 128,-1,85
 124 607 124 607 121 607 c 0,86,87
 117 607 117 607 112.5 602.5 c 128,-1,88
 108 598 108 598 103.5 591.5 c 128,-1,89
 99 585 99 585 96.5 579 c 128,-1,90
 94 573 94 573 94 570 c 0,91,92
 94 566 94 566 97 566 c 0,78,79
353 558 m 0,93,94
 356 558 356 558 361.5 562.5 c 128,-1,95
 367 567 367 567 372 573.5 c 128,-1,96
 377 580 377 580 380.5 586.5 c 128,-1,97
 384 593 384 593 383 597 c 0,98,99
 383 601 383 601 379 601 c 0,100,101
 376 602 376 602 370 597.5 c 128,-1,102
 364 593 364 593 358.5 586.5 c 128,-1,103
 353 580 353 580 349 573.5 c 128,-1,104
 345 567 345 567 346 564 c 0,105,106
 348 559 348 559 353 558 c 0,93,94
112 81 m 0,107,108
 112 85 112 85 112 97.5 c 128,-1,109
 112 110 112 110 111 123.5 c 128,-1,110
 110 137 110 137 108 147.5 c 128,-1,111
 106 158 106 158 102 158 c 0,112,113
 99 158 99 158 96.5 153 c 128,-1,114
 94 148 94 148 93 141 c 128,-1,115
 92 134 92 134 91.5 127.5 c 128,-1,116
 91 121 91 121 91 119 c 0,117,118
 91 115 91 115 91 104.5 c 128,-1,119
 91 94 91 94 92.5 83 c 128,-1,120
 94 72 94 72 97 63 c 128,-1,121
 100 54 100 54 106 54 c 0,122,123
 108 54 108 54 109.5 58 c 128,-1,124
 111 62 111 62 111.5 66.5 c 128,-1,125
 112 71 112 71 112 75.5 c 128,-1,126
 112 80 112 80 112 81 c 0,107,108
392 21 m 0,127,128
 392 24 392 24 389 30.5 c 128,-1,129
 386 37 386 37 381.5 43 c 128,-1,130
 377 49 377 49 372 54 c 128,-1,131
 367 59 367 59 364 59 c 0,132,133
 362 59 362 59 361 55.5 c 128,-1,134
 360 52 360 52 360 50 c 0,135,136
 360 47 360 47 362.5 41 c 128,-1,137
 365 35 365 35 368.5 29 c 128,-1,138
 372 23 372 23 377 19 c 128,-1,139
 382 15 382 15 386 15 c 0,140,141
 392 15 392 15 392 21 c 0,127,128
121 31 m 0,142,143
 123 36 123 36 119 41 c 128,-1,144
 115 46 115 46 110 46 c 0,145,146
 104 46 104 46 100.5 41 c 128,-1,147
 97 36 97 36 99 31 c 0,148,149
 103 21 103 21 110 21 c 256,150,151
 117 21 117 21 121 31 c 0,142,143
EndSplineSet
EndChar

StartChar: l
Encoding: 108 108 78
Width: 540
GlyphClass: 2
Flags: W
LayerCount: 2
Fore
SplineSet
33 28 m 0,0,1
 33 35 33 35 34.5 40.5 c 128,-1,2
 36 46 36 46 39 53.5 c 128,-1,3
 42 61 42 61 46.5 71 c 128,-1,4
 51 81 51 81 57 96 c 256,5,6
 63 111 63 111 67 123.5 c 128,-1,7
 71 136 71 136 73.5 150 c 128,-1,8
 76 164 76 164 77.5 180.5 c 128,-1,9
 79 197 79 197 79 218 c 2,10,-1
 79 251 l 1,11,-1
 59 251 l 2,12,13
 40 251 40 251 30.5 260 c 128,-1,14
 21 269 21 269 21 281 c 0,15,16
 21 292 21 292 27.5 306 c 128,-1,17
 34 320 34 320 52 320 c 2,18,-1
 77 320 l 1,19,-1
 77 387 l 2,20,21
 77 433 77 433 84.5 475 c 128,-1,22
 92 517 92 517 110.5 549.5 c 128,-1,23
 129 582 129 582 160.5 601 c 128,-1,24
 192 620 192 620 240 620 c 0,25,26
 263 620 263 620 284.5 612.5 c 128,-1,27
 306 605 306 605 323 590.5 c 128,-1,28
 340 576 340 576 350.5 555 c 128,-1,29
 361 534 361 534 361 508 c 0,30,31
 361 464 361 464 338 464 c 0,32,33
 321 464 321 464 304 494 c 0,34,35
 293 513 293 513 278 527.5 c 128,-1,36
 263 542 263 542 245 542 c 0,37,38
 221 542 221 542 206.5 530 c 128,-1,39
 192 518 192 518 184 496.5 c 128,-1,40
 176 475 176 475 173 445 c 128,-1,41
 170 415 170 415 170 379 c 2,42,-1
 170 322 l 1,43,-1
 256 322 l 6,44,45
 280 322 280 322 293.5 318.5 c 132,-1,46
 307 315 307 315 314 309.5 c 132,-1,47
 321 304 321 304 323 296.5 c 132,-1,48
 325 289 325 289 325 280 c 4,49,50
 325 274 325 274 323.5 268.5 c 132,-1,51
 322 263 322 263 316.5 259.5 c 132,-1,52
 311 256 311 256 300 253.5 c 132,-1,53
 289 251 289 251 270 251 c 6,54,-1
 170 251 l 1,55,-1
 170 186 l 2,56,57
 170 139 170 139 160 115.5 c 128,-1,58
 150 92 150 92 144 79 c 0,59,60
 140 71 140 71 145 71.5 c 128,-1,61
 150 72 150 72 160 74 c 0,62,63
 166 75 166 75 171.5 76 c 128,-1,64
 177 77 177 77 184 77.5 c 128,-1,65
 191 78 191 78 201 78 c 0,66,67
 214 78 214 78 227 78 c 2,68,-1
 443 78 l 2,69,70
 485 78 485 78 502 70.5 c 128,-1,71
 519 63 519 63 519 43 c 0,72,73
 519 17 519 17 506.5 8 c 128,-1,74
 494 -1 494 -1 466 1 c 0,75,76
 414 3 414 3 282 1.5 c 128,-1,77
 150 0 150 0 93 0 c 0,78,79
 67 0 67 0 50 7 c 128,-1,80
 33 14 33 14 33 28 c 0,0,1
112 460 m 0,81,82
 114 460 114 460 118 471 c 128,-1,83
 122 482 122 482 128.5 498 c 128,-1,84
 135 514 135 514 145 531.5 c 128,-1,85
 155 549 155 549 170 562 c 0,86,87
 183 574 183 574 184.5 579.5 c 128,-1,88
 186 585 186 585 183 585 c 0,89,90
 175 585 175 585 165 579.5 c 128,-1,91
 155 574 155 574 141 560 c 0,92,93
 133 552 133 552 126.5 540 c 128,-1,94
 120 528 120 528 115.5 515 c 128,-1,95
 111 502 111 502 109 490 c 128,-1,96
 107 478 107 478 107 469 c 256,97,98
 107 460 107 460 112 460 c 0,81,82
112 432 m 0,99,100
 112 436 112 436 109 438 c 128,-1,101
 106 440 106 440 103 440 c 0,102,103
 99 440 99 440 95 434 c 0,104,105
 94 431 94 431 93 428 c 0,106,107
 93 419 93 419 103 419 c 0,108,109
 112 419 112 419 112 432 c 0,99,100
EndSplineSet
EndChar

StartChar: m
Encoding: 109 109 79
Width: 540
GlyphClass: 2
Flags: W
LayerCount: 2
Fore
SplineSet
58.7900390625 -2.232421875 m 0,0,1
 44.712890625 -2 44.712890625 -2 36.2109375 3.3203125 c 0,2,3
 27.712890625 9 27.712890625 9 23.509765625 17.962890625 c 0,4,5
 18.712890625 30 18.712890625 30 17.865234375 38.6640625 c 0,6,7
 16.712890625 60 16.712890625 60 16.4541015625 63.404296875 c 2,8,-1
 16.4541015625 537.078125 l 2,9,10
 16.712890625 548 16.712890625 548 16.9248046875 561.313476562 c 0,11,12
 17.712890625 574 17.712890625 574 21.1572265625 585.548828125 c 128,-1,13
 24.712890625 597 24.712890625 597 33.388671875 604.23046875 c 0,14,15
 41.712890625 612 41.712890625 612 56.908203125 611.803710938 c 0,16,17
 75.712890625 612 75.712890625 612 85.1318359375 597.161132812 c 0,18,19
 94.712890625 583 94.712890625 583 98.7734375 564.342773438 c 0,20,21
 102.712890625 546 102.712890625 546 103.948242188 531.524414062 c 0,22,23
 104.712890625 517 104.712890625 517 106.770507812 516.881835938 c 256,24,25
 108.712890625 517 108.712890625 517 112.415039062 532.534179688 c 0,26,27
 115.712890625 548 115.712890625 548 126.056640625 566.36328125 c 0,28,29
 135.712890625 585 135.712890625 585 153.810546875 600.19140625 c 0,30,31
 171.712890625 616 171.712890625 616 202.732421875 615.842773438 c 0,32,33
 228.712890625 616 228.712890625 616 246.008789062 600.6953125 c 0,34,35
 262.712890625 586 262.712890625 586 273.291992188 566.8671875 c 0,36,37
 283.712890625 548 283.712890625 548 289.286132812 533.0390625 c 128,-1,38
 294.712890625 518 294.712890625 518 297.752929688 517.892578125 c 256,39,40
 300.712890625 518 300.712890625 518 305.75 533.0390625 c 128,-1,41
 310.712890625 548 310.712890625 548 321.272460938 566.8671875 c 0,42,43
 331.712890625 586 331.712890625 586 349.967773438 600.6953125 c 0,44,45
 368.712890625 616 368.712890625 616 398.41796875 615.842773438 c 0,46,47
 436.712890625 616 436.712890625 616 461.452148438 595.647460938 c 0,48,49
 485.712890625 575 485.712890625 575 499.5546875 539.602539062 c 0,50,51
 512.712890625 504 512.712890625 504 518.37109375 454.780273438 c 0,52,53
 523.544921875 415.282226562 523.544921875 415.282226562 523.544921875 349.255859375 c 2,54,-1
 523.544921875 25.0322265625 l 2,55,56
 523.712890625 11 523.712890625 11 505.669921875 4.3310546875 c 0,57,58
 487.712890625 -2 487.712890625 -2 468.978515625 -2.232421875 c 256,59,60
 449.712890625 -2 449.712890625 -2 439.813476562 3.3203125 c 0,61,62
 429.46484375 9.1396484375 429.46484375 9.1396484375 429.46484375 24.021484375 c 2,63,-1
 429.46484375 340.166992188 l 2,64,65
 429.712890625 352 429.712890625 352 429.46484375 381.064453125 c 0,66,67
 429.712890625 410 429.712890625 410 425.231445312 440.137695312 c 0,68,69
 420.712890625 470 420.712890625 470 411.119140625 493.15234375 c 0,70,71
 401.712890625 516 401.712890625 516 381.484375 515.873046875 c 0,72,73
 364.712890625 516 364.712890625 516 353.73046875 501.735351562 c 0,74,75
 342.712890625 488 342.712890625 488 336.326171875 462.858398438 c 0,76,77
 329.712890625 438 329.712890625 438 326.447265625 403.279296875 c 0,78,79
 322.712890625 368 322.712890625 368 321.272460938 326.030273438 c 0,80,81
 318.712890625 277 318.712890625 277 317.509765625 226.059570312 c 0,82,83
 316.712890625 176 316.712890625 176 317.0390625 140.153320312 c 0,84,85
 317.712890625 98 317.712890625 98 317.979492188 67.9482421875 c 0,86,87
 318.712890625 38 318.712890625 38 318.450195312 29.0712890625 c 0,88,89
 318.712890625 15 318.712890625 15 302.927734375 6.3505859375 c 0,90,91
 287.712890625 -2 287.712890625 -2 264.825195312 -2.232421875 c 256,92,93
 242.712890625 -2 242.712890625 -2 232.837890625 4.8349609375 c 0,94,95
 223.4296875 12.22265625 223.4296875 12.22265625 223.4296875 36.1396484375 c 2,96,-1
 223.4296875 340.166992188 l 2,97,98
 223.712890625 351 223.712890625 351 223.4296875 380.55859375 c 0,99,100
 223.712890625 410 223.712890625 410 219.666992188 440.137695312 c 0,101,102
 215.712890625 470 215.712890625 470 206.495117188 493.657226562 c 0,103,104
 196.712890625 517 196.712890625 517 178.271484375 516.881835938 c 0,105,106
 161.712890625 517 161.712890625 517 149.577148438 501.23046875 c 0,107,108
 137.712890625 486 137.712890625 486 130.291015625 461.34375 c 0,109,110
 122.712890625 437 122.712890625 437 118.530273438 406.814453125 c 0,111,112
 114.712890625 377 114.712890625 377 112.415039062 348.24609375 c 0,113,114
 110.712890625 320 110.712890625 320 110.063476562 295.736328125 c 0,115,116
 109.712890625 264 109.712890625 264 109.592773438 259.383789062 c 2,117,-1
 109.592773438 43.2080078125 l 2,118,119
 109.712890625 24 109.712890625 24 94.5400390625 10.89453125 c 0,120,121
 79.712890625 -2 79.712890625 -2 58.7900390625 -2.232421875 c 0,0,1
39.033203125 516.881835938 m 0,122,123
 44.712890625 518 44.712890625 518 45.1484375 528.495117188 c 128,-1,124
 45.712890625 539 45.712890625 539 45.6181640625 547.176757812 c 0,125,126
 45.712890625 554 45.712890625 554 47.5 562.828125 c 0,127,128
 49.712890625 571 49.712890625 571 50.79296875 578.48046875 c 128,-1,129
 51.712890625 586 51.712890625 586 52.2041015625 590.59765625 c 0,130,131
 51.712890625 596 51.712890625 596 48.4404296875 595.647460938 c 0,132,133
 41.712890625 596 41.712890625 596 37.62109375 589.083984375 c 0,134,135
 33.712890625 583 33.712890625 583 31.5068359375 573.430664062 c 0,136,137
 29.712890625 564 29.712890625 564 28.6845703125 556.264648438 c 0,138,139
 27.712890625 548 27.712890625 548 27.744140625 545.157226562 c 0,140,141
 27.712890625 537 27.712890625 537 29.625 526.475585938 c 128,-1,142
 31.712890625 516 31.712890625 516 39.033203125 516.881835938 c 0,122,123
256.357421875 20.9921875 m 0,143,144
 256.357421875 31.0908203125 256.357421875 31.0908203125 250.2421875 34.6240234375 c 128,-1,145
 244.127929688 38.1591796875 244.127929688 38.1591796875 244.127929688 49.2666015625 c 0,146,147
 244.127929688 51.2861328125 244.127929688 51.2861328125 244.127929688 56.8408203125 c 128,-1,148
 244.127929688 62.3935546875 244.127929688 62.3935546875 243.65625 67.9482421875 c 128,-1,149
 243.186523438 73.501953125 243.186523438 73.501953125 241.305664062 78.0458984375 c 128,-1,150
 239.423828125 82.58984375 239.423828125 82.58984375 236.600585938 82.58984375 c 0,151,152
 234.71875 82.58984375 234.71875 82.58984375 233.778320312 78.0458984375 c 128,-1,153
 232.837890625 73.501953125 232.837890625 73.501953125 232.3671875 67.443359375 c 128,-1,154
 231.896484375 61.384765625 231.896484375 61.384765625 231.896484375 55.830078125 c 128,-1,155
 231.896484375 50.2763671875 231.896484375 50.2763671875 231.896484375 48.2568359375 c 0,156,157
 231.896484375 36.1396484375 231.896484375 36.1396484375 235.189453125 22.5068359375 c 128,-1,158
 238.482421875 8.875 238.482421875 8.875 247.890625 8.875 c 0,159,160
 256.357421875 8.875 256.357421875 8.875 256.357421875 20.9921875 c 0,143,144
459.5703125 22.001953125 m 0,161,162
 459.5703125 32.099609375 459.5703125 32.099609375 454.395507812 39.673828125 c 128,-1,163
 449.221679688 47.2470703125 449.221679688 47.2470703125 449.221679688 58.3544921875 c 0,164,165
 449.221679688 62.3935546875 449.221679688 62.3935546875 448.750976562 72.4921875 c 128,-1,166
 448.280273438 82.58984375 448.280273438 82.58984375 442.635742188 82.58984375 c 0,167,168
 437.931640625 82.58984375 437.931640625 82.58984375 437.4609375 71.482421875 c 128,-1,169
 436.991210938 60.3740234375 436.991210938 60.3740234375 436.991210938 57.3447265625 c 256,170,171
 436.991210938 54.31640625 436.991210938 54.31640625 437.4609375 46.2373046875 c 128,-1,172
 437.931640625 38.1591796875 437.931640625 38.1591796875 439.813476562 30.5849609375 c 128,-1,173
 441.6953125 23.01171875 441.6953125 23.01171875 444.517578125 16.953125 c 128,-1,174
 447.33984375 10.89453125 447.33984375 10.89453125 452.044921875 10.89453125 c 0,175,176
 455.807617188 10.89453125 455.807617188 10.89453125 457.689453125 15.4384765625 c 128,-1,177
 459.5703125 19.982421875 459.5703125 19.982421875 459.5703125 22.001953125 c 0,161,162
56.908203125 22.001953125 m 0,178,179
 56.908203125 33.109375 56.908203125 33.109375 52.6748046875 34.1201171875 c 128,-1,180
 48.4404296875 35.12890625 48.4404296875 35.12890625 43.736328125 42.1982421875 c 0,181,182
 42.7958984375 44.2177734375 42.7958984375 44.2177734375 42.326171875 49.771484375 c 128,-1,183
 41.85546875 55.3251953125 41.85546875 55.3251953125 41.85546875 60.8798828125 c 128,-1,184
 41.85546875 66.4326171875 41.85546875 66.4326171875 40.4443359375 70.9765625 c 128,-1,185
 39.033203125 75.521484375 39.033203125 75.521484375 36.2109375 75.521484375 c 0,186,187
 31.5068359375 75.521484375 31.5068359375 75.521484375 31.0361328125 65.927734375 c 128,-1,188
 30.56640625 56.3359375 30.56640625 56.3359375 30.56640625 49.2666015625 c 0,189,190
 30.56640625 45.2275390625 30.56640625 45.2275390625 31.5068359375 39.16796875 c 128,-1,191
 32.447265625 33.109375 32.447265625 33.109375 34.798828125 27.0517578125 c 128,-1,192
 37.1513671875 20.9921875 37.1513671875 20.9921875 40.4443359375 16.4482421875 c 128,-1,193
 43.736328125 11.9033203125 43.736328125 11.9033203125 48.4404296875 11.9033203125 c 0,194,195
 56.908203125 11.9033203125 56.908203125 11.9033203125 56.908203125 22.001953125 c 0,178,179
EndSplineSet
EndChar

StartChar: n
Encoding: 110 110 80
Width: 540
GlyphClass: 2
Flags: W
LayerCount: 2
Fore
SplineSet
51.5 0 m 1,0,-1
 43.5 627 l 1,1,-1
 123.5 627 l 1,2,-1
 136.5 526 l 1,3,-1
 141.5 526 l 1,4,5
 158 557 158 557 183 576.5 c 128,-1,6
 208 596 208 596 242.5 605.5 c 0,7,8
 276 615 276 615 316.5 615 c 0,9,10
 398 615 398 615 447 569.5 c 0,11,12
 496.5 523.536132812 496.5 523.536132812 496.5 427 c 2,13,-1
 496.5 0 l 1,14,-1
 406.5 0 l 1,15,-1
 406.5 411 l 2,16,17
 405.984375 479.017578125 405.984375 479.017578125 379 510.5 c 128,-1,18
 352 542 352 542 290.5 542 c 0,19,20
 197 542 197 542 175 490 c 0,21,22
 141.5 406.7578125 141.5 406.7578125 141.5 344 c 2,23,-1
 141.5 0 l 1,24,-1
 51.5 0 l 1,0,-1
EndSplineSet
EndChar

StartChar: o
Encoding: 111 111 81
Width: 540
GlyphClass: 2
Flags: W
LayerCount: 2
Fore
SplineSet
156 266 m 1,0,-1
 156 330 l 1,1,-1
 391.200195312 330 l 1,2,-1
 391.200195312 266 l 1,3,-1
 156 266 l 1,0,-1
277.200195312 -9 m 0,4,5
 211.200195312 -9 211.200195312 -9 162.599609375 17.5 c 128,-1,6
 114 44 114 44 82.2001953125 87.5 c 128,-1,7
 50.400390625 131 50.400390625 131 34.7998046875 185.5 c 128,-1,8
 19.2001953125 240 19.2001953125 240 19.2001953125 296 c 256,9,10
 19.2001953125 352 19.2001953125 352 33.599609375 410.5 c 128,-1,11
 48 469 48 469 79.2001953125 516.5 c 128,-1,12
 110.400390625 564 110.400390625 564 159.599609375 594.5 c 128,-1,13
 208.799804688 625 208.799804688 625 278.400390625 625 c 0,14,15
 342 625 342 625 387.599609375 597.5 c 128,-1,16
 433.200195312 570 433.200195312 570 462.599609375 524 c 128,-1,17
 492 478 492 478 506.400390625 417.5 c 128,-1,18
 520.799804688 357 520.799804688 357 520.799804688 291 c 0,19,20
 520.799804688 236 520.799804688 236 506.400390625 182 c 128,-1,21
 492 128 492 128 462.599609375 85.5 c 128,-1,22
 433.200195312 43 433.200195312 43 387 17 c 128,-1,23
 340.799804688 -9 340.799804688 -9 277.200195312 -9 c 0,4,5
94.7998046875 468 m 0,24,25
 98.400390625 468 98.400390625 468 103.200195312 473.5 c 128,-1,26
 108 479 108 479 113.400390625 487.5 c 128,-1,27
 118.799804688 496 118.799804688 496 125.400390625 505 c 128,-1,28
 132 514 132 514 138 521 c 0,29,30
 164.400390625 550 164.400390625 550 187.799804688 567 c 128,-1,31
 211.200195312 584 211.200195312 584 211.200195312 589 c 0,32,33
 211.200195312 592 211.200195312 592 205.200195312 593 c 0,34,35
 190.799804688 593 190.799804688 593 171 579 c 128,-1,36
 151.200195312 565 151.200195312 565 133.200195312 545.5 c 128,-1,37
 115.200195312 526 115.200195312 526 102.599609375 505.5 c 128,-1,38
 90 485 90 485 90 473 c 0,39,40
 90 468 90 468 94.7998046875 468 c 0,24,25
277.200195312 71 m 0,41,42
 313.200195312 71 313.200195312 71 335.400390625 93.5 c 128,-1,43
 357.599609375 116 357.599609375 116 370.200195312 149.5 c 128,-1,44
 382.799804688 183 382.799804688 183 387.599609375 223 c 128,-1,45
 392.400390625 263 392.400390625 263 392.400390625 299 c 256,46,47
 392.400390625 335 392.400390625 335 389.400390625 376 c 128,-1,48
 386.400390625 417 386.400390625 417 374.400390625 452 c 128,-1,49
 362.400390625 487 362.400390625 487 339.599609375 510 c 128,-1,50
 316.799804688 533 316.799804688 533 278.400390625 533 c 0,51,52
 241.200195312 533 241.200195312 533 217.200195312 505 c 128,-1,53
 193.200195312 477 193.200195312 477 179.400390625 438.5 c 128,-1,54
 165.599609375 400 165.599609375 400 160.799804688 360 c 128,-1,55
 156 320 156 320 156 296 c 256,56,57
 156 272 156 272 159.599609375 233.5 c 128,-1,58
 163.200195312 195 163.200195312 195 175.799804688 159 c 128,-1,59
 188.400390625 123 188.400390625 123 212.400390625 97 c 128,-1,60
 236.400390625 71 236.400390625 71 277.200195312 71 c 0,41,42
96 446 m 256,61,62
 96 454 96 454 87.599609375 456 c 0,63,64
 84 456 84 456 78 452.5 c 128,-1,65
 72 449 72 449 72 441 c 0,66,67
 72 432 72 432 81.599609375 432 c 0,68,69
 85.2001953125 432 85.2001953125 432 90.599609375 435 c 128,-1,70
 96 438 96 438 96 446 c 256,61,62
EndSplineSet
EndChar

StartChar: p
Encoding: 112 112 82
Width: 540
GlyphClass: 2
Flags: W
LayerCount: 2
Fore
SplineSet
79.9375 -14 m 0,0,1
 59.9375 -14 59.9375 -14 42.9375 1 c 128,-1,2
 25.9375 16 25.9375 16 25.9375 69 c 2,3,-1
 25.9375 526 l 2,4,5
 25.9375 547 25.9375 547 34.4375 564 c 128,-1,6
 42.9375 581 42.9375 581 57.4375 592.5 c 128,-1,7
 71.9375 604 71.9375 604 90.4375 610 c 128,-1,8
 108.9375 616 108.9375 616 128.9375 616 c 2,9,-1
 310.9375 616 l 2,10,11
 341.9375 616 341.9375 616 377.4375 604 c 128,-1,12
 412.9375 592 412.9375 592 442.9375 566 c 128,-1,13
 472.9375 540 472.9375 540 492.9375 498 c 0,14,15
 518.9375 444 518.9375 444 512.9375 397 c 256,16,17
 511.9375 391 511.9375 391 493.4375 356.5 c 0,18,19
 460.9375 296 460.9375 296 444.9375 278.5 c 0,20,21
 415.9375 247 415.9375 247 381.9375 230.5 c 128,-1,22
 347.9375 214 347.9375 214 317.9375 214 c 2,23,-1
 165.9375 214 l 2,24,25
 156.9375 214 156.9375 214 148.4375 210 c 128,-1,26
 139.9375 206 139.9375 206 139.9375 132 c 2,27,-1
 139.9375 65 l 2,28,29
 139.9375 33 139.9375 33 134.4375 21 c 128,-1,30
 128.9375 9 128.9375 9 119.9375 1 c 128,-1,31
 110.9375 -7 110.9375 -7 100.4375 -10.5 c 128,-1,32
 89.9375 -14 89.9375 -14 79.9375 -14 c 0,0,1
306.9375 303 m 2,33,34
 323.9375 303 323.9375 303 339.9375 311 c 0,35,36
 363.9375 323 363.9375 323 369.4375 336.5 c 0,37,38
 386.9375 381 386.9375 381 390.9375 382 c 0,39,40
 398.9375 384 398.9375 384 398.9375 385 c 0,41,42
 398.9375 428 398.9375 428 390.9375 456.5 c 128,-1,43
 382.9375 485 382.9375 485 369.9375 501.5 c 128,-1,44
 356.9375 518 356.9375 518 340.9375 525 c 128,-1,45
 324.9375 532 324.9375 532 309.9375 532 c 2,46,-1
 164.9375 532 l 2,47,48
 139.9375 532 139.9375 532 139.9375 498 c 2,49,-1
 139.9375 326 l 2,50,51
 139.9375 303 139.9375 303 170.9375 303 c 2,52,-1
 306.9375 303 l 2,33,34
65.9375 21 m 256,53,54
 60.9375 26 60.9375 26 57.4375 39 c 128,-1,55
 53.9375 52 53.9375 52 53.9375 78.5 c 128,-1,56
 53.9375 105 53.9375 105 46.9375 105 c 0,57,58
 41.9375 105 41.9375 105 40.4375 96.5 c 128,-1,59
 38.9375 88 38.9375 88 38.9375 76 c 0,60,61
 38.9375 38 38.9375 38 45.9375 22 c 128,-1,62
 52.9375 6 52.9375 6 62.9375 6 c 0,63,64
 64.9375 6 64.9375 6 67.9375 8 c 128,-1,65
 70.9375 10 70.9375 10 70.9375 12 c 0,66,67
 70.9375 16 70.9375 16 65.9375 21 c 256,53,54
EndSplineSet
EndChar

StartChar: q
Encoding: 113 113 83
Width: 540
GlyphClass: 2
Flags: W
LayerCount: 2
Fore
SplineSet
71.0419921875 471.405273438 m 0,0,1
 75.595703125 473.8671875 75.595703125 473.8671875 99.859375 454.36328125 c 128,-1,2
 124.123046875 434.857421875 124.123046875 434.857421875 158.509765625 403.82421875 c 128,-1,3
 192.891601562 372.791992188 192.891601562 372.791992188 232.6171875 335 c 128,-1,4
 272.341796875 297.205078125 272.341796875 297.205078125 307.9921875 262.72265625 c 128,-1,5
 343.643554688 228.241210938 343.643554688 228.241210938 369.759765625 202.390625 c 128,-1,6
 395.87890625 176.536132812 395.87890625 176.536132812 404.024414062 169.915039062 c 0,7,8
 412.526367188 162.5625 412.526367188 162.5625 429.732421875 146.595703125 c 128,-1,9
 446.938476562 130.626953125 446.938476562 130.626953125 464.852539062 113.205078125 c 128,-1,10
 482.767578125 95.783203125 482.767578125 95.783203125 497.3125 80.21484375 c 128,-1,11
 511.861328125 64.6484375 511.861328125 64.6484375 514.690429688 58.826171875 c 0,12,13
 517.165039062 53.7333984375 517.165039062 53.7333984375 516.03515625 47.611328125 c 128,-1,14
 514.904296875 41.4873046875 514.904296875 41.4873046875 511.616210938 35.5791015625 c 128,-1,15
 508.328125 29.6669921875 508.328125 29.6669921875 503.682617188 24.861328125 c 128,-1,16
 499.038085938 20.0546875 499.038085938 20.0546875 494.484375 17.5927734375 c 0,17,18
 485.375976562 12.6728515625 485.375976562 12.6728515625 474.53515625 15.5439453125 c 128,-1,19
 463.6953125 18.4150390625 463.6953125 18.4150390625 455.250976562 23.958984375 c 0,20,21
 447.811523438 29.1259765625 447.811523438 29.1259765625 426.029296875 48.5927734375 c 128,-1,22
 404.248046875 68.0615234375 404.248046875 68.0615234375 374.083984375 96.3212890625 c 128,-1,23
 343.921875 124.58203125 343.921875 124.58203125 307.443359375 159.075195312 c 128,-1,24
 270.965820312 193.571289062 270.965820312 193.571289062 234.1328125 228.791992188 c 128,-1,25
 197.30078125 264.015625 197.30078125 264.015625 162.508789062 297.581054688 c 128,-1,26
 127.712890625 331.147460938 127.712890625 331.147460938 100.739257812 357.915039062 c 128,-1,27
 73.7646484375 384.684570312 73.7646484375 384.684570312 56.857421875 401.731445312 c 128,-1,28
 39.9462890625 418.778320312 39.9462890625 418.778320312 38.88671875 420.9609375 c 0,29,30
 35.703125 427.509765625 35.703125 427.509765625 39.0830078125 435.765625 c 128,-1,31
 42.4609375 444.022460938 42.4609375 444.022460938 48.6767578125 451.513671875 c 128,-1,32
 54.8916015625 459.0078125 54.8916015625 459.0078125 61.666015625 464.50390625 c 128,-1,33
 68.439453125 470 68.439453125 470 71.0419921875 471.405273438 c 0,0,1
68.9248046875 433.515625 m 0,34,35
 65.8544921875 436.450195312 65.8544921875 436.450195312 61.6826171875 432.359375 c 128,-1,36
 57.51171875 428.267578125 57.51171875 428.267578125 59.9873046875 423.173828125 c 0,37,38
 62.109375 418.809570312 62.109375 418.809570312 70.4892578125 410.016601562 c 128,-1,39
 78.869140625 401.22265625 78.869140625 401.22265625 88.580078125 392.228515625 c 128,-1,40
 98.2890625 383.233398438 98.2890625 383.233398438 107.29296875 375.697265625 c 128,-1,41
 116.295898438 368.159179688 116.295898438 368.159179688 119.010742188 365.950195312 c 0,42,43
 122.731445312 363.365234375 122.731445312 363.365234375 125.983398438 365.123046875 c 128,-1,44
 129.236328125 366.879882812 129.236328125 366.879882812 130.18359375 368.310546875 c 0,45,46
 133.083007812 370.796875 133.083007812 370.796875 126.385742188 378.662109375 c 128,-1,47
 119.688476562 386.528320312 119.688476562 386.528320312 109.298828125 396.071289062 c 128,-1,48
 98.9091796875 405.619140625 98.9091796875 405.619140625 87.33984375 415.904296875 c 128,-1,49
 75.7705078125 426.188476562 75.7705078125 426.188476562 68.9248046875 433.515625 c 0,34,35
114.610351562 0 m 2,50,51
 100.53515625 -1.1064453125 100.53515625 -1.1064453125 80.1103515625 4 c 0,52,53
 64.1103515625 8 64.1103515625 8 51.1103515625 18 c 0,54,55
 34.1103515625 31 34.1103515625 31 31.1103515625 45 c 0,56,57
 24.1103515625 88 24.1103515625 88 23.6103515625 88 c 2,58,-1
 23.6103515625 516 l 2,59,60
 24.1103515625 541 24.1103515625 541 33.1103515625 562.5 c 0,61,62
 42.1103515625 582 42.1103515625 582 58.1103515625 594.5 c 128,-1,63
 74.1103515625 607 74.1103515625 607 94.6103515625 612.5 c 0,64,65
 119.127929688 618.749023438 119.127929688 618.749023438 138.610351562 618 c 2,66,-1
 268.610351562 613 l 2,67,68
 316.110351562 611 316.110351562 611 351.610351562 593.5 c 0,69,70
 392.110351562 574 392.110351562 574 422.110351562 539 c 128,-1,71
 452.110351562 504 452.110351562 504 471.110351562 449.5 c 128,-1,72
 490.110351562 395 490.110351562 395 489.610351562 326 c 0,73,74
 490.110351562 257 490.110351562 257 470.610351562 192.5 c 128,-1,75
 451.110351562 128 451.110351562 128 419.610351562 89.5 c 0,76,77
 394.110351562 59 394.110351562 59 344.610351562 34.5 c 0,78,79
 305.033203125 14.9619140625 305.033203125 14.9619140625 254.610351562 11 c 2,80,-1
 114.610351562 0 l 2,50,51
208.610351562 96 m 2,81,82
 276.110351562 96 276.110351562 96 298.610351562 112.5 c 0,83,84
 322.110351562 129 322.110351562 129 338.110351562 159.5 c 128,-1,85
 354.110351562 190 354.110351562 190 364.110351562 233 c 128,-1,86
 374.110351562 276 374.110351562 276 373.610351562 329 c 0,87,88
 374.110351562 419 374.110351562 419 343.610351562 467 c 0,89,90
 309.110351562 520 309.110351562 520 265.610351562 520 c 2,91,-1
 250.610351562 520 l 2,92,93
 145.110351562 520 145.110351562 520 143.610351562 512.5 c 0,94,95
 138.110351562 481 138.110351562 481 137.610351562 480 c 2,96,-1
 137.610351562 132 l 2,97,98
 138.247070312 111.63671875 138.247070312 111.63671875 141.110351562 104 c 0,99,100
 144.110351562 96 144.110351562 96 195.610351562 96 c 2,101,-1
 208.610351562 96 l 2,81,82
54.6103515625 83 m 0,102,103
 59.1103515625 83 59.1103515625 83 60.1103515625 93.5 c 128,-1,104
 61.1103515625 104 61.1103515625 104 61.6103515625 117.5 c 0,105,106
 61.1103515625 131 61.1103515625 131 61.1103515625 143.5 c 128,-1,107
 61.1103515625 156 61.1103515625 156 60.6103515625 161 c 0,108,109
 61.1103515625 216 61.1103515625 216 54.6103515625 216 c 0,110,111
 51.1103515625 216 51.1103515625 216 48.6103515625 203.5 c 0,112,113
 45.1103515625 191 45.1103515625 191 45.6103515625 161 c 0,114,115
 45.1103515625 116 45.1103515625 116 46.1103515625 99.5 c 128,-1,116
 47.1103515625 83 47.1103515625 83 54.6103515625 83 c 0,102,103
53.6103515625 69 m 0,117,118
 47.1103515625 69 47.1103515625 69 46.6103515625 58 c 0,119,120
 47.1103515625 40 47.1103515625 40 54.6103515625 40 c 0,121,122
 57.1103515625 40 57.1103515625 40 59.6103515625 46 c 0,123,124
 61.1103515625 52 61.1103515625 52 61.6103515625 58 c 0,125,126
 61.1103515625 69 61.1103515625 69 53.6103515625 69 c 0,117,118
EndSplineSet
EndChar

StartChar: r
Encoding: 114 114 84
Width: 540
GlyphClass: 2
Flags: W
LayerCount: 2
Fore
SplineSet
15 0 m 1,0,-1
 15 60 l 1,1,-1
 178 75 l 1,2,-1
 178 461 l 1,3,-1
 31 474 l 1,4,-1
 31 536 l 1,5,-1
 250 536 l 1,6,-1
 262 438 l 1,7,-1
 266 438 l 1,8,9
 294 491 294 491 327.5 518.5 c 128,-1,10
 361 546 361 546 416 546 c 0,11,12
 450 546 450 546 476.5 540 c 128,-1,13
 503 534 503 534 525 524 c 1,14,-1
 501 445 l 1,15,16
 485 454 485 454 463 460.5 c 128,-1,17
 441 467 441 467 416 467 c 0,18,19
 373 467 373 467 340 440 c 128,-1,20
 307 413 307 413 288 368 c 128,-1,21
 269 323 269 323 269 269 c 2,22,-1
 269 75 l 1,23,-1
 425 60 l 1,24,-1
 425 0 l 1,25,-1
 15 0 l 1,0,-1
EndSplineSet
EndChar

StartChar: s
Encoding: 115 115 85
Width: 540
GlyphClass: 2
Flags: W
LayerCount: 2
Fore
SplineSet
244.799804688 -4.01953125 m 0,0,1
 184.799804688 -4.01953125 184.799804688 -4.01953125 130.19921875 5.9697265625 c 128,-1,2
 75.599609375 15.9599609375 75.599609375 15.9599609375 36 33.7197265625 c 1,3,-1
 36 125.849609375 l 1,4,5
 78 108.08984375 78 108.08984375 129 93.10546875 c 128,-1,6
 180 78.1201171875 180 78.1201171875 250.799804688 78.1201171875 c 0,7,8
 330 78.1201171875 330 78.1201171875 363 100.875 c 128,-1,9
 396 123.629882812 396 123.629882812 396 166.919921875 c 0,10,11
 396 190.23046875 396 190.23046875 384.599609375 205.21484375 c 128,-1,12
 373.19921875 220.200195312 373.19921875 220.200195312 340.799804688 235.740234375 c 128,-1,13
 308.399414062 251.280273438 308.399414062 251.280273438 246 275.700195312 c 0,14,15
 183.599609375 301.23046875 183.599609375 301.23046875 139.19921875 323.4296875 c 128,-1,16
 94.7998046875 345.629882812 94.7998046875 345.629882812 70.7998046875 376.155273438 c 128,-1,17
 46.7998046875 406.6796875 46.7998046875 406.6796875 46.7998046875 454.41015625 c 0,18,19
 46.7998046875 507.690429688 46.7998046875 507.690429688 76.19921875 542.655273438 c 128,-1,20
 105.599609375 577.620117188 105.599609375 577.620117188 161.399414062 595.379882812 c 128,-1,21
 217.19921875 613.139648438 217.19921875 613.139648438 294 613.139648438 c 0,22,23
 346.799804688 613.139648438 346.799804688 613.139648438 394.799804688 604.259765625 c 128,-1,24
 442.799804688 595.379882812 442.799804688 595.379882812 494.399414062 575.400390625 c 1,25,-1
 462 497.700195312 l 1,26,27
 414 516.5703125 414 516.5703125 373.799804688 523.23046875 c 128,-1,28
 333.599609375 529.889648438 333.599609375 529.889648438 294 529.889648438 c 0,29,30
 219.599609375 529.889648438 219.599609375 529.889648438 185.399414062 512.129882812 c 128,-1,31
 151.19921875 494.370117188 151.19921875 494.370117188 151.19921875 456.629882812 c 0,32,33
 151.19921875 432.209960938 151.19921875 432.209960938 166.19921875 415.559570312 c 128,-1,34
 181.19921875 398.91015625 181.19921875 398.91015625 215.399414062 383.370117188 c 128,-1,35
 249.599609375 367.830078125 249.599609375 367.830078125 306 345.629882812 c 0,36,37
 369.599609375 321.209960938 369.599609375 321.209960938 414 300.120117188 c 128,-1,38
 458.399414062 279.030273438 458.399414062 279.030273438 481.19921875 249.615234375 c 128,-1,39
 504 220.200195312 504 220.200195312 504 169.139648438 c 0,40,41
 504 112.530273438 504 112.530273438 474.599609375 74.2353515625 c 128,-1,42
 445.19921875 35.9404296875 445.19921875 35.9404296875 387.599609375 15.9599609375 c 128,-1,43
 330 -4.01953125 330 -4.01953125 244.799804688 -4.01953125 c 0,0,1
EndSplineSet
EndChar

StartChar: t
Encoding: 116 116 86
Width: 540
GlyphClass: 2
Flags: W
LayerCount: 2
Fore
SplineSet
386 -10 m 0,0,1
 329 -10 329 -10 284 5 c 128,-1,2
 239 20 239 20 212.5 58 c 128,-1,3
 186 96 186 96 186 163 c 2,4,-1
 186 461 l 1,5,-1
 40 461 l 1,6,-1
 40 523 l 1,7,-1
 186 539 l 1,8,-1
 204 679 l 1,9,-1
 276 679 l 1,10,-1
 276 536 l 1,11,-1
 485 536 l 1,12,-1
 485 461 l 1,13,-1
 276 461 l 1,14,-1
 276 180 l 2,15,16
 276 140 276 140 287.5 114 c 128,-1,17
 299 88 299 88 325 75.5 c 128,-1,18
 351 63 351 63 392 63 c 0,19,20
 418 63 418 63 448 68 c 128,-1,21
 478 73 478 73 500 78 c 1,22,-1
 500 6 l 1,23,24
 476 0 476 0 447 -5 c 128,-1,25
 418 -10 418 -10 386 -10 c 0,0,1
EndSplineSet
EndChar

StartChar: u
Encoding: 117 117 87
Width: 540
GlyphClass: 2
Flags: W
LayerCount: 2
Fore
SplineSet
233.5 -10 m 0,0,1
 138.5 -10 138.5 -10 93 37.5 c 128,-1,2
 47.5 85 47.5 85 47.5 179 c 2,3,-1
 47.5 536 l 1,4,-1
 137.5 536 l 1,5,-1
 137.5 193 l 2,6,7
 137.5 129 137.5 129 164 96 c 128,-1,8
 190.5 63 190.5 63 255.5 63 c 0,9,10
 311.5 63 311.5 63 343.5 86.5 c 128,-1,11
 375.5 110 375.5 110 389 154 c 128,-1,12
 402.5 198 402.5 198 402.5 260 c 2,13,-1
 402.5 536 l 1,14,-1
 492.5 536 l 1,15,-1
 492.5 0 l 1,16,-1
 420.5 0 l 1,17,-1
 407.5 72 l 1,18,-1
 402.5 72 l 1,19,20
 383.5 42 383.5 42 358.5 24 c 128,-1,21
 333.5 6 333.5 6 302.5 -2 c 128,-1,22
 271.5 -10 271.5 -10 233.5 -10 c 0,0,1
EndSplineSet
EndChar

StartChar: v
Encoding: 118 118 88
Width: 540
GlyphClass: 2
Flags: W
LayerCount: 2
Fore
SplineSet
375.5 -36 m 1,0,-1
 163.5 -36 l 1,1,-1
 163.5 17 l 1,2,-1
 375.5 17 l 1,3,-1
 375.5 -36 l 1,0,-1
375.5 -36 m 1,4,-1
 375.5 -36 l 1,4,-1
438.5 0 m 0,5,6
 421.5 0 421.5 0 411.5 9.5 c 128,-1,7
 401.5 19 401.5 19 396.5 32.5 c 128,-1,8
 391.5 46 391.5 46 390 62.5 c 128,-1,9
 388.5 79 388.5 79 388.5 92 c 2,10,-1
 388.5 237 l 2,11,12
 388.5 250 388.5 250 386 256.5 c 128,-1,13
 383.5 263 383.5 263 375.5 263 c 2,14,-1
 169.5 263 l 2,15,16
 159.5 263 159.5 263 155.5 260 c 128,-1,17
 151.5 257 151.5 257 151.5 247 c 2,18,-1
 151.5 105 l 2,19,20
 151.5 91 151.5 91 149.5 72.5 c 128,-1,21
 147.5 54 147.5 54 141.5 38 c 128,-1,22
 135.5 22 135.5 22 125.5 11 c 128,-1,23
 115.5 0 115.5 0 99.5 0 c 0,24,25
 81.5 0 81.5 0 69.5 8.5 c 128,-1,26
 57.5 17 57.5 17 51 31 c 128,-1,27
 44.5 45 44.5 45 42 64 c 128,-1,28
 39.5 83 39.5 83 39.5 105 c 2,29,-1
 39.5 546 l 2,30,31
 39.5 552 39.5 552 42 563.5 c 128,-1,32
 44.5 575 44.5 575 50.5 587 c 128,-1,33
 56.5 599 56.5 599 67.5 607.5 c 128,-1,34
 78.5 616 78.5 616 96.5 616 c 0,35,36
 111.5 616 111.5 616 122 609 c 128,-1,37
 132.5 602 132.5 602 139 591 c 128,-1,38
 145.5 580 145.5 580 148.5 567.5 c 128,-1,39
 151.5 555 151.5 555 151.5 544 c 2,40,-1
 151.5 369 l 2,41,42
 151.5 361 151.5 361 154 355 c 128,-1,43
 156.484375 349.038085938 156.484375 349.038085938 164.5 349 c 2,44,-1
 377.5 348 l 2,45,46
 382.5 348 382.5 348 385.5 350.5 c 128,-1,47
 388.5 353 388.5 353 388.5 367 c 2,48,-1
 388.5 540 l 2,49,50
 388.5 578 388.5 578 400.5 597 c 128,-1,51
 412.5 616 412.5 616 433.5 616 c 0,52,53
 444.5 616 444.5 616 456 612 c 128,-1,54
 467.5 608 467.5 608 477.5 598.5 c 128,-1,55
 487.5 589 487.5 589 494 574 c 128,-1,56
 500.5 559 500.5 559 500.5 537 c 2,57,-1
 500.5 91 l 2,58,59
 500.5 77 500.5 77 497 61 c 128,-1,60
 493.5 45 493.5 45 486 31.5 c 128,-1,61
 478.5 18 478.5 18 466.5 9 c 128,-1,62
 454.5 0 454.5 0 438.5 0 c 0,5,6
56.5 555 m 0,63,64
 59.5 555 59.5 555 64 559.5 c 128,-1,65
 68.5 564 68.5 564 73 570.5 c 128,-1,66
 77.5 577 77.5 577 81.5 583.5 c 128,-1,67
 85.5 590 85.5 590 86.5 593 c 256,68,69
 87.5 596 87.5 596 87 600.5 c 128,-1,70
 86.5 605 86.5 605 83.5 604 c 0,71,72
 76.5 603 76.5 603 71.5 597.5 c 128,-1,73
 66.5 592 66.5 592 62.5 585 c 128,-1,74
 58.5 578 58.5 578 56.5 572 c 128,-1,75
 54.5 566 54.5 566 54.5 563 c 0,76,77
 54.5 561 54.5 561 54.5 558.5 c 128,-1,78
 54.5 556 54.5 556 56.5 555 c 0,63,64
425.5 575 m 0,79,80
 426.5 583 426.5 583 432 591 c 128,-1,81
 437.5 599 437.5 599 431.5 600 c 0,82,83
 423.5 601 423.5 601 415 591.5 c 0,84,85
 405.5 581 405.5 581 404.5 568 c 0,86,87
 403.5 553 403.5 553 409.5 552 c 0,88,89
 417.5 551 417.5 551 421 561 c 128,-1,90
 424.5 571 424.5 571 425.5 575 c 0,79,80
81.5 30 m 0,91,92
 81.5 35 81.5 35 77.5 39 c 0,93,94
 72.5 44 72.5 44 70.5 59.5 c 128,-1,95
 68.5 75 68.5 75 68.5 86 c 0,96,97
 68.5 103 68.5 103 61.5 103 c 0,98,99
 57.5 103 57.5 103 56.5 96 c 128,-1,100
 55.5 89 55.5 89 55.5 86 c 0,101,102
 55.5 82 55.5 82 56.5 72 c 128,-1,103
 57.5 62 57.5 62 59.5 52 c 128,-1,104
 61.5 42 61.5 42 65.5 34.5 c 128,-1,105
 69.5 27 69.5 27 75.5 27 c 256,106,107
 81.5 27 81.5 27 81.5 30 c 0,91,92
426.5 26 m 0,108,109
 420.5 32 420.5 32 416 50 c 128,-1,110
 411.5 68 411.5 68 411.5 77 c 0,111,112
 411.5 81 411.5 81 409.5 81 c 0,113,114
 406.5 81 406.5 81 404.5 73.5 c 128,-1,115
 402.5 66 402.5 66 402.5 58 c 0,116,117
 402.5 46 402.5 46 407.5 31.5 c 128,-1,118
 412.5 17 412.5 17 426.5 17 c 0,119,120
 429.5 17 429.5 17 429 20.5 c 128,-1,121
 428.5 24 428.5 24 426.5 26 c 0,108,109
EndSplineSet
EndChar

StartChar: w
Encoding: 119 119 89
Width: 540
GlyphClass: 2
Flags: W
LayerCount: 2
Fore
SplineSet
543 538 m 1,0,-1
 5 538 l 1,1,-1
 5 617 l 1,2,-1
 543 617 l 1,3,-1
 543 538 l 1,0,-1
373 0 m 0,4,5
 350 0 350 0 333.5 6 c 128,-1,6
 317 12 317 12 305.5 23.5 c 128,-1,7
 294 35 294 35 286 51 c 0,8,9
 274 75 274 75 271 87 c 0,10,11
 270 91 270 91 269 97 c 128,-1,12
 268 103 268 103 266.5 109 c 128,-1,13
 265 115 265 115 263.5 119 c 128,-1,14
 262 123 262 123 260 123 c 256,15,16
 258 123 258 123 256 115.5 c 128,-1,17
 254 108 254 108 250 97 c 0,18,19
 240 71 240 71 231 52.5 c 128,-1,20
 222 34 222 34 210.5 22.5 c 128,-1,21
 199 11 199 11 185 5.5 c 128,-1,22
 171 0 171 0 151 0 c 0,23,24
 111 0 111 0 81.5 13.5 c 128,-1,25
 52 27 52 27 33 51.5 c 128,-1,26
 14 76 14 76 5 109.5 c 128,-1,27
 -4 143 -4 143 -4 183 c 2,28,-1
 -4 522 l 2,29,30
 -4 532 -4 532 -1 545.5 c 128,-1,31
 2 559 2 559 9 571 c 128,-1,32
 16 583 16 583 27.5 591.5 c 128,-1,33
 39 600 39 600 57 600 c 0,34,35
 86 600 86 600 97 579.5 c 128,-1,36
 107.903320312 559.1796875 107.903320312 559.1796875 108 527 c 2,37,-1
 109 193 l 2,38,39
 109 183 109 183 111 166.5 c 128,-1,40
 113 150 113 150 117.5 134 c 128,-1,41
 122 118 122 118 131 106.5 c 128,-1,42
 140 95 140 95 153 95 c 0,43,44
 176 95 176 95 189.5 129 c 128,-1,45
 203 163 203 163 210 219 c 128,-1,46
 217 275 217 275 218.5 285.5 c 128,-1,47
 220 296 220 296 220 372 c 4,48,49
 220 436 220 436 230 460.5 c 132,-1,50
 240 485 240 485 270 485 c 4,51,52
 284 485 284 485 293 480 c 132,-1,53
 302 475 302 475 308 459 c 132,-1,54
 314 443 314 443 316.5 413 c 132,-1,55
 319 383 319 383 319 333 c 4,56,57
 319 271 l 0,58,-1
 320.5 236.5 l 0,59,60
 322 202 322 202 324.5 181.5 c 128,-1,61
 327 161 327 161 332 146 c 0,62,63
 341 117 341 117 351 105.5 c 128,-1,64
 361 94 361 94 374 94 c 0,65,66
 433 94 433 94 433 239 c 2,67,-1
 433 539 l 2,68,69
 433 550 433 550 435 561 c 128,-1,70
 437 572 437 572 442.5 580.5 c 128,-1,71
 448 589 448 589 458 594.5 c 128,-1,72
 468 600 468 600 483 600 c 0,73,74
 515 600 515 600 529.5 582.5 c 128,-1,75
 544 565 544 565 544 539 c 2,76,-1
 544 220 l 2,77,78
 544 178 544 178 532.5 138.5 c 128,-1,79
 521 99 521 99 499.5 68 c 128,-1,80
 478 37 478 37 446 18.5 c 128,-1,81
 414 0 414 0 373 0 c 0,4,5
21 515 m 0,82,83
 28 515 28 515 30.5 522 c 128,-1,84
 33 529 33 529 34 534 c 0,85,86
 36 548 36 548 45 557.5 c 0,87,88
 60 573 60 573 60 579 c 0,89,90
 60 581 60 581 58 584 c 128,-1,91
 56 587 56 587 53 587 c 0,92,93
 47 587 47 587 40 580.5 c 128,-1,94
 33 574 33 574 27 565 c 128,-1,95
 21 556 21 556 17.5 545.5 c 128,-1,96
 14 535 14 535 14 527 c 0,97,98
 14 523 14 523 15 519 c 128,-1,99
 16 515 16 515 21 515 c 0,82,83
466 533 m 0,100,101
 466 543 466 543 469 551 c 128,-1,102
 472 559 472 559 476 566 c 0,103,104
 481 574 481 574 480 579 c 128,-1,105
 479 584 479 584 476 584 c 0,106,107
 471 584 471 584 464.5 580.5 c 128,-1,108
 458 577 458 577 454 567 c 0,109,110
 449 551 449 551 450.5 536 c 128,-1,111
 452 521 452 521 460 521 c 0,112,113
 462 521 462 521 464 524.5 c 128,-1,114
 466 528 466 528 466 533 c 0,100,101
247 421 m 4,115,116
 247 422 247 422 249 431.5 c 132,-1,117
 251 441 251 441 254 447 c 4,118,119
 261 460 261 460 263 465 c 132,-1,120
 265 470 265 470 262 470 c 4,121,122
 260 470 260 470 254.5 468 c 132,-1,123
 249 466 249 466 244 459 c 4,124,125
 233 444 233 444 233.5 427 c 132,-1,126
 234 410 234 410 242 410 c 4,127,128
 247 410 247 410 247 421 c 4,115,116
98 37 m 0,129,130
 97 42 97 42 84 51 c 128,-1,131
 71 60 71 60 65 67 c 0,132,133
 54 78 54 78 49.5 89 c 128,-1,134
 45 100 45 100 40 99 c 0,135,136
 36 99 36 99 36.5 92 c 128,-1,137
 37 85 37 85 41.5 75 c 128,-1,138
 46 65 46 65 55 54 c 128,-1,139
 64 43 64 43 77 34 c 0,140,141
 86 27 86 27 93 29 c 0,142,143
 98 29 98 29 98 37 c 0,129,130
364 22 m 0,144,145
 364 26 364 26 360.5 27 c 128,-1,146
 357 28 357 28 354 28 c 0,147,148
 349 29 349 29 339 38 c 128,-1,149
 329 47 329 47 323 57 c 0,150,151
 313 72 313 72 305 74 c 0,152,153
 302 74 302 74 302 69 c 0,154,155
 302 67 302 67 305.5 59 c 128,-1,156
 309 51 309 51 316 42 c 128,-1,157
 323 33 323 33 332.5 25.5 c 128,-1,158
 342 18 342 18 353 17 c 0,159,160
 357 17 357 17 360 17 c 128,-1,161
 363 17 363 17 364 22 c 0,144,145
EndSplineSet
EndChar

StartChar: x
Encoding: 120 120 90
Width: 540
GlyphClass: 2
Flags: W
LayerCount: 2
Fore
SplineSet
437.51953125 140.5 m 0,0,1
 437.51953125 109.5 437.51953125 109.5 412.319335938 99.5 c 128,-1,2
 387.119140625 89.5 387.119140625 89.5 358.319335938 88.5 c 0,3,4
 340.319335938 88.5 340.319335938 88.5 315.719726562 88 c 128,-1,5
 291.119140625 87.5 291.119140625 87.5 264.119140625 87 c 128,-1,6
 237.119140625 86.5 237.119140625 86.5 211.919921875 86.5 c 128,-1,7
 186.719726562 86.5 186.719726562 86.5 168.719726562 86.5 c 0,8,9
 142.319335938 86.5 142.319335938 86.5 123.719726562 97 c 128,-1,10
 105.119140625 107.5 105.119140625 107.5 105.119140625 130.5 c 0,11,12
 105.119140625 143.5 105.119140625 143.5 112.319335938 152.5 c 128,-1,13
 119.51953125 161.5 119.51953125 161.5 130.319335938 166.5 c 128,-1,14
 141.119140625 171.5 141.119140625 171.5 154.919921875 173.5 c 128,-1,15
 168.719726562 175.5 168.719726562 175.5 181.919921875 175.5 c 0,16,17
 201.119140625 175.5 201.119140625 175.5 227.51953125 176 c 128,-1,18
 253.919921875 176.5 253.919921875 176.5 281.51953125 177 c 128,-1,19
 309.119140625 177.5 309.119140625 177.5 336.119140625 177.5 c 128,-1,20
 363.119140625 177.5 363.119140625 177.5 382.319335938 177.5 c 0,21,22
 402.719726562 177.5 402.719726562 177.5 420.119140625 170 c 128,-1,23
 437.51953125 162.5 437.51953125 162.5 437.51953125 140.5 c 0,0,1
126.719726562 111.5 m 0,24,25
 131.51953125 111.5 131.51953125 111.5 136.919921875 117 c 128,-1,26
 142.319335938 122.5 142.319335938 122.5 146.51953125 129 c 128,-1,27
 150.719726562 135.5 150.719726562 135.5 153.719726562 142 c 128,-1,28
 156.719726562 148.5 156.719726562 148.5 156.719726562 150.5 c 0,29,30
 156.719726562 154.5 156.719726562 154.5 156.119140625 158 c 128,-1,31
 155.51953125 161.5 155.51953125 161.5 149.51953125 161.5 c 0,32,33
 133.919921875 161.5 133.919921875 161.5 126.119140625 148 c 128,-1,34
 118.319335938 134.5 118.319335938 134.5 118.319335938 124.5 c 0,35,36
 118.319335938 116.5 118.319335938 116.5 121.319335938 114 c 128,-1,37
 124.319335938 111.5 124.319335938 111.5 126.719726562 111.5 c 0,24,25
64.3193359375 -43 m 0,38,39
 46.3193359375 -43 46.3193359375 -43 32.51953125 -32.5 c 128,-1,40
 18.7197265625 -22 18.7197265625 -22 18.7197265625 -11 c 0,41,42
 18.7197265625 -8.720703125 18.7197265625 -8.720703125 23.51953125 3 c 2,43,-1
 178.319335938 381 l 2,44,-1
 197.51953125 420 l 0,45,46
 197.51953125 426 197.51953125 426 192.719726562 434.5 c 0,47,48
 189.119140625 440 189.119140625 440 181.919921875 451 c 2,49,-1
 47.51953125 585 l 2,50,51
 43.919921875 589 43.919921875 589 36.119140625 606 c 0,52,53
 30.7197265625 618 30.7197265625 618 30.7197265625 633 c 0,54,55
 30.7197265625 647 30.7197265625 647 48.119140625 661 c 128,-1,56
 65.51953125 675 65.51953125 675 97.919921875 675 c 0,57,58
 105.119140625 675 105.119140625 675 111.719726562 673 c 0,59,60
 115.03125 668.499023438 115.03125 668.499023438 123.581054688 663.444335938 c 0,61,62
 124.768554688 660.91015625 124.768554688 660.91015625 141.119140625 648.5 c 1,63,-1
 266.51953125 530 l 0,64,65
 268.319335938 524 268.319335938 524 273.119140625 524 c 256,66,-1
 289.919921875 546 l 2,67,-1
 403.919921875 661 l 2,68,69
 413.51953125 671 413.51953125 671 417.119140625 672 c 0,70,71
 425.51953125 675 425.51953125 675 433.919921875 675 c 256,72,73
 442.319335938 675 442.319335938 675 456.119140625 672 c 128,-1,74
 469.919921875 669 469.919921875 669 481.919921875 662 c 0,75,76
 496.319335938 654 496.319335938 654 499.319335938 645 c 0,77,78
 504.802734375 630.783203125 504.802734375 630.783203125 495.119140625 620 c 2,79,-1
 359.51953125 469 l 2,80,81
 340.319335938 448 340.319335938 448 340.319335938 432 c 0,82,83
 340.319335938 428 340.319335938 428 348.119140625 417.5 c 0,84,85
 352.319335938 411 352.319335938 411 372.719726562 381 c 2,86,-1
 520.319335938 3 l 2,87,88
 522.719726562 -2 522.719726562 -2 519.119140625 -8.5 c 0,89,90
 514.319335938 -16 514.319335938 -16 503.51953125 -23 c 128,-1,91
 492.719726562 -30 492.719726562 -30 477.119140625 -35 c 128,-1,92
 461.51953125 -40 461.51953125 -40 443.51953125 -40 c 0,93,94
 437.51953125 -40 437.51953125 -40 428.51953125 -38 c 0,95,96
 417.323242188 -36.0361328125 417.323242188 -36.0361328125 414.719726562 -29 c 2,97,-1
 291.119140625 305 l 2,98,99
 289.919921875 308 289.919921875 308 279.719726562 321.5 c 0,100,101
 274.319335938 329 274.319335938 329 269.51953125 329 c 256,102,103
 264.719726562 329 264.719726562 329 260.51953125 323 c 0,104,105
 258.719726562 320 258.719726562 320 245.51953125 302 c 2,106,-1
 133.919921875 -6 l 2,107,108
 127.919921875 -22 127.919921875 -22 101.51953125 -35 c 0,109,110
 84.7197265625 -43 84.7197265625 -43 64.3193359375 -43 c 0,38,39
426.719726562 635 m 0,111,112
 426.719726562 641 426.719726562 641 439.919921875 652 c 256,113,114
 453.119140625 663 453.119140625 663 445.919921875 663 c 0,115,116
 439.919921875 663 439.919921875 663 432.719726562 660.5 c 128,-1,117
 425.51953125 658 425.51953125 658 419.51953125 650 c 0,118,119
 412.319335938 639 412.319335938 639 414.119140625 634.5 c 128,-1,120
 415.919921875 630 415.919921875 630 419.51953125 630 c 0,121,122
 426.719726562 630 426.719726562 630 426.719726562 635 c 0,111,112
67.919921875 622 m 0,123,124
 67.919921875 634 67.919921875 634 74.51953125 638.5 c 128,-1,125
 81.119140625 643 81.119140625 643 79.919921875 647 c 0,126,127
 77.51953125 655 77.51953125 655 69.119140625 655 c 0,128,129
 64.3193359375 655 64.3193359375 655 59.51953125 649.5 c 128,-1,130
 54.7197265625 644 54.7197265625 644 52.3193359375 636 c 128,-1,131
 49.919921875 628 49.919921875 628 50.51953125 619 c 128,-1,132
 51.119140625 610 51.119140625 610 55.919921875 603 c 0,133,134
 60.7197265625 597 60.7197265625 597 65.51953125 598 c 0,135,136
 71.51953125 600 71.51953125 600 69.7197265625 608.5 c 128,-1,137
 67.919921875 617 67.919921875 617 67.919921875 622 c 0,123,124
451.919921875 -27 m 0,138,139
 455.51953125 -22 455.51953125 -22 438.719726562 -13 c 0,140,141
 435.119140625 -11 435.119140625 -11 430.319335938 -5.5 c 128,-1,142
 425.51953125 0 425.51953125 0 421.919921875 6 c 128,-1,143
 418.319335938 12 418.319335938 12 414.719726562 17 c 128,-1,144
 411.119140625 22 411.119140625 22 408.719726562 22 c 0,145,146
 402.719726562 22 402.719726562 22 402.719726562 16 c 0,147,148
 402.719726562 12 402.719726562 12 405.719726562 5 c 128,-1,149
 408.719726562 -2 408.719726562 -2 414.119140625 -9.5 c 128,-1,150
 419.51953125 -17 419.51953125 -17 426.119140625 -23 c 128,-1,151
 432.719726562 -29 432.719726562 -29 439.919921875 -30 c 0,152,153
 443.51953125 -30 443.51953125 -30 447.719726562 -30 c 0,154,155
 449.51953125 -30 449.51953125 -30 451.919921875 -27 c 0,138,139
53.51953125 -20 m 0,156,157
 51.119140625 -16 51.119140625 -16 45.7197265625 -10 c 128,-1,158
 40.3193359375 -4 40.3193359375 -4 42.7197265625 1 c 0,159,160
 45.119140625 9 45.119140625 9 42.119140625 9 c 128,-1,161
 39.119140625 9 39.119140625 9 35.51953125 3 c 0,162,163
 30.7197265625 -5 30.7197265625 -5 34.919921875 -15 c 128,-1,164
 39.119140625 -25 39.119140625 -25 45.119140625 -27 c 0,165,166
 49.919921875 -29 49.919921875 -29 53.51953125 -27.5 c 128,-1,167
 57.119140625 -26 57.119140625 -26 53.51953125 -20 c 0,156,157
EndSplineSet
EndChar

